<svg width="672" height="570" viewBox="0 0 672 570" fill="none" xmlns="http://www.w3.org/2000/svg">
<g opacity="0.56">
<path d="M591.36 475.375C589.578 476.755 580.147 475.731 577.527 475.953C560.087 477.498 554.406 482.109 543.205 484.638C536.498 486.152 528.9 486.241 523.188 482.946C516.34 478.951 514.592 471.77 489.547 469.184C480.966 468.34 477.514 468.745 469.164 471.634C441.884 480.785 456.272 482.781 429.235 491.496C425.618 492.654 421.108 493.634 418.283 491.407C415.401 489.092 416.501 484.727 419.489 482.5C422.422 480.317 426.509 479.651 430.388 478.981C438.929 477.512 448.151 475.197 452.814 469.007C456.168 464.553 456.849 458.451 461.775 455.201C468.639 450.673 478.161 454.456 487.766 452.974L488.919 454.666C491.748 454.355 501.86 452.707 509.459 451.415L510.396 458.056C510.501 466.29 558.604 468.299 586.848 464.697C590.673 468.516 594.132 473.241 591.36 475.375Z" fill="#109C3D"/>
</g>
<g opacity="0.56">
<path d="M667.279 456.136C663.685 468.551 651.357 465.965 637.202 466.824C624.731 467.621 612.05 471.411 600.05 468.427C596.486 467.536 593.186 466.111 590.048 464.508C589.901 464.444 589.761 464.37 589.629 464.286C598.327 462.995 604.721 461.124 606.507 458.674C606.671 458.753 606.848 458.813 607.031 458.852C613.314 460.539 618.036 454.204 623.641 453.018C631.455 451.326 638.889 458.184 646.855 457.249C653.281 456.5 657.013 451.356 660.793 449.857C664.882 448.295 668.872 450.49 667.279 456.136Z" fill="#109C3D"/>
</g>
<path d="M471.931 291.493L396.32 293.897L411.779 402.873L495.401 393.654L471.931 291.493ZM475.336 364.439L419.268 369.027C418.849 369.067 418.424 369.013 418.037 368.869C417.65 368.726 417.315 368.498 417.065 368.208C416.815 367.919 416.659 367.579 416.613 367.222C416.568 366.865 416.634 366.504 416.805 366.176L438.342 321.959C438.502 321.619 438.767 321.321 439.109 321.098C439.45 320.874 439.856 320.732 440.284 320.686C440.712 320.641 441.147 320.694 441.543 320.839C441.938 320.985 442.281 321.218 442.535 321.514L477.073 361.194C477.325 361.487 477.482 361.832 477.526 362.193C477.57 362.554 477.5 362.919 477.323 363.249C477.146 363.58 476.869 363.864 476.52 364.073C476.171 364.282 475.762 364.409 475.336 364.439Z" fill="#109C3D"/>
<path d="M3.68876 543.71L2.35156 558.48L112.099 565.657L113.436 550.887L3.68876 543.71Z" fill="#109C3D"/>
<path d="M276.785 554.703L281.714 570L376.308 548.134L371.379 532.836L276.785 554.703Z" fill="#109C3D"/>
<path d="M180.064 45.9309C178.426 46.2085 173.832 47.2671 172.99 47.2671C170.684 47.5327 168.326 47.044 166.021 47.3561C158.145 48.5966 150.962 46.7464 144.012 48.8264C137.918 50.6434 134.237 54.6877 125.462 53.8576C122.387 53.661 121.216 52.7247 115.617 53.592C104.452 54.8657 100.645 58.918 94.0283 59.6485C88.8523 60.1997 84.5359 58.0999 76.7876 59.1173C76.5476 59.1682 76.3019 59.1981 76.0547 59.2063C77.8878 34.5788 93.1359 17.0759 123.529 11.1534C158.684 12.1297 176.29 24.5549 180.064 45.9309Z" fill="#D3D3D3"/>
<path d="M205.269 283.39C204.731 283.442 54.5146 298.094 63.9929 297.175C67.542 216.686 65.8479 236.59 67.3013 204.907C67.3013 201.463 66.0933 200.723 68.6656 198.482C68.7187 198.437 68.7703 198.349 68.8766 198.303C71.8842 195.494 74.4917 192.394 76.6452 189.067C106.807 214.182 142.953 220.249 184.582 213.606C184.738 213.563 184.949 213.563 185.107 213.517C184.638 225.737 185.596 239.683 189.097 251.577C185.946 256.575 182.69 261.526 179.331 266.479C180.067 268.263 181.589 269.29 183.69 269.826C187.128 270.702 191.801 269.918 194.084 268.531H194.137C194.556 268.266 194.918 268.085 195.231 267.773C197.929 273.261 201.293 278.495 205.269 283.39Z" fill="#109C3D"/>
<path d="M98.6432 154.354L86.4128 145.566C86.3706 145.117 84.6766 126.822 84.7844 127.986L84.6797 126.692C88.3059 125.584 92.1145 124.966 95.9661 124.863C97.1898 138.332 98.6932 154.899 98.6432 154.354Z" fill="#109C3D"/>
<path d="M171.512 168.951H171.566C170.804 170.892 171.755 174.529 172.563 177.785C171.209 177.834 169.906 177.83 168.52 177.83L158.335 178.096L158.491 177.382C145.472 176.311 132.715 173.098 120.641 167.789C129.631 167.995 155.334 168.586 160.067 168.586C160.148 168.138 166.285 134.592 165.894 136.728C170.456 138.254 174.26 140.25 176.446 141.775C176.365 142.225 171.195 170.692 171.512 168.951Z" fill="#109C3D"/>
<path d="M237.879 30.7217C239.951 25.3611 244.682 16.6667 249.73 13.0567C255.488 8.99503 263.876 8.95917 271.219 10.12C276.803 11.0378 283.061 13.1749 284.816 17.9179C285.084 12.3394 280.216 6.99876 273.876 5.78213C285.805 0.649976 302.631 6.98547 308.115 22.6715C309.628 17.6544 309.091 12.3493 306.591 7.62566C312.246 9.7096 317.353 13.0208 320.997 17.3016C327.705 25.4169 328.377 35.9521 328.769 45.891C334.312 39.6804 339.104 32.1242 337.405 24.4645C343.381 35.3199 343.683 48.2725 338.483 59.3868C344.189 54.7873 348.433 48.7612 350.612 42.3142C352.895 56.6135 348.676 71.5345 338.8 83.3315C347.346 80.0921 354.231 73.9133 357.577 66.6122C359.078 84.3596 339.258 96.7729 329.633 111.424L309.161 111.168C309.933 109.692 309.317 107.964 308.048 106.695C304.003 103.057 292.637 101.847 285.813 100.332C279.874 99.0122 274.075 96.992 270.071 93.0274C275.615 89.2234 284.017 88.4597 290.407 91.2582C289.185 81.7762 280.363 74.0966 270.199 69.8742C263.002 66.8845 261.796 67.0492 260.638 65.5802C263.81 64.6265 267.056 61.6368 276.839 64.2241C282.912 65.8312 285.956 68.4943 287.976 69.7853C289.102 68.7227 286.616 65.7529 285.872 64.8324C281.715 59.6896 268.539 50.4202 261.858 46.2549C260.408 45.3504 258.889 44.3955 257.795 43.1562C262.294 41.5491 267.437 42.4364 272.152 43.5069C273.517 43.7938 274.857 44.1609 276.162 44.6053C276.933 44.8829 278.328 45.9694 278.922 45.2694C279.782 44.256 277.81 40.7164 277.306 39.7175C272.09 29.3736 258.975 24.5854 247.029 27.8475C243.892 28.7134 241.065 30.0775 237.879 30.7217Z" fill="#109C3D"/>
<path d="M229.416 204.104L218.497 206.157C218.34 205.709 206.62 170.789 207.367 173.005L206.632 170.819L206.527 170.553L217.498 168.278C220.266 176.598 230.057 206.025 229.416 204.104Z" fill="#D3D3D3"/>
<g opacity="0.73">
<path d="M655.695 319.546C655.897 321.005 655.466 322.477 654.482 323.685C653.498 324.893 652.029 325.755 650.351 326.108C648.673 326.461 646.901 326.282 645.367 325.604C643.833 324.925 642.644 323.795 642.021 322.424C640.59 328.204 631.053 328.939 628.49 323.354C626.757 319.57 629.877 315.518 634.332 315.179C631.494 311.435 634.259 306.463 639.438 305.931C645.015 305.35 649.074 310.263 646.702 314.483C647.687 314.242 648.723 314.185 649.737 314.317C650.751 314.45 651.719 314.767 652.574 315.249C653.43 315.73 654.152 316.364 654.691 317.106C655.229 317.848 655.572 318.68 655.695 319.546Z" fill="#109C3D"/>
</g>
<g opacity="0.73">
<path d="M613.237 284.815C613.439 286.274 613.007 287.746 612.024 288.954C611.04 290.162 609.571 291.024 607.893 291.377C606.214 291.73 604.442 291.551 602.909 290.873C601.375 290.194 600.185 289.064 599.563 287.693C598.131 293.473 588.595 294.209 586.034 288.623C584.3 284.84 587.418 280.787 591.875 280.448C589.037 276.704 591.8 271.732 596.979 271.2C602.557 270.62 606.615 275.532 604.245 279.752C605.23 279.51 606.266 279.454 607.28 279.586C608.294 279.719 609.262 280.036 610.117 280.518C610.972 280.999 611.694 281.633 612.233 282.375C612.771 283.117 613.114 283.949 613.237 284.815Z" fill="#109C3D"/>
</g>
<g opacity="0.56">
<path d="M533.653 516.884C542.42 513.549 552.179 510.073 561.323 512.57C567.924 514.372 573.155 519.096 579.952 520.263C588.983 521.814 597.478 516.763 605.738 513.295C611.024 511.075 622.327 507.333 628.096 508.434C630.72 508.935 633.213 510.535 633.785 512.769C634.357 515.003 632.863 517.356 630.744 518.787C628.625 520.219 625.973 520.923 623.394 521.61C607.685 525.744 607.786 524.075 596.75 524.133C588.325 524.179 579.856 526.487 573.291 530.974C569.815 533.348 566.873 536.308 563.061 538.279C559.249 540.25 554.063 541.011 550.463 538.773C547.746 537.085 546.556 534.124 544.144 532.132C541.363 529.85 537.202 529.118 533.36 529.489C529.519 529.859 525.911 531.197 522.411 532.591C514.552 535.723 510.611 536.63 502.953 532.153C496.161 528.18 491.882 517.583 503.958 520.11C515.093 522.439 523.168 520.873 533.653 516.884Z" fill="#109C3D"/>
</g>
<path d="M462.658 282.719C462.536 282.273 458.21 266.466 458.466 267.4L457.011 267.426C456.175 266.588 459.257 267.177 402.02 267.308C401.833 267.31 401.65 267.345 401.48 267.412C401.311 267.479 401.161 267.575 401.039 267.695C400.917 267.815 400.826 267.956 400.773 268.108C400.72 268.26 400.706 268.419 400.731 268.576L402.72 280.772C403.206 283.95 406.141 286.603 409.753 287.28C411.216 288.455 413.168 289.088 415.18 289.04L457.677 288.243C458.466 288.236 459.243 288.077 459.949 287.777C460.654 287.477 461.271 287.044 461.75 286.512C462.23 285.98 462.562 285.362 462.719 284.705C462.876 284.047 462.855 283.368 462.658 282.719ZM405.322 280.476L403.536 269.53L455.02 269.23L458.133 280.262C458.732 282.353 456.892 284.379 454.411 284.41C453.884 284.417 411.356 285.241 411.881 285.256C410.292 285.269 408.752 284.792 407.546 283.913C406.339 283.033 405.549 281.812 405.322 280.476Z" fill="#062F34"/>
<path d="M448.989 354.957C449.189 354.756 449.258 354.448 449.197 354.042C445.915 336.548 446.616 336.518 445.302 335.547C443.958 334.551 440.903 334.706 441.566 337.008L446.527 354.043C446.865 355.48 448.504 355.46 448.989 354.957Z" fill="#062F34"/>
<path d="M451.957 360.129C451.315 357.365 445.909 357.284 446.572 360.129C447.241 363.001 452.598 362.886 451.957 360.129Z" fill="#062F34"/>
<path d="M484.689 411.902L432.245 417.666C430.584 417.847 430.786 420.012 432.584 419.879L485.028 414.115C486.672 413.936 486.522 411.814 484.689 411.902Z" fill="#062F34"/>
<path d="M478.643 424.839L442.515 428.807C440.854 428.989 441.055 431.154 442.854 431.021L478.982 427.052C480.667 426.867 480.414 424.679 478.643 424.839Z" fill="#062F34"/>
<path d="M183.23 148.936C182.136 146.604 180.949 144.799 177.077 142.129C176.881 141.996 176.672 141.876 176.452 141.772L175.983 144.272C179.438 146.774 179.69 147.983 180.74 149.678C180.74 149.694 180.754 149.699 180.759 149.715C180.812 149.804 180.865 149.848 180.865 149.938C180.862 149.917 180.857 149.896 180.849 149.876C180.849 149.89 180.865 149.909 180.873 149.921C180.885 149.943 180.901 149.963 180.914 149.984V150.031L181.176 150.746C181.176 150.789 181.229 150.878 181.229 150.923C181.611 152.252 181.7 153.628 181.492 154.984C181.598 162.023 181.648 169.041 181.701 176.022C141.969 180.212 107.414 165.3 82.1517 139.416C81.6032 138.639 79.8075 137.085 78.6995 135.263C78.2572 134.322 78.1432 134.212 79.1683 133.701C81.1109 132.541 83.0534 131.426 85.0476 130.444L84.785 127.99C82.3174 129.105 80.0076 130.489 77.7525 131.827C74.8723 133.322 75.3755 135.163 77.3821 137.671C77.4727 137.98 82.0783 143.305 82.7534 143.447C116.741 176.556 162.988 186.807 207.37 173.003L206.635 170.817C205.01 171.333 203.363 171.747 201.725 172.189C190.487 160.795 185.972 152.82 183.23 148.936ZM184.12 154.823C188.511 161.196 193.506 167.253 199.056 172.936C194.223 174.132 189.299 175.043 184.319 175.662C184.161 154.666 184.084 155.138 184.12 154.823Z" fill="#062F34"/>
<path d="M92.0621 534.159C102.128 534.148 98.0179 522.736 86.9049 528.753C87.6332 526.565 88.3349 524.335 87.6863 522.026C86.3173 517.131 79.1942 515.745 78.2221 520.627C77.6439 523.499 78.93 526.309 79.9927 528.584C77.0078 527.431 73.8776 526.395 70.6379 525.439C72.6898 523.42 76.339 517.964 77.0219 517.093C78.5972 515.041 80.0677 512.987 81.5368 510.891L8.82036 504.023C6.03756 509.556 3.09744 515.046 0 520.493L6.57464 521.037L4.50707 543.901C4.49321 544.047 4.51349 544.194 4.56674 544.333C4.61998 544.472 4.70514 544.601 4.81731 544.712C4.92947 544.823 5.06641 544.915 5.22024 544.98C5.37406 545.046 5.54172 545.086 5.71354 545.096C74.2354 549.572 112.597 552.03 111.877 552.03C112.123 552.029 112.364 551.97 112.572 551.859C112.781 551.748 112.949 551.589 113.056 551.401C113.164 551.213 113.207 551.003 113.181 550.795C113.155 550.587 113.061 550.389 112.91 550.224C107.06 543.889 100.125 538.566 92.0621 534.159ZM94.0015 529.389C94.7048 529.603 95.2518 530.186 95.1783 530.656C94.9002 532.55 89.0569 531.922 87.0706 531.407C88.7068 530.25 92.0246 528.802 94.0015 529.389ZM80.8101 520.998C80.9992 520.053 81.3742 519.651 82.4744 519.89C83.881 520.205 84.828 521.445 85.1312 522.546C85.7657 524.84 84.5608 527.372 83.8497 529.77C83.2589 529.218 82.7946 528.576 82.4807 527.879C81.4821 525.729 80.3459 523.302 80.8101 520.998ZM9.18605 521.247L17.5048 521.937L15.8498 543.521L7.22319 542.957L9.18605 521.247ZM18.469 543.694L20.1193 522.154L62.738 525.683C64.7525 526.16 66.7138 526.677 68.6344 527.221C65.7039 529.227 63.4288 531.839 62.027 534.807C61.4018 536.178 63.8257 536.998 64.4712 535.625C65.8967 532.566 68.3721 529.943 71.5756 528.095C75.0122 529.146 78.3806 530.352 81.6665 531.707C77.9517 533.78 74.9684 536.713 73.2478 540.214C73.1133 540.487 73.1117 540.793 73.2434 541.067C73.3752 541.341 73.6294 541.559 73.9502 541.673C74.271 541.787 74.6321 541.789 74.9541 541.677C75.276 541.565 75.5324 541.349 75.6669 541.076C77.4072 537.614 80.4464 534.739 84.3107 532.899C93.9859 537.271 102.161 542.801 108.925 549.603L18.469 543.694Z" fill="#062F34"/>
<path d="M28.2955 502.372C36.9581 489.523 44.7282 476.628 51.5529 463.554L32.1291 459.896C31.7927 459.824 31.5018 459.645 31.3161 459.396C31.1303 459.147 31.0639 458.847 31.1304 458.558C31.1677 458.414 31.2382 458.278 31.3377 458.157C31.4372 458.036 31.5639 457.934 31.7103 457.855C31.8568 457.776 32.0202 457.723 32.191 457.698C32.3618 457.673 32.5368 457.677 32.7057 457.71L52.5531 461.458C59.019 449.009 64.6959 436.275 69.5593 423.31L48.0882 418.981C46.3551 418.667 46.9943 416.435 48.6649 416.84L70.2954 421.168C85.4669 379.673 91.393 337.466 87.9346 294.856L67.2495 296.863C65.9509 300.865 65.7211 350.522 37.1159 434.995C29.4504 457.621 20.7848 480.147 9.92188 501.882L28.5065 503.622C28.2981 503.471 28.1617 503.261 28.1228 503.031C28.0839 502.801 28.1454 502.567 28.2955 502.372Z" fill="#062F34"/>
<path d="M340.899 520.47C348.49 518.135 342.19 509.284 333.539 516.479C333.681 514.342 333.761 512.15 332.601 510.13C330.086 505.734 323.001 505.747 323.293 510.529C323.465 513.379 325.423 515.823 326.997 517.785C327.195 518.029 327.439 518.163 327.65 518.377C323.13 518.028 318.583 518.017 314.062 518.345L317.876 516.839C315.937 512.073 313.999 507.264 312.06 502.494C311.903 502.688 311.687 502.843 311.435 502.941C247.612 527.921 246.618 528.866 246.301 528.324C248.45 533.046 250.598 537.81 252.694 542.575L271.51 535.137L277.802 554.662C277.895 554.946 278.116 555.187 278.418 555.333C278.719 555.479 279.076 555.518 279.412 555.442L370.189 534.456C370.434 534.399 370.655 534.282 370.824 534.12C370.993 533.958 371.103 533.758 371.14 533.544C371.178 533.33 371.142 533.111 371.036 532.914C370.931 532.717 370.76 532.551 370.545 532.435C359.84 526.729 350.353 522.769 340.899 520.47ZM340.285 515.969C340.973 516.038 341.598 516.466 341.651 516.899C341.853 518.652 336.328 519.131 334.4 518.999C335.675 517.629 338.255 515.818 340.285 515.969ZM325.907 510.413C325.872 509.794 326.008 509.515 326.122 509.394C326.734 508.791 329.091 509.115 330.233 511.106C331.376 513.097 330.901 515.645 330.816 517.994C330.166 517.595 329.605 517.1 329.16 516.533C327.706 514.704 326.051 512.639 325.915 510.413H325.907ZM273.917 534.188L281.953 531.015L288.615 551.004L279.979 552.996L273.917 534.188ZM291.15 550.418L284.366 530.061L306.129 521.468C309.816 520.935 313.538 520.592 317.275 520.44C316.722 522.416 316.3 524.417 316.01 526.434C315.991 526.579 316.005 526.726 316.052 526.867C316.1 527.007 316.179 527.139 316.286 527.253C316.394 527.368 316.526 527.463 316.677 527.534C316.827 527.605 316.993 527.65 317.164 527.666C317.216 527.672 317.268 527.675 317.32 527.676C317.642 527.675 317.953 527.574 318.193 527.392C318.433 527.209 318.585 526.958 318.622 526.686C318.914 524.563 319.358 522.458 319.952 520.381C323.453 520.339 326.952 520.517 330.422 520.912C329.145 523.347 328.155 525.883 327.469 528.483C327.427 528.646 327.428 528.815 327.473 528.977C327.518 529.14 327.605 529.291 327.728 529.421C327.851 529.551 328.006 529.656 328.183 529.728C328.36 529.8 328.554 529.838 328.75 529.838C330.724 529.838 329.447 528.002 333.084 521.271C344.001 522.907 354.547 526.761 366.582 532.984L291.15 550.418Z" fill="#062F34"/>
<path d="M210.299 436.184L201.234 440.059C212.53 460.737 222.019 478.919 226.123 487.042L235.87 482.901L210.299 436.184Z" fill="#062F34"/>
<path d="M311.365 500.944C287.041 442.403 258.364 385.201 225.636 330.193C219.577 319.988 199.676 287.837 196.815 284.192L90.5579 294.588C94.0226 337.466 88.0918 379.942 72.8672 421.659L80.5842 423.221C82.1204 423.501 81.8532 425.451 80.2716 425.451L72.0826 423.801C67.2899 436.777 61.6452 449.513 55.1749 461.951L62.1043 463.29C63.5373 463.57 63.3545 465.521 61.7917 465.521C61.6854 465.521 61.5807 465.476 61.4791 465.476L54.1341 464.048C47.3099 477.3 39.4704 490.449 30.6157 503.496C30.5161 503.634 30.3695 503.743 30.1953 503.808L83.0081 508.855C118.522 457.434 132.317 386.114 134.508 326.815C159.006 365.784 181.918 404.938 200.079 438.002L209.214 434.21L151.824 329.397C151.064 328.106 153.446 327.098 154.187 328.459L211.514 433.177L219.074 430.009C220.658 429.388 221.719 431.384 220.228 432.018L212.669 435.229L238.235 481.945L246.163 478.599C246.482 478.468 246.85 478.451 247.185 478.551C247.519 478.65 247.794 478.859 247.948 479.13C248.023 479.261 248.068 479.404 248.077 479.55C248.087 479.696 248.061 479.842 248.003 479.979C247.945 480.117 247.854 480.243 247.738 480.35C247.621 480.457 247.479 480.543 247.322 480.603L239.343 483.994L256.765 515.802C257.507 517.172 255.107 518.087 254.402 516.739L237.025 484.971L227.155 489.121C233.507 501.569 239.702 514.063 245.53 526.689C245.792 526.243 242.298 527.832 310.312 500.901C310.48 500.841 310.662 500.813 310.845 500.821C311.027 500.829 311.205 500.871 311.365 500.944Z" fill="#062F34"/>
<path d="M128.773 81.3433C130.206 81.4761 131.633 79.4532 131.958 76.834C132.283 74.2148 131.389 71.9928 129.956 71.8599C128.523 71.7271 127.095 73.75 126.77 76.3758C126.445 79.0017 127.342 81.2144 128.773 81.3433Z" fill="#062F34"/>
<path d="M156.351 72.5041C154.875 72.3912 153.449 74.422 153.166 77.0399C152.884 79.6578 153.849 81.8812 155.325 81.9967C156.8 82.1123 158.227 80.0802 158.51 77.457C158.792 74.8338 157.828 72.6197 156.351 72.5041Z" fill="#062F34"/>
<path d="M62.6407 70.472C63.3767 71.8746 64.5521 73.0783 66.0384 73.9518C67.5247 74.8252 69.2649 75.3348 71.0688 75.4248C69.1044 78.8184 68.9575 83.1018 69.9749 86.7238C71.3439 90.8545 75.6993 93.1629 81.1363 91.6235C82.1318 91.3114 83.232 90.5091 84.1759 90.4653C83.3945 94.3397 82.4459 97.7704 83.1804 101.732C84.4541 107.875 89.4894 109.488 96.0702 108.279C93.7651 112.153 93.5557 117.096 96.3828 120.659C99.2646 124.267 105.502 125.87 109.798 123.51C109.82 123.496 109.837 123.479 109.859 123.467L110.299 125.621C100.362 125.119 98.6254 124.875 96.1781 124.997H95.9671L96.1781 127.228C96.9704 127.207 96.9032 127.183 98.6973 127.183C113.641 128.011 111.587 127.98 112.137 127.906C115.107 131.063 118.982 131.297 122.664 132.649C124.271 133.229 125.291 131.188 123.705 130.601C122.686 130.226 121.633 129.926 120.579 129.63C113.078 127.505 114.46 126.177 112.962 125.588L109.346 107.967C117.052 113.954 128.773 117.578 136.298 117.578C137.903 117.566 139.501 117.403 141.063 117.09L145.157 134.232C145.207 134.468 145.348 134.684 145.556 134.845C145.765 135.006 146.031 135.105 146.312 135.125C152.296 135.523 159.127 136.91 165.053 138.917C165.111 138.964 165.185 138.996 165.264 139.007C165.316 139.051 165.42 139.051 165.474 139.096L165.894 136.821C160.112 134.858 153.451 133.474 147.519 132.984L143.587 116.44C145.194 115.947 146.717 115.277 148.119 114.447C152.04 112.091 155.478 108.919 158.38 105.15C164.409 106.805 171.292 101.201 167.272 91.7098C172.145 89.4825 175.086 86.9443 175.243 82.0459C175.347 78.0825 174.305 73.7619 170.735 71.1786C172.932 68.839 174.516 66.128 175.382 63.2267C183.238 63.9027 190.323 60.9329 193.782 57.275C197.845 52.9743 196.318 47.6509 192.666 45.5364C189.9 43.9333 185.683 43.7062 179.811 44.8351L177.227 45.3452C170.074 46.8819 171.798 45.9442 166.944 46.1819C160.604 28.2685 148.983 16.2616 132.368 10.4813L132.111 9.50112C130.541 3.47111 123.708 -1.19086 115.096 0.270156C113.267 0.609976 111.535 1.25296 110 2.1623C108.464 3.07163 107.154 4.22947 106.146 5.56952C105.137 6.90958 104.449 8.40553 104.122 9.97175C103.794 11.538 103.834 13.1437 104.237 14.697L104.766 16.7119C104.853 17.0519 105.467 17.2432 106.41 17.3269C94.248 28.8822 88.5939 42.0313 88.8267 58.3774C79.0515 57.2365 79.9501 57.6177 72.0674 58.6431L70.1327 58.9087C68.6549 59.1117 67.2509 59.5981 66.0273 60.3309C64.8036 61.0638 63.7924 62.0238 63.0703 63.1383C62.3482 64.2527 61.9343 65.4923 61.8599 66.763C61.7854 68.0337 62.0524 69.3021 62.6407 70.472ZM146.608 112.624C145.142 113.51 143.519 114.193 141.8 114.646C136.956 115.926 131.225 115.388 124.171 113.033C112.065 108.983 106.017 102.973 103.176 96.2363C102.751 95.1897 101.392 88.9392 101.31 88.2672C101.332 87.984 101.226 87.7044 101.015 87.4851C100.803 87.2658 100.5 87.1232 100.169 87.0864C88.3313 85.7994 84.5103 79.6631 86.7295 73.5853C90.0113 73.2532 91.3116 73.139 93.5401 72.4802C96.6657 71.5784 97.4471 71.8706 102.479 72.3235C103.265 73.3959 103.957 74.516 104.55 75.6745C105.077 76.7118 106.878 76.502 107.05 75.3876C107.207 74.4194 107.407 73.4989 107.6 72.5811C115.071 72.4204 120.967 68.9379 127.792 68.0533C134.179 67.2644 140.539 68.7971 147.306 67.8754C152.987 67.0784 157.849 64.6133 163.689 63.3661C168.591 80.3697 162.817 102.888 146.608 112.624ZM131.556 12.6104C147.169 18.1052 158.16 29.4785 164.267 46.4117C156.934 47.2684 150.368 45.7396 143.58 47.7691C137.917 49.4599 134.571 52.7831 128.223 52.7831C127.959 52.7963 127.754 52.7684 127.504 52.7724L119.761 15.8924C124.718 14.9414 129.481 13.6956 131.556 12.6131V12.6104ZM117.191 16.3506L124.811 52.6476C121.451 52.2558 120.454 51.7099 115.435 52.4829C102.8 53.9293 99.4115 58.8503 91.4475 58.5647C91.1584 41.9755 97.0954 28.8078 110.001 17.2711C112.415 17.0703 114.815 16.7639 117.191 16.3533V16.3506ZM70.5546 61.1015C70.9375 61.0484 76.7151 60.2608 77.1746 60.1864C84.5775 59.2487 88.4782 61.326 94.1933 60.7536C101.709 59.9181 105.009 55.3837 119.148 54.3437C121.445 54.1338 123.211 55.134 128.607 55.0144C128.631 55.0144 128.643 54.9945 128.667 54.9932C135.593 54.8604 139.214 51.4323 144.451 49.877C150.99 47.9232 158.38 49.6937 166.231 48.4571C167.277 48.3084 168.374 48.3655 169.538 48.4093C172.695 48.5501 173.639 48.4173 177.877 47.5075C179.176 47.3481 187.148 45.033 191.189 47.3813C193.23 48.566 193.324 50.4189 193.496 50.8705C194.548 56.4064 185.646 60.7695 179.323 61.071C176.025 61.3194 171.561 60.3498 167.582 60.5397C160.252 60.8585 153.764 64.7129 146.895 65.6719C140.8 66.5286 133.924 65.0264 127.417 65.8512C119.711 66.8487 114.497 70.3777 106.61 70.3777C102.439 70.209 99.3974 69.5808 95.9827 69.7136C94.198 69.8119 92.8572 70.3777 91.4022 70.7243C89.269 71.1772 88.9424 70.9475 72.7879 73.1908C69.5185 73.5786 66.3554 72.0977 65.0568 69.5967C64.6226 68.7377 64.4247 67.8059 64.4781 66.8721C64.5315 65.9384 64.8348 65.0273 65.365 64.2082C65.8951 63.389 66.6381 62.6834 67.5374 62.1451C68.4367 61.6068 69.4686 61.2499 70.5546 61.1015Z" fill="#062F34"/>
<path d="M144.629 79.003C144.69 78.8614 144.716 78.711 144.706 78.5607C144.696 78.4103 144.65 78.2633 144.572 78.1284C144.493 77.9935 144.383 77.8735 144.248 77.7758C144.114 77.678 143.957 77.6044 143.788 77.5595C143.619 77.5146 143.441 77.4993 143.264 77.5145C143.088 77.5297 142.917 77.575 142.762 77.6479C142.607 77.7207 142.471 77.8195 142.362 77.9383C142.254 78.057 142.174 78.1933 142.129 78.3389C140.218 83.4617 141.233 85.0888 143.49 87.267C143.823 87.5744 144.136 87.8972 144.428 88.234C145.63 89.675 145.656 91.7311 143.718 92.1163C143.489 92.1601 143.034 92.2172 142.688 91.9834C142.553 91.8933 142.397 91.8268 142.231 91.7878C142.065 91.7488 141.891 91.7381 141.72 91.7562C141.549 91.7744 141.384 91.821 141.234 91.8935C141.085 91.966 140.953 92.0629 140.847 92.1787C139.743 93.3887 141.954 94.7634 144.322 94.2879C144.979 94.156 145.595 93.9037 146.125 93.5486C146.656 93.1934 147.089 92.744 147.394 92.2318C148.289 90.6539 147.974 88.6324 146.572 86.9456C144.556 84.523 142.57 84.5349 144.629 79.003Z" fill="#062F34"/>
<path d="M290.943 57.1567C291.05 57.2714 291.183 57.3671 291.333 57.4382C291.484 57.5094 291.649 57.5546 291.821 57.5714C291.992 57.5882 292.165 57.5761 292.331 57.536C292.496 57.4958 292.651 57.4283 292.786 57.3374C292.921 57.2464 293.033 57.1338 293.117 57.0058C293.201 56.8779 293.254 56.7372 293.274 56.5918C293.293 56.4464 293.279 56.2991 293.232 56.1584C293.185 56.0176 293.105 55.8861 292.998 55.7714C289.074 51.5605 284.619 47.7267 279.715 44.3383C278.357 43.4086 276.716 45.1445 278.058 46.065C282.817 49.3515 287.137 53.0709 290.943 57.1567Z" fill="#062F34"/>
<path d="M323.761 54.167C326.163 51.5887 328.351 48.8708 330.307 46.0331C331.187 44.7567 328.909 43.6291 328.041 44.9082C326.149 47.6557 324.031 50.2867 321.704 52.7817C321.591 52.8959 321.505 53.0283 321.453 53.171C321.401 53.3137 321.384 53.4638 321.401 53.6125C321.419 53.7612 321.471 53.9053 321.555 54.0365C321.64 54.1676 321.754 54.2829 321.892 54.3758C322.03 54.4686 322.188 54.5369 322.357 54.5767C322.527 54.6165 322.704 54.627 322.878 54.6076C323.053 54.5881 323.221 54.5391 323.372 54.4634C323.524 54.3877 323.656 54.2869 323.761 54.167Z" fill="#062F34"/>
<path d="M332.59 90.1584C335.314 88.1514 337.888 86.0018 340.297 83.722C340.522 83.5009 340.636 83.2136 340.614 82.922C340.592 82.6303 340.437 82.3576 340.181 82.1624C339.925 81.9672 339.589 81.8651 339.246 81.8781C338.902 81.891 338.578 82.018 338.344 82.2318C336.01 84.4399 333.514 86.5209 330.872 88.4623C329.563 89.4346 331.269 91.1068 332.59 90.1584Z" fill="#062F34"/>
<path d="M289.527 92.1401C293.831 93.9053 297.514 96.6813 301.074 99.3642C301.313 99.548 301.624 99.6494 301.947 99.6484C302.212 99.6475 302.471 99.5782 302.689 99.4497C302.908 99.3212 303.075 99.1395 303.169 98.9286C303.264 98.7176 303.281 98.4873 303.218 98.268C303.155 98.0487 303.016 97.8507 302.819 97.7C299.121 94.9108 295.3 92.0312 290.669 90.1293C289.094 89.493 287.971 91.4946 289.527 92.1401Z" fill="#062F34"/>
<path d="M222.523 194.475C224.113 193.578 225.355 192.301 226.091 190.805C226.827 189.309 227.025 187.661 226.66 186.069C226.295 184.477 225.382 183.013 224.038 181.862C222.694 180.711 220.979 179.924 219.109 179.601C217.239 179.278 215.298 179.434 213.532 180.048C211.766 180.662 210.254 181.707 209.186 183.051C208.119 184.395 207.544 185.979 207.535 187.6C207.526 189.222 208.083 190.81 209.135 192.163C209.835 193.062 210.737 193.835 211.789 194.437C212.841 195.04 214.022 195.461 215.265 195.676C216.509 195.89 217.79 195.895 219.035 195.689C220.28 195.483 221.465 195.07 222.523 194.475Z" fill="#062F34"/>
<path d="M145.73 97.012C139.819 97.5433 133.306 97.2776 129.263 93.5481C128.436 92.783 126.89 93.3209 126.989 94.3888C127.35 98.3734 129.36 101.552 132.498 103.12C135.487 104.615 139.083 104.498 142.484 104.276C142.656 104.265 142.824 104.226 142.978 104.16C143.132 104.094 143.27 104.003 143.382 103.892C143.495 103.781 143.581 103.652 143.635 103.513C143.689 103.374 143.71 103.227 143.697 103.081C143.688 102.933 143.644 102.789 143.568 102.656C143.492 102.524 143.384 102.406 143.253 102.31C143.121 102.213 142.968 102.141 142.803 102.096C142.637 102.052 142.463 102.037 142.29 102.051C136.42 102.427 132.249 102.108 130.28 97.1156C134.937 99.5741 140.538 99.7003 145.995 99.2327C146.337 99.197 146.648 99.0491 146.862 98.8208C147.076 98.5924 147.177 98.3018 147.142 98.0112C147.107 97.7206 146.94 97.4531 146.676 97.2661C146.412 97.079 146.072 96.9874 145.73 97.0107V97.012Z" fill="#062F34"/>
<path d="M178.133 96.4581C177.785 96.4581 177.451 96.5757 177.205 96.7849C176.959 96.9941 176.82 97.2779 176.82 97.5738C176.82 97.8697 176.959 98.1535 177.205 98.3627C177.451 98.5719 177.785 98.6895 178.133 98.6895H196.004C196.352 98.6895 196.686 98.5719 196.932 98.3627C197.178 98.1535 197.316 97.8697 197.316 97.5738C197.316 97.2779 197.178 96.9941 196.932 96.7849C196.686 96.5757 196.352 96.4581 196.004 96.4581H178.133Z" fill="#062F34"/>
<path d="M191.226 117.094C191.347 117.203 191.492 117.289 191.653 117.349C191.813 117.409 191.986 117.44 192.162 117.442C192.337 117.444 192.511 117.416 192.674 117.36C192.836 117.304 192.984 117.221 193.108 117.115C193.232 117.01 193.329 116.884 193.395 116.746C193.461 116.608 193.494 116.46 193.492 116.311C193.489 116.162 193.452 116.015 193.381 115.878C193.311 115.742 193.209 115.619 193.081 115.516L178.443 103.073C178.192 102.883 177.866 102.783 177.531 102.791C177.196 102.8 176.877 102.917 176.641 103.119C176.404 103.321 176.267 103.592 176.258 103.876C176.249 104.161 176.369 104.438 176.592 104.65L191.226 117.094Z" fill="#062F34"/>
<path d="M173.429 121.961V109.108C173.435 108.958 173.406 108.809 173.343 108.669C173.28 108.529 173.184 108.402 173.062 108.294C172.939 108.186 172.792 108.101 172.63 108.042C172.468 107.984 172.294 107.954 172.117 107.954C171.941 107.954 171.767 107.984 171.605 108.042C171.442 108.101 171.296 108.186 171.173 108.294C171.051 108.402 170.955 108.529 170.892 108.669C170.829 108.809 170.799 108.958 170.805 109.108V121.961C170.799 122.11 170.829 122.26 170.892 122.399C170.955 122.539 171.051 122.667 171.173 122.774C171.296 122.882 171.442 122.968 171.605 123.026C171.767 123.085 171.941 123.115 172.117 123.115C172.294 123.115 172.468 123.085 172.63 123.026C172.792 122.968 172.939 122.882 173.062 122.774C173.184 122.667 173.28 122.539 173.343 122.399C173.406 122.26 173.435 122.11 173.429 121.961Z" fill="#062F34"/>
<path d="M608.323 457.365L617.809 377.083L623.085 376.965C624.897 376.92 626.615 376.275 627.874 375.166C629.132 374.058 629.83 372.575 629.818 371.035C629.708 370.041 630.13 368.977 629 367.085C625.895 289.194 522.807 280.021 493.279 335.547L476.363 262.153C476.305 261.9 476.145 261.671 475.91 261.506C475.675 261.342 475.381 261.252 475.077 261.251H382.643C382.46 261.252 382.279 261.285 382.112 261.348C381.945 261.411 381.795 261.503 381.672 261.618C381.663 261.626 381.672 261.641 381.66 261.65L377.561 261.61L335.393 445.153L335.484 345.868C335.484 345.572 335.346 345.289 335.1 345.08C334.854 344.87 334.521 344.753 334.173 344.752H331.19L331.282 249.134L343.739 248.603C347.975 248.375 348.158 241.65 345.67 239.106C347.866 236.939 347.624 232.457 345.216 230.354C347.661 228.133 347.318 223.622 344.603 221.696C347.152 218.653 345.605 212.22 341.321 212.399L331.319 212.633L331.399 130.088L332.582 130.075C332.754 130.073 332.925 130.042 333.083 129.984C333.242 129.926 333.385 129.841 333.505 129.736C333.626 129.631 333.72 129.507 333.784 129.37C333.847 129.234 333.879 129.088 333.876 128.942L333.571 110.532C333.556 109.658 332.774 109.586 332.241 109.435L308.364 109.721C308.015 109.727 307.684 109.849 307.441 110.061C307.198 110.273 307.064 110.558 307.068 110.854L307.381 129.263C307.385 129.556 307.526 129.836 307.772 130.041C308.017 130.247 308.348 130.362 308.693 130.362H308.712L310.805 130.336L310.755 209.132C307.129 214.454 308.996 212.896 291.937 213.466C284.464 213.423 276.766 212.461 269.041 210.639C267.312 204.456 265.524 198.553 263.66 192.819L268.795 191.432C272.43 190.502 271.063 184.839 268.428 182.732C268.323 182.642 268.219 182.6 268.166 182.508C269.259 180.648 268.155 176.35 265.435 174.701C266.822 172.345 265.06 168.14 262.549 167.072C263.688 163.751 260.674 158.343 256.826 159.352L239.134 164.126L240.5 159.931C242.092 154.618 231.696 152.252 229.999 157.478L226.85 167.473L218.03 169.837L218.713 171.979L228.319 169.391C229.446 169.152 228.944 168.727 232.52 158.101C233.326 155.664 238.738 156.931 237.927 159.306L235.98 165.508C235.736 166.438 236.622 167.089 237.66 166.892L257.609 161.493C258.292 161.27 259.289 162.431 259.814 163.814C260.391 165.241 260.234 166.624 259.605 166.803C259.051 166.96 243.205 171.244 243.756 171.084C242.328 171.472 242.662 173.262 244.153 173.262C244.683 173.262 259.827 169.1 260.391 168.944C262.143 168.573 263.648 171.694 263.227 173.362C262.915 174.472 263.827 173.726 246.48 178.513C244.853 178.955 245.583 181.081 247.276 180.638L262.852 176.434C262.961 176.44 263.071 176.427 263.174 176.394C263.909 176.172 265.012 177.287 265.588 178.849C265.934 179.729 266.292 181.728 265.276 182.017L249.071 186.389C247.42 186.838 248.204 188.951 249.865 188.514L266.098 184.131C267.192 184.264 268.734 187.204 268.32 188.849C268.267 188.982 268.164 189.295 268.008 189.339L228.11 200.097L228.793 202.24L261.158 193.503C268.972 217.373 273.42 238.329 278.771 262.428C279.464 265.379 281.448 269.416 280.241 271.262C277.722 274.867 270.416 274.302 268.219 270.191C267.939 269.744 267.058 267.546 266.52 265.03C265.113 258.497 263.643 258.197 263.151 257.459C261.064 252.929 260.881 248.56 258.817 232.874C258.612 231.351 256.023 231.691 256.209 233.118C258.228 248.42 258.389 251.347 259.647 255.454C255.502 254.086 251.105 255.124 248.639 257.483C244.753 261.262 246.016 265.953 243.222 270.057C241.998 271.618 239.628 272.811 237.604 272.155C235.084 271.307 234.769 267.871 234.717 266.488C234.717 261.309 236.81 254.535 234.613 248.865C232.47 243.505 226.955 242.193 223.126 245.377C223.648 240.472 223.979 235.548 223.897 230.626C223.891 230.333 223.751 230.054 223.505 229.848C223.259 229.643 222.928 229.527 222.584 229.527H222.567C222.394 229.53 222.224 229.56 222.065 229.619C221.906 229.677 221.763 229.761 221.643 229.866C221.522 229.971 221.428 230.095 221.364 230.232C221.3 230.368 221.269 230.514 221.271 230.66C221.39 237.666 220.885 244.669 219.761 251.61C219.727 251.821 219.844 251.999 219.938 252.181C217.688 267.323 218.091 268.639 215.345 269.611C212.932 270.396 209.844 269.493 208.156 267.902C206.137 265.996 205.578 263.083 206.151 260.643C206.776 256.684 204.463 255.33 202.144 255.79C201.499 255.906 200.894 256.147 200.377 256.494C196.084 259.294 197.348 265.193 193.549 267.518C193.471 267.53 193.399 267.561 193.343 267.607C191.455 268.764 187.168 269.511 184.05 268.766C182.422 268.32 181.373 267.651 180.795 266.536C192.499 249.326 205.229 228.284 216.029 207.404C220.874 205.979 221.773 205.798 222.006 205.499L218.489 206.163L217.911 204.512C217.766 204.557 217.622 204.593 217.477 204.645C217.569 204.463 217.661 204.3 217.753 204.114L216.651 200.767C215.823 202.412 214.998 204.003 214.171 205.603C159.121 221.732 108.222 219.359 69.9715 181.537C69.1464 180.68 67.3273 181.261 67.8196 182.592C67.7977 182.65 67.7242 182.678 67.7149 182.742C66.6647 188.769 65.0581 197.3 67.1898 203.087C66.9788 201.213 66.5646 200.32 68.6588 198.491C68.7119 198.446 68.7635 198.359 68.8698 198.312C68.5244 193.869 69.3777 188.689 70.0043 184.897C109.027 221.038 157.302 224.019 212.737 208.385C208.023 217.381 204.843 222.893 201.717 228.296C195.781 225.193 190.2 221.625 185.047 217.637V220.582C189.848 224.219 195.026 227.478 200.519 230.32C180.559 264.61 177.508 265.208 178.06 266.846C178.901 268.854 180.685 270.191 183.309 270.861C186.788 271.821 191.552 271.127 194.35 269.693C194.376 269.693 194.426 269.712 194.447 269.713C194.74 269.744 195.035 269.687 195.283 269.553C197.359 268.46 205.478 270.072 208.172 270.842C208.242 270.857 208.314 270.867 208.386 270.872C212.391 272.985 216.908 272.151 218.7 270.28C220.401 268.776 220.469 266.352 220.982 263.007C221.209 262.983 221.425 262.908 221.607 262.791C223.509 261.399 226.65 261.958 228.98 262.724C231.101 263.423 231.392 263.881 232.207 264.49C232.151 265.154 232.092 265.832 232.092 266.482C232.145 268.802 232.775 272.906 236.66 274.245C239.215 275.055 242.645 274.359 245.099 271.601C245.13 271.59 245.166 271.601 245.197 271.585C249.381 269.804 254.682 269.472 261.882 270.539C263.335 270.753 264.812 271.032 265.549 271.825C265.667 271.95 265.814 272.052 265.981 272.125C266.148 272.197 266.331 272.239 266.518 272.248H266.581C266.581 272.248 266.592 272.248 266.596 272.248C271.266 278.272 283.231 276.372 283.231 269.7C283.231 267.091 282.095 265.021 281.341 261.981L278.697 250.006C297.976 251.307 294.583 250.46 310.673 250.006L310.595 344.754H307.61C307.262 344.754 306.929 344.872 306.682 345.081C306.436 345.29 306.298 345.574 306.297 345.869L306.246 459.95C306.133 466.6 312.511 472.35 320.814 472.35C324.677 472.346 328.38 471.04 331.112 468.719C333.843 466.397 335.38 463.25 335.384 459.967L335.395 449.076L373.84 448.118L382.171 435.916L401.305 434.832L405.019 466.888C405.037 467.039 405.091 467.185 405.177 467.318C405.264 467.45 405.381 467.567 405.522 467.66C405.663 467.752 405.825 467.82 405.998 467.858C406.17 467.896 406.35 467.904 406.527 467.882L439.434 463.56C439.693 463.526 439.933 463.427 440.125 463.276C440.316 463.126 440.451 462.93 440.511 462.714L443.985 450.157L480.382 444.544C480.695 444.991 488.257 455.921 487.776 455.224C487.905 455.415 488.098 455.569 488.33 455.666C488.563 455.764 488.824 455.801 489.081 455.772C491.713 455.48 500.617 454.046 508.316 452.744L509.081 458.057C509.195 466.766 546.037 467.524 556.382 467.524C567.089 467.53 608.434 466.406 608.323 457.365ZM197.565 266.951C199.597 263.873 199.44 259.756 202.163 258.174C202.4 258.042 202.665 257.952 202.944 257.908C202.972 257.908 203.019 257.89 203.043 257.894C203.144 257.912 203.233 258.017 203.324 258.113C203.888 258.796 203.619 259.707 203.429 261.035C203.24 263.974 203.394 265.035 204.835 267.737C202.716 267.343 199.423 266.981 197.565 266.951ZM229.93 260.632C227.183 259.732 224.056 259.237 221.385 260.283C222.698 251.278 222.759 249.897 223.914 248.097C224.903 246.56 226.727 245.763 227.946 245.866C229.993 245.998 231.464 247.963 232.093 249.569C233.53 253.232 232.828 258.069 232.439 261.71C231.653 261.271 230.812 260.91 229.93 260.632ZM262.329 268.336C257.21 267.575 251.827 267.273 246.857 268.602C248.056 265.511 248.126 261.367 250.628 258.974C253.061 256.648 258.328 256.62 260.911 258.746C261.491 259.901 262.209 261.003 263.055 262.032C263.569 263.493 264.216 267.08 264.807 268.837C263.998 268.614 263.169 268.449 262.329 268.341V268.336ZM342.085 223.045C344.645 223.045 345.055 229.06 342.507 229.27L331.302 229.231V223.002L342.085 223.045ZM343.071 238.045H331.293V231.463L342.603 231.501C343.565 231.501 344.433 232.978 344.533 234.791C344.623 236.328 344.097 237.957 343.071 238.049V238.045ZM343.593 246.373L331.285 246.894V240.277L343.123 240.259C343.143 240.259 343.156 240.277 343.176 240.277C343.726 240.277 344.573 241.522 344.645 243.475C344.712 245.152 344.134 246.35 343.593 246.377V246.373ZM341.424 214.629C341.436 214.627 341.448 214.627 341.46 214.629C342.26 214.629 343.023 215.901 343.19 217.497C343.359 219.175 342.779 220.719 341.952 220.817L331.31 220.775V214.865L341.424 214.629ZM309.711 111.936L330.965 111.682L331.233 127.861C330.705 127.861 309.454 128.101 309.979 128.113L309.711 111.936ZM278.188 247.733C275.603 235.949 272.885 224.709 269.694 213.08C276.764 214.658 283.814 215.557 290.69 215.684L292.651 248.437C287.708 248.303 282.864 248.06 278.188 247.733ZM295.278 248.42C295.217 247.405 293.198 213.673 293.317 215.666L295.964 215.612C296.491 215.761 294.924 215.782 303.545 215.624C304.561 215.604 306.012 215.535 306.768 215.387V215.364C312.477 214.322 312.48 208.76 315.79 207.758C317.418 207.271 319.286 207.701 319.642 209.187C320.939 214.648 311.572 219.547 305.874 221.977C304.321 222.641 305.494 224.616 307.054 223.969C308.256 223.455 309.479 222.877 310.694 222.27L310.673 247.772L295.278 248.42ZM313.319 220.869C318.856 217.681 323.355 213.549 322.214 208.744C321.405 205.345 316.532 204.361 313.375 206.364L313.424 130.305L328.772 130.235C328.728 175.542 328.616 297.964 328.564 344.752H313.214C313.227 329.75 313.302 239.816 313.319 220.869ZM332.755 459.966C332.752 462.657 331.492 465.238 329.253 467.141C327.013 469.045 323.977 470.115 320.81 470.118C313.933 470.118 308.776 465.337 308.867 459.966L308.918 346.984H332.86L332.755 459.966ZM494.519 352.526L496.17 359.683C495.388 360.634 494.859 361.643 494.871 362.752C494.871 363.062 495.027 363.368 495.105 363.682L492.741 363.702C493.029 359.946 493.624 356.212 494.519 352.526ZM514.42 354.221C531.923 350.267 555.599 349.387 573.528 350.312C602.202 351.755 617.729 357.263 617.779 361.711C617.779 362.032 617.715 362.351 617.589 362.654C616.506 363.02 617.001 364.398 611.469 366.779C586.933 357.734 527.185 358.567 503.716 367.758C499.461 366.073 495.59 363.585 498.598 360.547C499.125 360.245 501.196 357.214 514.42 354.221ZM507.075 368.942C530.493 361.105 583.543 360.308 608.187 368.041C583.947 376.187 530.906 376.548 507.069 368.942H507.075ZM621.593 363.847L619.759 363.863C630.594 345.533 521.324 342.177 498.387 357.686L495.988 347.28C515.719 288.17 615.562 292.29 621.586 363.847H621.593ZM489.603 453.451L482.18 442.736C482.042 442.541 481.838 442.385 481.595 442.29C481.351 442.195 481.079 442.165 480.815 442.205L442.669 448.087C442.418 448.126 442.185 448.225 442 448.375C441.814 448.524 441.685 448.717 441.627 448.928L438.161 461.464L407.496 465.493L384.091 263.475H473.992L491.428 339.13C487.74 347.296 485.604 356.851 485.357 367.736C484.686 369.446 485.027 369.772 484.947 371.012C484.971 372.553 485.705 374.025 486.99 375.112C488.275 376.199 490.01 376.815 491.824 376.828L497.522 376.859C498.615 384.562 493.602 349.286 507.992 450.517C500.996 451.705 492.96 453.011 489.603 453.451ZM512.831 459.616C511.058 458.331 512.831 464.198 498.942 368.259C519.571 379.947 597.308 379.283 616.354 367.079C604.855 464.177 605.819 457.536 605.38 458.082C599.087 466.739 524.426 468.012 512.831 459.622V459.616Z" fill="#062F34"/>
<path d="M537.014 498.026C535.114 498.563 533.097 498.73 531.111 498.518C529.124 498.305 527.219 497.717 525.536 496.796C524.06 496 522.655 497.859 524.095 498.663C528.092 500.894 533.371 501.452 537.864 500.134C540.374 499.412 542.751 498.054 545.166 497.721C545.509 497.673 545.816 497.511 546.019 497.27C546.221 497.03 546.304 496.731 546.247 496.439C545.778 494.013 540.255 497.077 537.014 498.026Z" fill="#062F34"/>
<path d="M483.438 498.775C483.785 498.756 484.108 498.62 484.338 498.398C484.567 498.176 484.684 497.886 484.661 497.591C484.613 496.976 484.049 496.379 483.264 496.553C479.982 496.737 477.843 499.32 476.94 501.682C475.746 504.801 475.83 508.17 475.905 511.137C475.912 511.429 476.053 511.707 476.298 511.911C476.543 512.116 476.873 512.23 477.216 512.23H477.244C477.591 512.223 477.92 512.1 478.16 511.887C478.4 511.674 478.531 511.389 478.524 511.094C478.451 508.162 478.368 505.134 479.432 502.371C480.045 500.784 481.456 498.888 483.438 498.775Z" fill="#062F34"/>
<path d="M490.557 535.956C481.818 536.688 472.585 532.679 468.125 526.252C467.605 525.503 467.137 524.722 466.673 523.942C465.892 522.614 463.548 523.635 464.329 524.945C464.818 525.768 465.311 526.592 465.862 527.385C470.916 534.662 480.979 538.993 490.806 538.178C492.502 538.034 492.341 535.859 490.557 535.956Z" fill="#062F34"/>
<path d="M634.526 537.11C623.46 548.357 598.283 538.438 586.626 551.036C585.551 552.194 587.609 553.571 588.686 552.412C599.436 540.806 624.452 550.833 636.54 538.539C636.75 538.311 636.847 538.022 636.81 537.734C636.774 537.446 636.608 537.182 636.346 536.996C636.085 536.811 635.749 536.719 635.409 536.74C635.069 536.761 634.753 536.894 634.526 537.11Z" fill="#062F34"/>
<path d="M641.045 477.358C645.271 482.894 646.785 489.615 645.264 496.086C645.195 496.376 645.264 496.678 645.456 496.924C645.649 497.171 645.948 497.343 646.29 497.402C646.631 497.461 646.986 497.402 647.276 497.239C647.567 497.076 647.769 496.821 647.838 496.531C649.491 489.486 647.842 482.17 643.242 476.143C642.281 474.897 640.099 476.126 641.045 477.358Z" fill="#062F34"/>
<path d="M659.942 427.613C654.792 431.884 646.988 433.59 640.05 431.945C638.367 431.558 637.681 433.702 639.349 434.098C647.249 435.948 656.019 433.979 661.773 429.209C661.902 429.107 662.005 428.985 662.077 428.85C662.15 428.714 662.189 428.568 662.194 428.419C662.198 428.27 662.167 428.122 662.103 427.983C662.039 427.845 661.943 427.718 661.821 427.612C661.699 427.505 661.552 427.421 661.391 427.363C661.229 427.305 661.056 427.276 660.88 427.276C660.705 427.276 660.532 427.306 660.371 427.365C660.209 427.423 660.063 427.508 659.942 427.615V427.613Z" fill="#062F34"/>
<path d="M653.469 346.757C653.315 346.683 653.146 346.637 652.971 346.62C652.796 346.603 652.619 346.617 652.45 346.66C652.281 346.702 652.124 346.773 651.988 346.869C651.853 346.964 651.741 347.082 651.66 347.215C651.578 347.347 651.529 347.493 651.516 347.642C651.502 347.791 651.524 347.941 651.58 348.083C651.636 348.225 651.725 348.356 651.841 348.468C651.958 348.58 652.1 348.671 652.259 348.736C658.785 351.631 661.176 355.139 661 361.18C660.993 361.475 661.123 361.761 661.363 361.974C661.603 362.188 661.932 362.312 662.28 362.32H662.312C662.655 362.321 662.984 362.207 663.23 362.003C663.475 361.8 663.617 361.523 663.625 361.231C663.827 354.334 660.878 350.037 653.469 346.757Z" fill="#062F34"/>
<path d="M644.97 412.302C644.966 412.008 644.825 411.728 644.58 411.522C644.334 411.316 644.003 411.2 643.657 411.199H643.642C642.939 411.207 642.243 411.086 641.6 410.846C640.956 410.606 640.381 410.252 639.911 409.808C639.441 409.364 639.089 408.84 638.877 408.27C638.665 407.701 638.598 407.1 638.681 406.507C638.702 406.362 638.689 406.214 638.642 406.073C638.596 405.932 638.517 405.801 638.41 405.686C638.303 405.571 638.171 405.475 638.02 405.404C637.87 405.332 637.704 405.287 637.533 405.27C637.188 405.239 636.843 405.324 636.572 405.506C636.3 405.688 636.122 405.953 636.078 406.245C635.178 412.657 645.004 415.119 644.97 412.302Z" fill="#062F34"/>
<g opacity="0.56">
<path d="M671.736 361.008C670.315 366.434 666.19 369.509 668.432 375.552C669.067 377.178 670.062 378.707 670.659 380.334C672.331 384.982 670.659 391.138 665.783 393.384C663.839 394.292 661.379 394.406 659.523 393.406C657.178 392.165 655.23 388.219 652.881 388.572C651.545 388.799 651.199 390.278 651.285 391.447C651.598 398.712 657.727 410.889 646.519 416.92C643.728 418.44 640.488 419.257 637.173 419.275C636.017 419.315 634.784 419.171 633.801 418.596C632.999 418.141 632.483 417.316 632.04 416.551C628.54 409.296 633.427 398.825 628.358 386.443C626.42 381.631 622.452 376.467 617.279 373.56C617.638 370.298 617.926 367.004 618.431 363.74C617.878 364.161 617.337 364.282 615.852 366.037C600.209 376.441 533.664 379.278 505.457 369.648C509.316 360.732 523.967 360.343 529.211 364.925C530.229 362.21 531.466 359.801 533.684 357.599C538.19 352.979 546.266 350.45 552.791 351.379C556.454 351.897 560.136 353.325 563.325 354.949C564.235 355.373 565.77 356.559 566.748 356.676C567.979 356.85 567.972 356.144 568.501 355.123C574.501 343.756 590.348 343.007 599.012 349.422C599.924 350.087 600.801 350.853 601.786 351.397C604.638 352.751 606.996 352.024 607.583 349.043C607.959 347.133 607.605 344.737 607.807 343.412C608.515 339.008 610.968 338.341 615.766 337.17C629.492 333.849 643.935 334.804 653.845 338.139C667.233 342.853 673.388 355.359 671.736 361.008Z" fill="#109C3D"/>
</g>
</svg>
