<svg width="29" height="34" viewBox="0 0 29 34" fill="none" xmlns="http://www.w3.org/2000/svg">
<path d="M20.9065 0.743774C16.869 0.743774 13.6019 3.9844 13.469 8.15471C13.3628 12.0063 17.055 17.0797 19.2597 19.736C19.6581 20.2141 20.269 20.5063 20.9065 20.5063C21.544 20.5063 22.1284 20.2141 22.5534 19.736C24.7581 17.0531 28.4769 12.0063 28.344 8.15471C28.2112 3.9844 24.944 0.743774 20.9065 0.743774ZM20.9065 10.8375C19.4456 10.8375 18.2503 9.64221 18.2503 8.18127C18.2503 6.72034 19.4456 5.52502 20.9065 5.52502C22.3675 5.52502 23.5628 6.72034 23.5628 8.18127C23.5628 9.64221 22.3675 10.8375 20.9065 10.8375Z" fill="#109C3D"/>
<path d="M0.293149 26.0844C0.399399 26.4031 0.718149 26.6156 1.0369 26.6156C1.11659 26.6156 1.22284 26.5891 1.30252 26.5625L8.0494 24.1188L11.3166 33.0969C11.4228 33.4156 11.7416 33.6281 12.0603 33.6281C12.14 33.6281 12.2463 33.6016 12.326 33.575C12.751 33.4156 12.9635 32.9641 12.8041 32.5656L9.27127 22.7906L6.45565 15.0609C6.29627 14.6359 5.84471 14.4234 5.44627 14.5828C5.02127 14.7422 4.80877 15.1938 4.96815 15.5922L7.51815 22.5781L0.771274 25.0219C0.346274 25.2078 0.133774 25.6594 0.293149 26.0844Z" fill="#109C3D"/>
<path d="M11.9287 15.3266L10.1756 15.9641L9.45838 13.9719C9.29901 13.5469 8.84745 13.3344 8.44901 13.4938C8.02401 13.6531 7.81151 14.1047 7.97088 14.5031L8.9537 17.2656C9.05995 17.5844 9.3787 17.7969 9.69745 17.7969C9.77713 17.7969 9.88338 17.7703 9.96307 17.7438L12.4599 16.8406C12.8849 16.6813 13.0974 16.2297 12.9381 15.8313C12.7787 15.4328 12.3271 15.1938 11.9287 15.3266Z" fill="#109C3D"/>
<path d="M10.0423 20.2407L14.3188 31.9548C14.4251 32.2735 14.7438 32.486 15.0626 32.486C15.1423 32.486 15.2485 32.4594 15.3282 32.4329C15.7532 32.2735 15.9657 31.8219 15.8063 31.4235L14.0798 26.6688L22.5532 23.5876L23.1907 25.3407C23.297 25.6594 23.6157 25.8719 23.9345 25.8719C24.0142 25.8719 24.1204 25.8454 24.2001 25.8188C24.6251 25.6594 24.8376 25.2079 24.6782 24.8094L24.0407 23.0563L25.7938 22.4188C26.2188 22.2594 26.4313 21.8079 26.272 21.4094C26.1126 20.9844 25.661 20.7719 25.2626 20.9313L22.7657 21.8344L13.5485 25.2079L11.822 20.4532L14.797 19.3376C15.222 19.1782 15.4079 18.7266 15.2751 18.3016C15.1157 17.8766 14.6642 17.6907 14.2392 17.8235L10.4938 19.2048C10.4349 19.2281 10.2017 19.328 10.0707 19.5896C9.91531 19.8988 10.0239 20.1931 10.0423 20.2407Z" fill="#109C3D"/>
</svg>
