<svg width="48" height="49" viewBox="0 0 48 49" fill="none" xmlns="http://www.w3.org/2000/svg">
<path d="M7.99946 41.3328C7.99946 41.8244 7.60149 42.2229 7.11057 42.2229C6.61965 42.2229 6.22168 41.8244 6.22168 41.3328C6.22168 40.8413 6.61965 40.4428 7.11057 40.4428C7.60149 40.4428 7.99946 40.8413 7.99946 41.3328Z" fill="white"/>
<path fill-rule="evenodd" clip-rule="evenodd" d="M19.1364 13.7419C19.5141 13.7419 19.8763 13.8922 20.1434 14.1596L34.2495 28.2838C34.8057 28.8407 34.8057 29.7436 34.2495 30.3004L30.0938 34.4615C29.8267 34.7289 29.4645 34.8792 29.0868 34.8792C28.7091 34.8792 28.3468 34.7289 28.0798 34.4615L25.7926 32.1714C22.803 34.0975 16.8589 38.4821 13.3096 44.7756C11.0649 48.7559 5.63879 49.7379 2.24552 46.5684C2.17822 46.5065 2.11567 46.4455 2.05938 46.389C2.00382 46.3333 1.94365 46.2715 1.88262 46.205C-1.28319 42.8075 -0.302808 37.3739 3.67379 35.1269C9.95971 31.5724 14.3386 25.6206 16.261 22.6276L13.9736 20.3373C13.7065 20.0699 13.5565 19.7072 13.5565 19.329C13.5565 18.9508 13.7065 18.5881 13.9736 18.3207L18.1294 14.1596C18.3964 13.8922 18.7587 13.7419 19.1364 13.7419ZM16.9947 19.329L19.0747 21.4117C19.5372 21.8747 19.6252 22.5936 19.2882 23.1548C17.7412 25.7308 12.7791 33.2536 5.07401 37.6104L5.07365 37.6106C2.63546 38.9883 2.10779 42.2696 3.96791 44.2624C3.97099 44.2657 3.97405 44.269 3.9771 44.2723C4.00425 44.3019 4.0362 44.3351 4.07442 44.3734L4.07542 44.3744C4.113 44.4121 4.14545 44.4434 4.17426 44.4698C4.17797 44.4732 4.18165 44.4766 4.18532 44.48C6.17545 46.3426 9.4528 45.8143 10.8294 43.3733L12.0695 44.0745L10.8294 43.3733C15.18 35.659 22.6932 30.6904 25.2653 29.1404C25.8259 28.8026 26.5441 28.8907 27.0067 29.3539L29.0868 31.4366L31.2285 29.2921L19.1364 17.1845L16.9947 19.329Z" fill="white"/>
<path fill-rule="evenodd" clip-rule="evenodd" d="M27.2724 0.392078L27.2318 1.78619C27.2724 0.392078 27.273 0.392096 27.2736 0.392114L27.275 0.392157L27.2783 0.392261L27.2868 0.392551C27.2933 0.392784 27.3015 0.3931 27.3114 0.393522C27.3311 0.394365 27.3575 0.395628 27.3904 0.397492C27.4562 0.401218 27.5477 0.407346 27.6632 0.417304C27.8939 0.437216 28.2206 0.472484 28.6274 0.534626C29.4405 0.658816 30.5778 0.890944 31.9125 1.32438C34.5825 2.19145 38.0564 3.86921 41.2914 7.10831C44.5263 10.3474 46.2019 13.8258 47.0679 16.4992C47.5007 17.8357 47.7326 18.9744 47.8566 19.7885C47.9187 20.1959 47.9539 20.523 47.9738 20.7541C47.9837 20.8696 47.9898 20.9613 47.9936 21.0271C47.9954 21.0601 47.9967 21.0865 47.9975 21.1063C47.9979 21.1162 47.9983 21.1244 47.9985 21.1309L47.9988 21.1394L47.9989 21.1427L47.9989 21.1441C47.9989 21.1447 47.999 21.1453 46.6066 21.1859L47.999 21.1453C48.0184 21.8116 47.5642 22.3984 46.9151 22.546C46.9148 22.5461 46.9145 22.5461 46.9142 22.5462L46.9129 22.5465C46.9116 22.5468 46.9098 22.5472 46.9076 22.5478C46.8987 22.5499 46.883 22.5537 46.8608 22.5592C46.8165 22.5702 46.7464 22.5882 46.6523 22.6139C46.4642 22.6654 46.1806 22.7476 45.8169 22.8666C45.0892 23.1049 44.043 23.4899 42.7999 24.0697C40.3109 25.2305 37.0523 27.1628 33.9751 30.244C33.4311 30.7887 32.5492 30.7887 32.0052 30.244C31.4612 29.6993 31.4612 28.8163 32.0052 28.2716C35.3636 24.9089 38.9132 22.8052 41.6236 21.5411C42.9801 20.9084 44.1315 20.4837 44.9512 20.2153C45.0008 20.1991 45.0492 20.1834 45.0964 20.1683C44.9901 19.4835 44.7905 18.51 44.4179 17.3598C43.658 15.0137 42.1835 11.9464 39.3215 9.08071C36.4595 6.21503 33.3961 4.73863 31.0531 3.97772C29.9043 3.60467 28.932 3.40483 28.2481 3.29842C28.233 3.34564 28.2174 3.3941 28.2012 3.44376C27.9332 4.26457 27.509 5.41736 26.8771 6.77565C25.6146 9.48952 23.5136 13.0437 20.1552 16.4064C19.6112 16.9511 18.7293 16.9511 18.1853 16.4064C17.6413 15.8618 17.6414 14.9787 18.1853 14.434C21.2626 11.3528 23.1924 8.09002 24.3518 5.59785C24.9308 4.35311 25.3154 3.30562 25.5533 2.57691C25.6722 2.21275 25.7543 1.92884 25.8057 1.74046C25.8313 1.64629 25.8493 1.57607 25.8603 1.5317C25.8659 1.50952 25.8696 1.49381 25.8718 1.48481C25.8728 1.48031 25.8735 1.47749 25.8737 1.47637L25.8737 1.47659C25.8737 1.4764 25.8738 1.47621 25.8738 1.47602C25.8739 1.47578 25.8739 1.47577 25.8738 1.47599L25.8737 1.47637C25.8738 1.47622 25.8738 1.4761 25.8738 1.47602C26.0217 0.826793 26.6074 0.372681 27.2724 0.392078ZM25.8737 1.47659L25.8737 1.47677L25.8735 1.47726C25.8736 1.47704 25.8736 1.47681 25.8737 1.47659Z" fill="white"/>
<path fill-rule="evenodd" clip-rule="evenodd" d="M34.9031 2.39846C35.5635 2.82444 35.7543 3.70622 35.3292 4.36798C33.9873 6.45688 32.2439 8.90062 30.0589 11.4626C29.5487 12.0609 28.651 12.1314 28.0539 11.6201C27.4568 11.1088 27.3864 10.2093 27.8967 9.61103C29.9875 7.15948 31.6554 4.8213 32.9376 2.82538C33.3627 2.16363 34.2427 1.97249 34.9031 2.39846Z" fill="white"/>
<path fill-rule="evenodd" clip-rule="evenodd" d="M45.9955 13.5053C46.4209 14.1666 46.23 15.0477 45.5691 15.4733C43.5756 16.7571 41.2405 18.4272 38.7921 20.5207C38.1946 21.0316 37.2962 20.9611 36.7856 20.3633C36.275 19.7654 36.3454 18.8666 36.9429 18.3557C39.5016 16.1678 41.9422 14.4223 44.0285 13.0786C44.6894 12.653 45.5701 12.844 45.9955 13.5053Z" fill="white"/>
<path fill-rule="evenodd" clip-rule="evenodd" d="M41.3545 7.04551C41.9189 7.61058 41.9189 8.52674 41.3545 9.0918L34.4669 15.9882C33.9026 16.5533 32.9876 16.5533 32.4232 15.9882C31.8589 15.4232 31.8589 14.507 32.4233 13.9419L39.3109 7.0455C39.8752 6.48043 40.7902 6.48044 41.3545 7.04551Z" fill="white"/>
</svg>
