<svg width="52" height="53" viewBox="0 0 52 53" fill="none" xmlns="http://www.w3.org/2000/svg">
<path d="M48.6343 36.9582V25.7597V25.158V19.9847C48.6343 19.5287 48.2647 19.1597 47.8093 19.1597H47.3484V13.2983C47.3484 6.4712 41.7939 0.917297 34.9674 0.917297C29.8293 0.917297 25.1928 4.13095 23.3833 8.9286L10.8548 43.8228C9.966 44.5092 9.3489 45.5256 9.1861 46.6889H4.5694C2.04985 46.6889 0 48.7387 0 51.2582C0 51.7136 0.36905 52.0832 0.825 52.0832H22.55C23.006 52.0832 23.375 51.7136 23.375 51.2582V48.6138C23.375 47.5523 22.5115 46.6889 21.45 46.6889H17.8794C17.7716 45.9177 17.4642 45.211 17.0093 44.6219L29.0191 11.1324C29.9255 8.6415 32.3163 6.96785 34.9674 6.96785C38.4582 6.96785 41.2984 9.80805 41.2984 13.2989V19.1602H40.837C40.3815 19.1602 40.012 19.5293 40.012 19.9852V23.4189C31.339 24.6641 24.6504 32.1402 24.6504 41.152V50.1428C24.6504 51.2043 25.514 52.0678 26.5755 52.0678H42.1861C47.1141 52.0678 51.1236 48.0589 51.1236 43.1309C51.1236 40.7367 50.1721 38.5642 48.6343 36.9582ZM45.3838 10.7645L42.6883 11.3123C42.5436 10.7502 42.3412 10.2117 42.0838 9.70465L44.2057 7.86545C44.7326 8.7581 45.1319 9.73105 45.3838 10.7645ZM42.9308 12.9463L45.6527 12.393C45.6781 12.6922 45.6984 12.9925 45.6984 13.2983V15.1485H42.9484V13.2983C42.9484 13.1795 42.9357 13.064 42.9308 12.9463ZM43.2619 6.4998L41.1818 8.3027C40.8573 7.89955 40.4954 7.52885 40.0999 7.19555L41.2076 4.5858C41.9716 5.1347 42.6662 5.7738 43.2619 6.4998ZM37.0574 5.6044L37.3345 2.839C38.1947 3.0337 39.0137 3.33345 39.7826 3.72175L38.7085 6.25285C38.1893 5.97675 37.6354 5.7617 37.0574 5.6044ZM30.6939 6.57075L28.699 4.60285C29.5174 4.0127 30.4189 3.5408 31.3753 3.1987L32.1574 5.83705C31.6437 6.03175 31.1542 6.27815 30.6939 6.57075ZM27.4335 5.6726L29.3893 7.602C28.9515 8.02935 28.562 8.50895 28.2293 9.032L25.8 7.73785C26.2614 6.97995 26.8103 6.28695 27.4335 5.6726ZM21.725 48.6133V50.4327H1.7688C2.12575 49.2238 3.2461 48.3383 4.5694 48.3383H21.45C21.6018 48.3383 21.725 48.462 21.725 48.6133ZM10.857 46.6883C11.1353 45.4678 12.2298 44.5543 13.5328 44.5543C14.8357 44.5543 15.9302 45.4678 16.2085 46.6883H10.857ZM15.6711 43.4631C15.0375 43.1083 14.3088 42.9043 13.5328 42.9043C13.3243 42.9043 13.1208 42.9241 12.9195 42.9521L25.0542 9.2102L27.4923 10.5087C27.4852 10.5302 15.6711 43.4631 15.6711 43.4631ZM33.7519 5.4119L32.9676 2.76475C33.6199 2.6399 34.2876 2.5673 34.9674 2.5673C35.2143 2.5673 35.4568 2.58765 35.6999 2.60415L35.426 5.3404C35.2737 5.3316 35.1225 5.3173 34.9679 5.3173C34.5565 5.3173 34.1506 5.3503 33.7519 5.4119ZM42.9484 16.7985H45.6984V19.1597H42.9484V16.7985ZM41.662 20.8097H46.9843V23.233H42.5694C42.2653 23.233 41.9628 23.2407 41.6625 23.2561L41.662 20.8097ZM26.301 50.1423V41.977H27.593V50.4178H26.576C26.4242 50.4173 26.301 50.2941 26.301 50.1423ZM29.2424 50.4173V41.152C29.2424 40.6966 28.8728 40.327 28.4174 40.327H26.3214C26.7526 31.7387 33.875 24.8835 42.5689 24.8835H46.7087C46.86 24.8835 46.9837 25.0067 46.9837 25.1585V35.6031C45.5955 34.7154 43.9521 34.1934 42.1856 34.1934C37.2575 34.1934 33.2486 38.2029 33.2486 43.1309C33.2486 46.1383 34.7463 48.797 37.0299 50.4178L29.2424 50.4173ZM42.1861 50.4173C38.1678 50.4173 34.8992 47.1486 34.8992 43.1303C34.8992 39.112 38.1678 35.8428 42.1861 35.8428C46.2044 35.8428 49.4736 39.112 49.4736 43.1303C49.4736 47.1486 46.2044 50.4173 42.1861 50.4173Z" fill="#109C3D"/>
<path d="M42.1861 37.1464C38.8866 37.1464 36.2026 39.8309 36.2026 43.1304C36.2026 46.4298 38.8866 49.1138 42.1861 49.1138C45.4855 49.1138 48.1701 46.4298 48.1701 43.1304C48.1701 39.8309 45.4855 37.1464 42.1861 37.1464ZM42.1861 47.4638C39.7963 47.4638 37.8526 45.5201 37.8526 43.1304C37.8526 40.7406 39.7963 38.7964 42.1861 38.7964C44.5758 38.7964 46.5201 40.7406 46.5201 43.1304C46.5201 45.5201 44.5758 47.4638 42.1861 47.4638Z" fill="#109C3D"/>
<path d="M41.4986 28.6004H45.0736C45.529 28.6004 45.8986 28.2308 45.8986 27.7754C45.8986 27.32 45.529 26.9504 45.0736 26.9504H41.4986C41.0432 26.9504 40.6736 27.32 40.6736 27.7754C40.6736 28.2308 41.0432 28.6004 41.4986 28.6004Z" fill="#109C3D"/>
<path d="M41.4986 31.7173H45.0736C45.529 31.7173 45.8986 31.3477 45.8986 30.8923C45.8986 30.4369 45.529 30.0673 45.0736 30.0673H41.4986C41.0432 30.0673 40.6736 30.4369 40.6736 30.8923C40.6736 31.3477 41.0432 31.7173 41.4986 31.7173Z" fill="#109C3D"/>
</svg>
