<svg width="51" height="51" viewBox="0 0 51 51" fill="none" xmlns="http://www.w3.org/2000/svg">
<path d="M10.1653 22.4648C12.0216 22.4648 13.5313 20.9551 13.5313 19.0988C13.5313 17.2431 12.0216 15.7328 10.1653 15.7328C8.30903 15.7328 6.79932 17.2426 6.79932 19.0988C6.79932 20.9551 8.30903 22.4648 10.1653 22.4648ZM10.1653 17.378C11.114 17.378 11.8862 18.1501 11.8862 19.0988C11.8862 20.0476 11.114 20.8197 10.1653 20.8197C9.21661 20.8197 8.44448 20.0476 8.44448 19.0988C8.44448 18.1501 9.21661 17.378 10.1653 17.378Z" fill="#109C3D"/>
<path d="M41.3704 20.0284C39.9216 20.0284 38.7437 21.2069 38.7437 22.6557C38.7437 24.104 39.9216 25.2825 41.3704 25.2825C42.8193 25.2825 43.9977 24.104 43.9977 22.6557C43.9977 21.2069 42.8193 20.0284 41.3704 20.0284ZM41.3704 23.6368C40.8292 23.6368 40.3888 23.1964 40.3888 22.6552C40.3888 22.1139 40.8292 21.673 41.3704 21.673C41.9117 21.673 42.3526 22.1133 42.3526 22.6552C42.3526 23.1964 41.9122 23.6368 41.3704 23.6368Z" fill="#109C3D"/>
<path d="M39.1777 18.2598C42.3523 18.2598 44.9346 15.6775 44.9346 12.5023C44.9346 9.32717 42.3523 6.74481 39.1777 6.74481C36.0031 6.74481 33.4202 9.32826 33.4202 12.5029C33.4202 15.6775 36.0031 18.2598 39.1777 18.2598ZM39.1777 8.39052C41.4453 8.39052 43.2895 10.2353 43.2895 12.5029C43.2895 14.7705 41.4453 16.6152 39.1777 16.6152C36.9101 16.6152 35.0653 14.7705 35.0653 12.5029C35.0653 10.2353 36.9107 8.39052 39.1777 8.39052Z" fill="#109C3D"/>
<path d="M39.1778 11.1324C39.9329 11.1324 40.5477 11.7471 40.5477 12.5028C40.5477 12.9574 40.9162 13.3254 41.3703 13.3254C41.8243 13.3254 42.1928 12.9574 42.1928 12.5028C42.1928 10.8401 40.84 9.48724 39.1778 9.48724C38.7237 9.48724 38.3552 9.85521 38.3552 10.3098C38.3552 10.7644 38.7237 11.1324 39.1778 11.1324Z" fill="#109C3D"/>
<path d="M47.0889 45.4966V41.3716C47.0889 38.0182 44.9305 35.1666 41.933 34.1126C41.7388 31.9481 39.9176 30.2454 37.7033 30.2454H34.8319C33.7461 27.8155 31.4999 26.1012 28.9022 25.668V3.39908C28.9022 1.52305 27.376 -0.00311279 25.5 -0.00311279C23.624 -0.00311279 22.0978 1.52305 22.0978 3.39908V25.6674C19.5001 26.1007 17.2534 27.8149 16.1675 30.2448H13.2967C11.0829 30.2448 9.26116 31.9476 9.06703 34.112C6.069 35.166 3.91055 38.0177 3.91055 41.371V45.496C1.69123 45.8865 0 47.8283 0 50.1573C0 50.6114 0.367968 50.9799 0.822581 50.9799H20.7005C22.7334 50.9799 24.5129 49.8919 25.5005 48.2709C26.4882 49.8919 28.2672 50.9799 30.3006 50.9799H50.1774C50.6315 50.9799 51 50.6114 51 50.1573C51 47.8289 49.3082 45.887 47.0889 45.4966ZM23.743 3.39908C23.743 2.43008 24.531 1.64205 25.5 1.64205C26.469 1.64205 27.257 2.43008 27.257 3.39908V25.5583H23.743V3.39908ZM23.3904 27.2035H27.6091C29.8306 27.2035 31.8635 28.3874 32.9811 30.2448H18.0189C19.1365 28.3874 21.1699 27.2035 23.3904 27.2035ZM10.8263 33.6711C11.1712 32.6374 12.1484 31.89 13.2967 31.89H37.7027C38.851 31.89 39.8283 32.6374 40.1732 33.6711H10.8263ZM1.75648 49.3353C2.11787 48.0307 3.31555 47.0699 4.73368 47.0699C5.18829 47.0699 5.55626 46.7014 5.55626 46.2473V41.371C5.55626 38.0325 8.27242 35.3163 11.6115 35.3163H11.6763C9.79255 36.7651 8.57129 39.0338 8.57129 41.5888V45.5503C8.57129 47.6375 6.87294 49.3353 4.78577 49.3353H1.75648ZM8.67165 49.3353C9.62529 48.3564 10.2159 47.0216 10.2159 45.5503V41.5888C10.2159 38.1301 13.0297 35.3163 16.4884 35.3163H16.4938C14.6101 36.7651 13.3889 39.0338 13.3889 41.5888V45.5503C13.3889 47.6375 11.6905 49.3353 9.60335 49.3353H8.67165ZM13.4903 49.3353C14.444 48.3564 15.0346 47.0216 15.0346 45.5503V41.5888C15.0346 38.1301 17.8484 35.3163 21.307 35.3163H21.3125C19.4288 36.7651 18.2075 39.0338 18.2075 41.5888V45.5503C18.2075 47.6375 16.5092 49.3353 14.422 49.3353H13.4903ZM20.7005 49.3353H18.309C19.2626 48.3564 19.8533 47.0216 19.8533 45.5503V41.5888C19.8533 38.6297 21.9157 36.1488 24.6774 35.4923V45.3584C24.6774 47.5514 22.8935 49.3353 20.7005 49.3353ZM30.3 49.3353C28.107 49.3353 26.3226 47.5514 26.3226 45.3584V35.4918C29.0843 36.1482 31.1467 38.6291 31.1467 41.5882V45.5498C31.1467 47.0211 31.7374 48.3559 32.691 49.3347L30.3 49.3353ZM32.7919 45.5498V41.5882C32.7919 39.0338 31.5706 36.7646 29.6869 35.3158H29.693C33.1522 35.3158 35.9654 38.1295 35.9654 41.5882V45.5498C35.9654 47.0211 36.556 48.3559 37.5097 49.3347H36.5774C34.4903 49.3353 32.7919 47.6369 32.7919 45.5498ZM37.6106 45.5498V41.5882C37.6106 39.0338 36.3893 36.7646 34.5056 35.3158H34.5116C37.9709 35.3158 40.7841 38.1295 40.7841 41.5882V45.5498C40.7841 47.0211 41.3747 48.3559 42.3284 49.3347H41.3961C39.3089 49.3353 37.6106 47.6369 37.6106 45.5498ZM46.2142 49.3353C44.1271 49.3353 42.4293 47.6369 42.4293 45.5503V41.5888C42.4293 39.0344 41.208 36.7651 39.3243 35.3163H39.389C42.7276 35.3163 45.4437 38.0325 45.4437 41.371V46.2473C45.4437 46.7014 45.8123 47.0699 46.2663 47.0699C47.6845 47.0699 48.8827 48.0307 49.2435 49.3353H46.2142Z" fill="#109C3D"/>
</svg>
