<svg width="42" height="42" viewBox="0 0 42 42" fill="none" xmlns="http://www.w3.org/2000/svg">
<path d="M29.3357 26.5132C28.6509 25.5779 27.6258 24.9494 26.4816 24.7632C25.9144 24.6709 25.3345 24.6934 24.7763 24.8294C24.218 24.9654 23.6927 25.2121 23.2316 25.5549L20.4399 27.6382C17.4996 24.9164 15.1399 21.6284 13.5024 17.9716L16.2941 15.8882C17.2261 15.1977 17.8491 14.1682 18.0285 13.0221C18.2078 11.8761 17.929 10.7055 17.2524 9.76324L13.9399 5.28407C13.611 4.81086 13.1876 4.41101 12.6963 4.10979C12.205 3.80858 11.6566 3.61254 11.0857 3.53407C10.52 3.43999 9.94113 3.4597 9.38308 3.59206C8.82503 3.72442 8.29899 3.96676 7.83574 4.3049L3.81491 7.22157C2.73409 8.00645 1.89414 9.07777 1.38982 10.3146C0.885495 11.5515 0.736881 12.9047 0.960741 14.2216C1.90333 19.8124 4.12815 25.1088 7.46075 29.6957C10.7934 34.2825 15.1431 38.0351 20.1691 40.6591C21.3542 41.2754 22.6877 41.5493 24.0199 41.4499C25.352 41.3506 26.6301 40.8819 27.7107 40.0966L31.7107 37.1799C32.6256 36.5013 33.2398 35.4926 33.4227 34.3683C33.6055 33.2439 33.3426 32.0926 32.6899 31.1591L29.3357 26.5132ZM29.8357 34.6382L25.8149 37.5549C25.2177 37.9871 24.5131 38.2468 23.7783 38.3056C23.0434 38.3644 22.3066 38.22 21.6482 37.8882C17.0403 35.4964 13.0514 32.0663 9.99629 27.8687C6.94118 23.6711 4.9035 18.8208 4.04407 13.7007C3.91901 12.9581 4.00503 12.1953 4.29232 11.4991C4.57962 10.803 5.05665 10.2015 5.66907 9.76324L9.66907 6.84657C9.80166 6.74917 9.95217 6.6789 10.112 6.63979C10.2718 6.60068 10.4377 6.5935 10.6003 6.61866C10.7629 6.64382 10.9189 6.70083 11.0594 6.78641C11.1999 6.872 11.3221 6.98448 11.4191 7.1174L14.7524 11.6591C14.9438 11.9287 15.0225 12.2623 14.972 12.589C14.9214 12.9157 14.7455 13.2099 14.4816 13.4091L10.5857 16.1591C10.3007 16.3627 10.0923 16.6562 9.99406 16.9924C9.89583 17.3287 9.91344 17.6882 10.0441 18.0132C12.0374 22.9618 15.2219 27.3414 19.3149 30.7632C19.589 30.9761 19.9262 31.0916 20.2732 31.0916C20.6203 31.0916 20.9575 30.9761 21.2316 30.7632L25.1691 28.0757C25.3017 27.9783 25.4522 27.9081 25.612 27.869C25.7718 27.8298 25.9377 27.8227 26.1003 27.8478C26.2629 27.873 26.4189 27.93 26.5594 28.0156C26.6999 28.1012 26.8221 28.2136 26.9191 28.3466L30.2107 32.9091C30.3074 33.0428 30.3757 33.1949 30.4113 33.356C30.447 33.517 30.4492 33.6837 30.418 33.8457C30.3868 34.0077 30.3227 34.1616 30.2297 34.2979C30.1367 34.4342 30.0168 34.55 29.8774 34.6382H29.8357ZM21.5024 12.9716C21.5327 12.7679 21.6034 12.5724 21.7105 12.3966C21.8176 12.2208 21.9587 12.0681 22.1257 11.9478C22.2927 11.8274 22.4821 11.7416 22.6828 11.6956C22.8835 11.6496 23.0913 11.6443 23.2941 11.6799C24.2659 11.8247 25.1994 12.1606 26.0407 12.6682C26.882 13.1758 27.6143 13.8451 28.1955 14.6373C28.7766 15.4296 29.195 16.3292 29.4265 17.2841C29.6579 18.239 29.6979 19.2303 29.5441 20.2007C29.4852 20.5689 29.2983 20.9046 29.0163 21.1485C28.7343 21.3924 28.3752 21.5289 28.0024 21.5341H27.7524C27.3436 21.4676 26.9779 21.2415 26.7357 20.9056C26.4935 20.5696 26.3946 20.1513 26.4607 19.7424C26.6349 18.6077 26.354 17.4501 25.679 16.5216C25.004 15.593 23.9896 14.9685 22.8566 14.7841C22.6453 14.7618 22.4409 14.696 22.2563 14.591C22.0716 14.4859 21.9107 14.3439 21.7835 14.1737C21.6564 14.0035 21.5658 13.8088 21.5174 13.602C21.469 13.3951 21.4639 13.1805 21.5024 12.9716ZM35.3149 20.9091C35.3094 21.3199 35.1424 21.7119 34.85 22.0005C34.5575 22.289 34.1632 22.4508 33.7524 22.4507C33.3397 22.4399 32.9476 22.2683 32.6597 21.9725C32.3717 21.6768 32.2106 21.2802 32.2107 20.8674C32.2451 18.1986 31.4158 15.5902 29.8464 13.4313C28.277 11.2724 26.0517 9.67884 23.5024 8.88824C23.1341 8.74536 22.8336 8.46826 22.6613 8.11272C22.4891 7.75718 22.4579 7.34959 22.5741 6.972C22.6903 6.5944 22.9452 6.27484 23.2875 6.07762C23.6298 5.8804 24.0341 5.82018 24.4191 5.90907C27.6092 6.90117 30.3934 8.89745 32.3569 11.6005C34.3203 14.3035 35.3578 17.5685 35.3149 20.9091ZM41.1482 21.7424C41.1597 22.1554 41.0092 22.5566 40.729 22.8602C40.4487 23.1638 40.0609 23.3458 39.6482 23.3674C39.2444 23.3677 38.8562 23.2117 38.5649 22.9321C38.2736 22.6524 38.1019 22.2709 38.0857 21.8674C37.9219 17.7367 36.533 13.7482 34.0956 10.4093C31.6582 7.07038 28.2826 4.53209 24.3982 3.1174C24.2008 3.04138 24.0204 2.92705 23.8673 2.78101C23.7143 2.63497 23.5916 2.4601 23.5064 2.26647C23.4212 2.07283 23.3752 1.86426 23.3709 1.65275C23.3666 1.44124 23.4042 1.23098 23.4816 1.03407C23.5552 0.8349 23.6682 0.652584 23.8138 0.497972C23.9594 0.343359 24.1345 0.219609 24.3289 0.134085C24.5233 0.0485606 24.7329 0.00301009 24.9452 0.000144206C25.1576 -0.00272167 25.3683 0.0371553 25.5649 0.117402C30.0058 1.78285 33.8549 4.72464 36.6278 8.57258C39.4007 12.4205 40.9735 17.0027 41.1482 21.7424Z" fill="#109C3D"/>
</svg>
