<svg width="41" height="41" viewBox="0 0 41 41" fill="none" xmlns="http://www.w3.org/2000/svg">
<path d="M25.9025 23.8918C25.4597 23.8918 25.0526 24.0554 24.756 24.3515L20.6564 28.4507C15.5423 26.9638 13.5011 22.8198 12.8313 20.982L17.2627 16.5506C17.7891 16.0242 17.8622 15.289 17.4797 14.3655C16.5987 12.2389 10.8696 4.19037 7.63404 4.19037C7.05555 4.19037 6.51956 4.40787 6.12385 4.80358L1.81034 9.11709C-0.918506 11.8464 1.81856 24.3519 9.31786 31.8508C15.275 37.8079 23.3601 40.5207 28.3512 40.5207C30.1379 40.5203 31.4091 40.1557 32.1292 39.4351L36.4427 35.122C36.7525 34.8122 37.4092 33.9376 36.8183 32.5115C35.6275 29.6378 27.977 23.8918 25.9025 23.8918ZM28.3512 37.6845C24.6592 37.7791 17.0749 35.5972 11.3234 29.8453C4.10509 22.627 2.96685 12.4482 3.83641 11.1016L7.82367 7.11433C8.44465 7.43373 12.8482 10.9572 14.6974 15.1053L10.4625 19.3398C9.93336 19.8693 9.74282 20.6429 9.9658 21.359C10.5484 23.2269 13.0236 29.466 20.4156 31.323C20.5741 31.3628 21.1873 31.9193 22.3242 30.793L26.2205 26.8971C28.1666 27.8361 33.3319 31.7905 34.132 33.4208C34.1324 33.4208 30.4404 37.6311 28.3512 37.6845Z" fill="white"/>
<path d="M37.0148 0.333374H21.9847C19.9517 0.333374 18.3867 1.96374 18.3867 3.9962V10.2353C18.3867 11.0185 18.9743 11.6531 19.7575 11.6531C20.5407 11.6531 21.1284 11.0185 21.1284 10.2353V3.9962C21.1284 3.52738 21.5154 3.07501 21.9847 3.07501H37.0148C37.4841 3.07501 38.0351 3.52738 38.0351 3.9962V28.3849C38.0351 29.1681 38.6228 29.8028 39.406 29.8028C40.1892 29.8028 40.7768 29.1681 40.7768 28.3849V3.9962C40.7768 1.96374 39.0477 0.333374 37.0148 0.333374Z" fill="white"/>
<path d="M25.6757 9.01523H33.0489C33.8321 9.01523 34.4668 8.19914 34.4668 7.41594C34.4668 6.63275 33.8321 5.81665 33.0489 5.81665H25.6757C24.8925 5.81665 24.2578 6.63275 24.2578 7.41594C24.2578 8.19914 24.8925 9.01523 25.6757 9.01523Z" fill="white"/>
<path d="M25.6757 14.9555H33.0489C33.8321 14.9555 34.4668 14.3679 34.4668 13.5847C34.4668 12.8015 33.8321 12.2139 33.0489 12.2139H25.6757C24.8925 12.2139 24.2578 12.8015 24.2578 13.5847C24.2578 14.3679 24.8925 14.9555 25.6757 14.9555Z" fill="white"/>
<path d="M25.6757 21.3526H33.0489C33.8321 21.3526 34.4668 20.765 34.4668 19.9818C34.4668 19.1986 33.8321 18.611 33.0489 18.611H25.6757C24.8925 18.611 24.2578 19.1986 24.2578 19.9818C24.2578 20.765 24.8925 21.3526 25.6757 21.3526Z" fill="white"/>
</svg>
