<svg width="55" height="52" viewBox="0 0 55 52" fill="none" xmlns="http://www.w3.org/2000/svg">
<path d="M11.5929 43.8684H7.29601C7.04679 43.8684 6.81476 43.7653 6.65148 43.5762C6.4882 43.3958 6.41085 43.1465 6.43663 42.9059L8.1554 28.2964L9.66791 17.7175L7.08117 18.7487L5.11319 23.3464C4.69209 24.3261 3.72958 24.962 2.66395 24.962C1.84754 24.962 1.09128 24.6011 0.584247 23.9652C0.0772116 23.3292 -0.111852 22.5128 0.0600239 21.7222L1.28894 16.1792C1.3491 15.9299 1.51238 15.7151 1.74441 15.5948L10.8624 11.0401C11.8335 10.5502 12.9422 10.4471 13.9734 10.7479L18.1242 11.9338C18.5969 12.0713 19.0352 12.2862 19.4305 12.5612L24.7501 16.3596H31.2728C31.9689 16.3596 32.6392 16.6346 33.1462 17.1245C33.6446 17.6229 33.9282 18.3104 33.9282 19.0151C33.9282 20.3815 32.8626 21.5503 31.5048 21.662L23.693 22.3753C23.4954 22.3925 23.2977 22.3409 23.1344 22.2378L19.1555 19.5823L18.5281 25.2198L25.6008 27.5746C25.979 27.7035 26.2196 28.0644 26.1852 28.4597L25.3258 38.7723C25.2915 39.2192 24.9133 39.5629 24.4665 39.5629H20.1695C19.6969 39.5629 19.3102 39.1762 19.3102 38.7035V31.6566L15.1508 30.7027L12.4179 43.1895C12.332 43.5848 11.9796 43.8684 11.5757 43.8684H11.5929ZM8.25852 42.1497H10.8968L13.6726 29.491C13.7242 29.2675 13.8617 29.0699 14.0508 28.9496C14.2484 28.8293 14.4804 28.7863 14.7039 28.8378L20.3758 30.1441C20.7625 30.23 21.0461 30.5824 21.0461 30.9777V37.8528H23.693L24.4321 29.0011L17.3422 26.6378C16.9555 26.5089 16.7148 26.1308 16.7578 25.7269L17.6172 17.9925C17.6516 17.6917 17.8406 17.4339 18.107 17.3049C18.382 17.176 18.7 17.2018 18.9492 17.3651L23.8563 20.6308L31.3759 19.9432C31.8571 19.9003 32.2267 19.4964 32.2267 19.0151C32.2267 18.7659 32.1235 18.5253 31.9517 18.3534C31.7712 18.1815 31.5392 18.0784 31.2899 18.0784H24.4922C24.3118 18.0784 24.1399 18.0268 23.9938 17.9151L18.4594 13.962C18.2188 13.7901 17.9523 13.6612 17.6687 13.5838L13.5179 12.3979C12.8992 12.2174 12.2375 12.2776 11.6531 12.5698L2.90458 16.944L1.7616 22.0831C1.70144 22.3667 1.7616 22.6503 1.94207 22.8737C2.36317 23.398 3.2913 23.2691 3.54911 22.6589L5.6546 17.7346C5.74053 17.5284 5.91241 17.3565 6.12726 17.2706L10.4242 15.5518C10.7078 15.4401 11.0343 15.4831 11.275 15.6721C11.5156 15.8612 11.6359 16.162 11.5929 16.4713L9.87416 28.5027L8.26712 42.1325L8.25852 42.1497Z" fill="#D9D9D9"/>
<path d="M17.6087 10.3526C14.7641 10.3526 12.4524 8.04088 12.4524 5.19633C12.4524 2.35177 14.7641 0.0400391 17.6087 0.0400391C20.4532 0.0400391 22.765 2.35177 22.765 5.19633C22.765 8.04088 20.4532 10.3526 17.6087 10.3526ZM17.6087 1.7588C15.7094 1.7588 14.1712 3.29709 14.1712 5.19633C14.1712 7.09556 15.7094 8.63385 17.6087 8.63385C19.5079 8.63385 21.0462 7.09556 21.0462 5.19633C21.0462 3.29709 19.5079 1.7588 17.6087 1.7588Z" fill="#D9D9D9"/>
<path d="M14.6092 51.5686H6.01539C5.54273 51.5686 5.15601 51.1818 5.15601 50.7092V42.9747C5.15601 42.5021 5.54273 42.1154 6.01539 42.1154H14.6092C15.0819 42.1154 15.4686 42.5021 15.4686 42.9747V50.7092C15.4686 51.1818 15.0819 51.5686 14.6092 51.5686ZM6.87477 49.8498H13.7498V43.8341H6.87477V49.8498Z" fill="#D9D9D9"/>
<path d="M26.6405 51.5685H18.0466C17.574 51.5685 17.1873 51.1817 17.1873 50.7091V38.6777C17.1873 38.2051 17.574 37.8184 18.0466 37.8184H26.6405C27.1131 37.8184 27.4998 38.2051 27.4998 38.6777V50.7091C27.4998 51.1817 27.1131 51.5685 26.6405 51.5685ZM18.906 49.8497H25.7811V39.5371H18.906V49.8497Z" fill="#D9D9D9"/>
<path d="M38.6719 51.5685H30.0781C29.6055 51.5685 29.2188 51.1818 29.2188 50.7091V31.8027C29.2188 31.3301 29.6055 30.9434 30.0781 30.9434H38.6719C39.1446 30.9434 39.5313 31.3301 39.5313 31.8027V50.7091C39.5313 51.1818 39.1446 51.5685 38.6719 51.5685ZM30.9375 49.8498H37.8126V32.6621H30.9375V49.8498Z" fill="#D9D9D9"/>
<path d="M50.7026 51.5685H42.1088C41.6361 51.5685 41.2494 51.1818 41.2494 50.7092V23.209H38.6713C38.3447 23.209 38.0525 23.0285 37.9064 22.7363C37.7603 22.4441 37.7947 22.1003 37.9838 21.8339L45.7182 11.5214C46.0447 11.0917 46.7666 11.0917 47.0932 11.5214L54.8276 21.8339C55.0253 22.0918 55.0511 22.4441 54.905 22.7363C54.7589 23.0285 54.4581 23.209 54.1401 23.209H51.562V50.7092C51.562 51.1818 51.1753 51.5685 50.7026 51.5685ZM42.9682 49.8498H49.8432V22.3496C49.8432 21.8769 50.2299 21.4902 50.7026 21.4902H52.4214L46.4057 13.4722L40.39 21.4902H42.1088C42.5814 21.4902 42.9682 21.8769 42.9682 22.3496V49.8498Z" fill="#D9D9D9"/>
</svg>
