<svg width="55" height="55" viewBox="0 0 55 55" fill="none" xmlns="http://www.w3.org/2000/svg">
<path fill-rule="evenodd" clip-rule="evenodd" d="M14.2534 22.6939H15.888C16.1047 22.6939 16.2813 22.8705 16.2813 23.0872V24.5858C16.2813 24.8025 16.1046 24.9792 15.888 24.9792H14.2534C14.0367 24.9792 13.8601 24.8025 13.8601 24.5858V23.0872C13.8601 22.8705 14.0368 22.6939 14.2534 22.6939ZM18.0578 22.6939H19.6924C19.9091 22.6939 20.0857 22.8705 20.0857 23.0872V24.5858C20.0857 24.8025 19.9091 24.9792 19.6924 24.9792H18.0578C17.8411 24.9792 17.6645 24.8025 17.6645 24.5858V23.0872C17.6645 22.8705 17.8411 22.6939 18.0578 22.6939ZM14.2534 26.4984H15.888C16.1047 26.4984 16.2813 26.6751 16.2813 26.8918V28.3904C16.2813 28.6071 16.1046 28.7837 15.888 28.7837H14.2534C14.0367 28.7837 13.8601 28.6071 13.8601 28.3904V26.8918C13.8601 26.6751 14.0368 26.4984 14.2534 26.4984ZM18.0578 26.4984H19.6924C19.9091 26.4984 20.0857 26.6751 20.0857 26.8918V28.3904C20.0857 28.6071 19.9091 28.7837 19.6924 28.7837H18.0578C17.8411 28.7837 17.6645 28.6071 17.6645 28.3904V26.8918C17.6645 26.6751 17.8411 26.4984 18.0578 26.4984ZM3.48989 18.67L27.914 6.27245L27.89 3.87705L3.4871 16.7638L3.48989 18.67ZM28.095 13.1447V15.3103L45.8745 24.4679V22.3819L28.095 13.1447ZM37.235 31.9465H33.8646V35.3169H37.235V31.9465ZM33.0863 30.3901H38.0131C38.4429 30.3901 38.7913 30.7385 38.7913 31.1682V36.095C38.7913 36.5248 38.4428 36.8732 38.0131 36.8732H33.0863C32.6565 36.8732 32.3082 36.5247 32.3082 36.095V31.1682C32.3082 30.7384 32.6566 30.3901 33.0863 30.3901ZM28.3519 47.9732H4.20156V49.8864H27.4223C27.6055 49.1814 27.926 48.5325 28.3518 47.9732H28.3519ZM28.095 46.4168V17.0567L43.0067 24.7372C43.0054 24.7562 43.0047 24.7753 43.0047 24.7947V43.2185C42.8224 43.2546 42.644 43.3036 42.4705 43.3648C42.3143 43.4199 42.1626 43.4849 42.0161 43.5589C41.5774 43.0441 41.0513 42.6103 40.4615 42.2822C39.6704 41.8421 38.7699 41.5925 37.8166 41.5925C36.4036 41.5925 35.1129 42.1357 34.1263 43.0322C33.2973 43.7856 32.6849 44.7909 32.3992 45.9334H32.3912C31.6309 45.9334 30.9079 46.1065 30.2571 46.4168H28.0951H28.095ZM13.4156 46.4168H20.5303V34.0914H13.4156V46.4168ZM7.40725 46.4168H11.8591V33.3132C11.8591 32.8834 12.2076 32.5351 12.6373 32.5351H21.3085C21.7383 32.5351 22.0867 32.8835 22.0867 33.3132V46.4168H26.5385V8.71168L7.4022 18.4252C7.40553 18.4543 7.40725 18.4837 7.40725 18.5137V46.4168ZM27.2508 51.4428C27.2562 51.6064 27.2691 51.7689 27.289 51.9303C27.3143 52.1361 27.3522 52.3417 27.4016 52.5459C27.469 52.907 27.7858 53.1803 28.1664 53.1803H52.145V53.1793C52.4934 53.1795 52.8106 52.9438 52.8989 52.5905C52.9538 52.3717 52.9954 52.1512 53.0225 51.9303C53.0498 51.7087 53.0638 51.4845 53.0638 51.2589C53.0638 49.8017 52.4889 48.4742 51.5627 47.5093C50.6293 46.5371 49.34 45.9335 47.9203 45.9335H47.4717C47.2462 45.2304 46.8397 44.6121 46.3097 44.1382C45.8167 43.6975 45.2188 43.3811 44.561 43.2359V25.5379L46.2479 26.4067C46.3658 26.4787 46.5044 26.5203 46.6526 26.5203C47.0824 26.5203 47.4308 26.1718 47.4308 25.7421V21.91H47.4304C47.4302 21.6293 47.2775 21.3583 47.0112 21.2199L28.0948 11.392V7.92181L29.0434 7.44034L29.043 7.43948C29.2977 7.31079 29.4714 7.04578 29.469 6.74113L29.428 2.63364C29.4345 2.49958 29.4065 2.36208 29.3394 2.23468C29.1395 1.85526 28.67 1.7096 28.2906 1.9094L2.3495 15.6085L2.35004 15.6096C2.10383 15.7394 1.93604 15.9979 1.93604 16.2956L1.9413 19.8912C1.9341 20.0223 1.9601 20.1571 2.02348 20.2827C2.21651 20.6655 2.68337 20.8193 3.06611 20.6263L5.85081 19.2128V46.4169H3.42329C2.9935 46.4169 2.64513 46.7653 2.64513 47.195V50.6646C2.64513 51.0944 2.9936 51.4428 3.42329 51.4428H27.2508ZM28.8361 50.7554C28.8353 50.7619 28.8346 50.7682 28.8336 50.7746C28.8142 50.9332 28.8041 51.0949 28.8041 51.2589C28.8041 51.3829 28.8097 51.5046 28.8206 51.6238H51.4909C51.5019 51.5046 51.5075 51.3829 51.5075 51.2589C51.5075 50.2151 51.1001 49.2689 50.444 48.5854C49.7951 47.9094 48.9016 47.4898 47.9204 47.4898H46.8576V47.4884C46.4767 47.4888 46.1437 47.2089 46.0886 46.821C45.9995 46.211 45.7026 45.6745 45.2762 45.2932C44.8646 44.9252 44.3281 44.7027 43.7405 44.7027C43.4742 44.7027 43.2209 44.7475 42.9873 44.8299C42.7408 44.9169 42.5117 45.0457 42.3079 45.2085C42.2876 45.2246 42.2663 45.2398 42.2439 45.2541C41.883 45.4857 41.4025 45.381 41.1709 45.0201C40.7988 44.4418 40.2958 43.9652 39.7076 43.638C39.1468 43.3259 38.5031 43.149 37.8167 43.149C36.8046 43.149 35.8796 43.5384 35.172 44.1813C34.4587 44.8296 33.9635 45.7324 33.8168 46.7541C33.7947 47.1641 33.4552 47.4898 33.0397 47.4898H32.3911C31.8329 47.4898 31.3032 47.6256 30.8308 47.8672C30.8099 47.8794 30.7882 47.8907 30.766 47.901C30.4333 48.0799 30.1304 48.3116 29.8675 48.5854C29.3187 49.1572 28.944 49.9127 28.8362 50.7554H28.8361Z" fill="#D9D9D9"/>
</svg>
