<svg width="55" height="55" viewBox="0 0 55 55" fill="none" xmlns="http://www.w3.org/2000/svg">
<path d="M27.4993 3.69632C27.2542 3.69632 27.0191 3.59896 26.8459 3.42566C26.6726 3.25236 26.5752 3.01732 26.5752 2.77224V0.92408C26.5752 0.678999 26.6726 0.443955 26.8459 0.270657C27.0191 0.0973581 27.2542 0 27.4993 0C27.7444 0 27.9794 0.0973581 28.1527 0.270657C28.326 0.443955 28.4234 0.678999 28.4234 0.92408V2.77224C28.4234 3.01732 28.326 3.25236 28.1527 3.42566C27.9794 3.59896 27.7444 3.69632 27.4993 3.69632Z" fill="#D9D9D9"/>
<path d="M19.6446 5.80042C19.4822 5.80057 19.3227 5.75795 19.1821 5.67684C19.0414 5.59573 18.9246 5.47899 18.8434 5.33838L17.9193 3.73787C17.7987 3.52574 17.7669 3.27452 17.8309 3.03902C17.8948 2.80353 18.0493 2.60288 18.2606 2.48087C18.4719 2.35885 18.723 2.32538 18.9589 2.38775C19.1948 2.45013 19.3964 2.60328 19.5199 2.81379L20.4439 4.4143C20.525 4.5547 20.5677 4.71397 20.5677 4.8761C20.5678 5.03823 20.5252 5.19752 20.4442 5.33797C20.3632 5.47842 20.2467 5.59508 20.1063 5.67626C19.966 5.75743 19.8067 5.80025 19.6446 5.80042Z" fill="#D9D9D9"/>
<path d="M35.354 5.80042C35.1919 5.80025 35.0327 5.75743 34.8923 5.67626C34.752 5.59508 34.6355 5.47842 34.5545 5.33797C34.4735 5.19752 34.4309 5.03823 34.4309 4.8761C34.4309 4.71397 34.4736 4.5547 34.5547 4.4143L35.4788 2.81379C35.6022 2.60328 35.8039 2.45013 36.0398 2.38775C36.2757 2.32538 36.5267 2.35885 36.738 2.48087C36.9494 2.60288 37.1038 2.80353 37.1678 3.03902C37.2317 3.27452 37.1999 3.52574 37.0793 3.73787L36.1552 5.33838C36.074 5.47899 35.9572 5.59573 35.8166 5.67684C35.6759 5.75795 35.5164 5.80057 35.354 5.80042Z" fill="#D9D9D9"/>
<path d="M53.1194 19.7448C53.1409 19.5802 53.1517 19.4145 53.1517 19.2485C53.1483 18.4017 52.8552 17.5816 52.3212 16.9244C51.7871 16.2673 51.0441 15.8127 50.2159 15.6363C49.2689 15.4601 48.2904 15.6513 47.4793 16.1709C46.6682 16.6905 46.0855 17.4996 45.8496 18.4335L42.6375 29.7775C42.2836 29.8542 41.9429 29.9828 41.6266 30.1591L33.4577 34.9477C32.2085 35.6836 31.1725 36.7323 30.4518 37.9903C29.7311 39.2483 29.3504 40.6724 29.3474 42.1223V53.5966C29.3474 53.8416 29.4448 54.0767 29.6181 54.25C29.7914 54.4233 30.0264 54.5206 30.2715 54.5206C30.5166 54.5206 30.7516 54.4233 30.9249 54.25C31.0982 54.0767 31.1956 53.8416 31.1956 53.5966V42.1223C31.1979 40.9946 31.494 39.8871 32.0547 38.9087C32.6153 37.9303 33.4212 37.1148 34.3929 36.5427L42.5562 31.7569C42.7665 31.6336 42.999 31.5531 43.2405 31.5201C43.482 31.4871 43.7277 31.5022 43.9633 31.5645C44.1989 31.6268 44.4199 31.7351 44.6135 31.8831C44.8072 32.0312 44.9696 32.2161 45.0914 32.4271C45.2133 32.6382 45.2922 32.8713 45.3236 33.113C45.3551 33.3547 45.3384 33.6003 45.2745 33.8355C45.2106 34.0707 45.1009 34.291 44.9515 34.4836C44.8022 34.6762 44.6163 34.8374 44.4044 34.9579L39.1085 38.0157C39.0025 38.0759 38.9095 38.1565 38.8349 38.2528C38.7602 38.3491 38.7053 38.4592 38.6734 38.5769C38.6415 38.6945 38.6331 38.8172 38.6488 38.9381C38.6645 39.0589 38.704 39.1755 38.7649 39.281C38.8259 39.3866 38.9071 39.479 39.0039 39.553C39.1007 39.6271 39.2112 39.6812 39.329 39.7124C39.4468 39.7435 39.5696 39.751 39.6904 39.7345C39.8111 39.718 39.9274 39.6778 40.0325 39.6162L45.3284 36.5584C46.0851 36.1237 46.6625 35.4342 46.9575 34.613C47.2526 33.7918 47.2461 32.8925 46.9391 32.0757L49.4757 22.6242C49.5908 22.1459 49.8814 21.7283 50.2901 21.4544C50.6987 21.1805 51.1954 21.0703 51.6815 21.1457C52.0948 21.2332 52.4659 21.4593 52.7333 21.7865C53.0006 22.1137 53.1482 22.5223 53.1517 22.9448C53.1529 23.1073 53.1324 23.2692 53.0907 23.4263L49.0719 38.426C48.9312 38.9494 48.6405 39.4203 48.2356 39.7807L41.9879 45.3344C41.4996 45.7682 41.1089 46.3006 40.8415 46.8965C40.574 47.4924 40.4359 48.1382 40.4364 48.7914V53.5966C40.4364 53.8416 40.5337 54.0767 40.707 54.25C40.8803 54.4233 41.1154 54.5206 41.3604 54.5206C41.6055 54.5206 41.8406 54.4233 42.0139 54.25C42.1872 54.0767 42.2845 53.8416 42.2845 53.5966V48.7914C42.2846 48.3999 42.3675 48.0129 42.5279 47.6558C42.6883 47.2987 42.9225 46.9796 43.2151 46.7196L49.4646 41.1649C50.1398 40.5636 50.6236 39.7774 50.8563 38.9037L54.8751 23.9059C54.9593 23.5922 55.0013 23.2687 54.9999 22.9439C54.9957 22.2923 54.8196 21.6534 54.4894 21.0917C54.1592 20.53 53.6866 20.0653 53.1194 19.7448ZM47.6913 22.1474L45.5059 30.2867C45.2085 30.0892 44.8842 29.9358 44.543 29.8311L47.6313 18.9269C47.7482 18.4494 48.0396 18.0329 48.4481 17.7593C48.8567 17.4856 49.3527 17.3748 49.8389 17.4484C50.2519 17.536 50.6225 17.7624 50.889 18.0899C51.1555 18.4174 51.3018 18.8263 51.3035 19.2485V19.2615C50.4694 19.2827 49.665 19.576 49.0129 20.0966C48.3608 20.6173 47.8967 21.3368 47.6913 22.1455V22.1474Z" fill="#D9D9D9"/>
<path d="M21.5409 34.9478L13.3665 30.1565C13.052 29.9808 12.7132 29.8528 12.3611 29.7767L9.15267 18.4447C8.91916 17.5076 8.33659 16.695 7.52402 16.173C6.71144 15.6511 5.73021 15.4591 4.78085 15.6364C3.95303 15.8133 3.21063 16.2681 2.67693 16.9252C2.14323 17.5823 1.85034 18.4021 1.8469 19.2486C1.84687 19.4146 1.85768 19.5803 1.87924 19.7449C1.167 20.1453 0.608035 20.7711 0.290215 21.5238C-0.0276054 22.2765 -0.0862547 23.1135 0.123487 23.9032L4.14231 38.9038C4.37605 39.7759 4.86019 40.5604 5.5349 41.1604L11.7835 46.7141C12.0768 46.9748 12.3114 47.2948 12.4718 47.6529C12.6323 48.011 12.7148 48.3991 12.7141 48.7915V53.5967C12.7141 53.8418 12.8114 54.0768 12.9847 54.2501C13.158 54.4234 13.3931 54.5208 13.6382 54.5208C13.8832 54.5208 14.1183 54.4234 14.2916 54.2501C14.4649 54.0768 14.5622 53.8418 14.5622 53.5967V48.7915C14.5621 48.139 14.4238 47.4938 14.1564 46.8986C13.889 46.3034 13.4985 45.7716 13.0107 45.3382L6.76392 39.7845C6.35836 39.4245 6.06728 38.9535 5.92671 38.4298L1.90696 23.4246C1.84366 23.1819 1.83023 22.9289 1.86749 22.6809C1.90475 22.4329 1.99192 22.195 2.12374 21.9817C2.25556 21.7683 2.42927 21.5839 2.63439 21.4396C2.83951 21.2953 3.07176 21.1941 3.31711 21.1421C3.80326 21.0665 4.30005 21.1767 4.70873 21.4506C5.1174 21.7245 5.40804 22.1422 5.52289 22.6206L8.05948 32.0721C7.75255 32.8889 7.74603 33.7883 8.04108 34.6094C8.33614 35.4306 8.91355 36.1201 9.67016 36.5548L14.9661 39.6126C15.0712 39.6742 15.1875 39.7145 15.3082 39.731C15.429 39.7475 15.5518 39.7399 15.6696 39.7088C15.7874 39.6776 15.8979 39.6235 15.9947 39.5495C16.0915 39.4754 16.1727 39.383 16.2337 39.2775C16.2946 39.1719 16.3341 39.0554 16.3498 38.9345C16.3655 38.8137 16.3571 38.6909 16.3252 38.5733C16.2933 38.4557 16.2384 38.3455 16.1637 38.2492C16.0891 38.1529 15.9961 38.0723 15.8901 38.0121L10.5942 34.958C10.2331 34.7511 9.95264 34.4279 9.79858 34.0412C9.64452 33.6545 9.62593 33.2271 9.74584 32.8285C9.86574 32.4299 10.1171 32.0836 10.4589 31.8461C10.8007 31.6086 11.2129 31.4938 11.6283 31.5204H11.6357C11.9173 31.5348 12.1917 31.6149 12.4369 31.7542L20.6057 36.5428C21.5774 37.115 22.3833 37.9304 22.9439 38.9088C23.5046 39.8872 23.8007 40.9948 23.803 42.1224V53.5967C23.803 53.8418 23.9004 54.0768 24.0737 54.2501C24.247 54.4234 24.482 54.5208 24.7271 54.5208C24.9722 54.5208 25.2072 54.4234 25.3805 54.2501C25.5538 54.0768 25.6512 53.8418 25.6512 53.5967V42.1224C25.6482 40.6725 25.2675 39.2485 24.5468 37.9904C23.8261 36.7324 22.7901 35.6838 21.5409 34.9478ZM9.49273 30.2859L7.30728 22.1456C7.10268 21.3367 6.63909 20.6169 5.98724 20.096C5.33538 19.5751 4.53104 19.2818 3.6969 19.2607V19.2486C3.69797 18.8262 3.84372 18.4169 4.10989 18.0888C4.37605 17.7608 4.74657 17.5338 5.15972 17.4458C5.64856 17.3707 6.14774 17.4825 6.55787 17.7588C6.968 18.0352 7.25899 18.456 7.37289 18.9372L10.4556 29.8294C10.1142 29.934 9.78985 30.0878 9.49273 30.2859Z" fill="#D9D9D9"/>
<path d="M34.5297 30.9373C34.8211 30.9348 35.1077 30.8638 35.3666 30.7302C35.6255 30.5965 35.8494 30.4039 36.0202 30.1679C36.1911 29.9319 36.3041 29.659 36.3502 29.3714C36.3962 29.0837 36.3741 28.7892 36.2855 28.5116L34.015 21.5237L39.9587 17.2046C40.2742 16.9753 40.5091 16.6522 40.6298 16.2813C40.7505 15.9104 40.7507 15.5109 40.6305 15.1399C40.5104 14.7688 40.2759 14.4454 39.9607 14.2157C39.6455 13.986 39.2657 13.862 38.8757 13.8613H31.5274L29.2551 6.87337C29.1335 6.50361 28.8984 6.18166 28.5831 5.95342C28.2678 5.72517 27.8885 5.60229 27.4993 5.60229C27.1101 5.60229 26.7308 5.72517 26.4156 5.95342C26.1003 6.18166 25.8651 6.50361 25.7436 6.87337L23.4713 13.8613H16.123C15.7327 13.8614 15.3526 13.985 15.0369 14.2145C14.7212 14.4439 14.4863 14.7674 14.3658 15.1386C14.2452 15.5097 14.2453 15.9095 14.3659 16.2806C14.4865 16.6518 14.7215 16.9752 15.0372 17.2046L20.9809 21.5237L18.7104 28.5116C18.5897 28.8829 18.5897 29.2828 18.7103 29.654C18.8309 30.0252 19.066 30.3488 19.3818 30.5782C19.6976 30.8076 20.078 30.9311 20.4683 30.9311C20.8587 30.931 21.239 30.8074 21.5547 30.5779L27.4993 26.2596L33.4439 30.5779C33.7584 30.8101 34.1388 30.936 34.5297 30.9373ZM27.4993 24.4096C27.1088 24.4098 26.7284 24.5337 26.4126 24.7636L20.4689 29.0827L22.7394 22.0948C22.8599 21.7236 22.8599 21.3237 22.7392 20.9525C22.6185 20.5814 22.3834 20.2579 22.0676 20.0286L16.123 15.7094H23.4713C23.8612 15.709 24.2411 15.5852 24.5564 15.3559C24.8718 15.1265 25.1065 14.8032 25.227 14.4323L27.4993 7.43244V7.44445L29.7698 14.4323C29.8904 14.8035 30.1254 15.127 30.4411 15.3564C30.7569 15.5858 31.1371 15.7094 31.5274 15.7094H38.8757L32.932 20.0276C32.6158 20.2569 32.3804 20.5805 32.2596 20.9519C32.1387 21.3232 32.1386 21.7234 32.2593 22.0948L34.5297 29.0827L28.586 24.7654C28.2705 24.5349 27.8901 24.4104 27.4993 24.4096Z" fill="#D9D9D9"/>
<path d="M11.8325 10.5031L13.432 11.4272C13.5372 11.4888 13.6535 11.5291 13.7742 11.5456C13.895 11.5621 14.0178 11.5546 14.1356 11.5234C14.2534 11.4923 14.3639 11.4381 14.4607 11.3641C14.5575 11.2901 14.6387 11.1976 14.6997 11.0921C14.7606 10.9865 14.8001 10.87 14.8158 10.7491C14.8315 10.6283 14.8231 10.5055 14.7912 10.3879C14.7593 10.2703 14.7044 10.1602 14.6297 10.0638C14.5551 9.96753 14.4621 9.88694 14.3561 9.8267L12.7565 8.90262C12.5444 8.78202 12.2932 8.75021 12.0577 8.81414C11.8222 8.87808 11.6216 9.03257 11.4995 9.24389C11.3775 9.45522 11.3441 9.70623 11.4064 9.94214C11.4688 10.1781 11.622 10.3797 11.8325 10.5031Z" fill="#D9D9D9"/>
<path d="M41.1054 11.551C41.2676 11.551 41.427 11.5083 41.5675 11.4272L43.1671 10.5031C43.3776 10.3797 43.5307 10.1781 43.5931 9.94214C43.6555 9.70623 43.622 9.45522 43.5 9.24389C43.378 9.03257 43.1773 8.87808 42.9418 8.81414C42.7063 8.75021 42.4551 8.78202 42.243 8.90262L40.6434 9.8267C40.4672 9.92842 40.3296 10.0854 40.2517 10.2734C40.1739 10.4613 40.1602 10.6696 40.2129 10.8661C40.2655 11.0626 40.3815 11.2362 40.5429 11.3601C40.7043 11.4839 40.902 11.551 41.1054 11.551Z" fill="#D9D9D9"/>
</svg>
