<svg width="49" height="49" viewBox="0 0 49 49" fill="none" xmlns="http://www.w3.org/2000/svg">
<path d="M37.9056 8.70025L33.8262 0.515446C33.7356 0.358709 33.6053 0.228573 33.4485 0.1381C33.2916 0.0476268 33.1138 0 32.9327 0C32.7516 0 32.5738 0.0476268 32.4169 0.1381C32.2601 0.228573 32.1298 0.358709 32.0392 0.515446L27.9589 8.70025C27.8965 8.82566 27.8046 8.93406 27.6911 9.01617C27.5775 9.09828 27.4458 9.15165 27.3072 9.17171L18.1855 10.4847C18.0012 10.5076 17.8274 10.583 17.6848 10.702C17.5422 10.8209 17.4368 10.9783 17.3812 11.1555C17.3235 11.3277 17.3164 11.5128 17.3608 11.6888C17.4052 11.8649 17.4992 12.0245 17.6317 12.1487L24.2314 18.5196C24.3333 18.6179 24.4096 18.7397 24.4536 18.8743C24.4975 19.0089 24.5078 19.1523 24.4836 19.2918L22.9236 28.2878C22.8913 28.4661 22.9106 28.6499 22.979 28.8177C23.0475 28.9854 23.1623 29.1302 23.3101 29.235C23.4613 29.3477 23.6413 29.415 23.8293 29.4293C24.0172 29.4436 24.2054 29.4042 24.3718 29.3156L32.5297 25.069C32.6533 25.0046 32.7907 24.9709 32.9301 24.9709C33.0695 24.9709 33.2069 25.0046 33.3305 25.069L41.4884 29.3156C41.6547 29.4048 41.8429 29.4446 42.031 29.4303C42.2191 29.416 42.3992 29.3483 42.5501 29.235C42.6981 29.1301 42.813 28.9852 42.8815 28.8173C42.9499 28.6493 42.9691 28.4654 42.9366 28.2869L41.3801 19.2935C41.3559 19.154 41.3662 19.0107 41.4101 18.876C41.4541 18.7414 41.5304 18.6196 41.6323 18.5213L48.232 12.1504C48.3644 12.0263 48.4585 11.8666 48.5029 11.6906C48.5473 11.5145 48.5402 11.3294 48.4824 11.1572C48.4269 10.9802 48.3216 10.8228 48.1792 10.7039C48.0368 10.585 47.8632 10.5095 47.679 10.4864L38.5574 9.17171C38.4187 9.15165 38.287 9.09828 38.1735 9.01617C38.06 8.93406 37.9681 8.82566 37.9056 8.70025Z" fill="white"/>
<path d="M35.9952 39.7726C36.0754 39.6264 36.1957 39.5062 36.3419 39.426L38.7668 38.1L36.3401 36.7714C36.194 36.6911 36.0737 36.5709 35.9935 36.4247L34.6666 33.9998L33.338 36.4264C33.2578 36.5726 33.1375 36.6929 32.9913 36.7731L30.5664 38.1L32.9931 39.4286C33.1393 39.5088 33.2595 39.629 33.3397 39.7752L34.6666 42.2002L35.9952 39.7726Z" fill="white"/>
<path d="M0.606992 48.5C0.740062 48.4974 0.86876 48.452 0.973987 48.3705C1.07921 48.289 1.15536 48.1758 1.19113 48.0476C4.31113 37.6346 11.8459 29.7904 21.4018 26.9373L22.4973 20.6106C16.7565 23.5258 11.6845 27.6028 7.60359 32.5828C7.45605 32.7546 7.24713 32.8618 7.02154 32.8815C6.79595 32.9012 6.57161 32.8318 6.39652 32.6882C6.22143 32.5446 6.1095 32.3382 6.08469 32.1131C6.05987 31.888 6.12413 31.6622 6.26373 31.4839C10.5884 26.2046 15.9868 21.9058 22.1003 18.873L18.5895 15.48C12.775 18.9076 0.593992 28.3933 0.000325026 47.8595C-0.00232988 47.9415 0.0113012 48.0232 0.0404295 48.0999C0.0695579 48.1766 0.113605 48.2468 0.170023 48.3063C0.226442 48.3659 0.294111 48.4137 0.369115 48.4469C0.44412 48.4802 0.524971 48.4982 0.606992 48.5Z" fill="white"/>
<path d="M11.7296 2.62748L10.401 0.199951L9.07238 2.62662C8.99217 2.77281 8.8719 2.89307 8.72572 2.97328L6.30078 4.30015L8.72745 5.62875C8.87364 5.70897 8.9939 5.82923 9.07411 5.97542L10.401 8.40035L11.7296 5.97368C11.8098 5.8275 11.9301 5.70723 12.0762 5.62702L14.5012 4.30015L12.0745 2.97155C11.9293 2.89178 11.8097 2.77248 11.7296 2.62748Z" fill="white"/>
</svg>
