<svg width="18" height="18" viewBox="0 0 18 18" fill="none" xmlns="http://www.w3.org/2000/svg">
<path d="M5.86399 17.1396C5.79518 17.1396 5.72757 17.1216 5.66786 17.0874C5.60814 17.0532 5.55841 17.0039 5.52357 16.9445C4.04809 14.4275 0.116332 9.07081 0.0767792 9.01698C0.0206023 8.94053 -0.0062193 8.84638 0.00121697 8.75175C0.00865325 8.65713 0.0498507 8.56834 0.117279 8.50162L1.32588 7.30582C1.39154 7.24085 1.47787 7.20098 1.56985 7.19314C1.66182 7.1853 1.75364 7.20998 1.82933 7.2629L5.78169 10.0263C8.40937 6.64632 10.8513 4.31372 12.4563 2.9393C14.2553 1.39853 15.3991 0.706186 15.4469 0.677333C15.5082 0.640457 15.5784 0.620975 15.65 0.620972H17.6052C17.6852 0.620959 17.7634 0.645301 17.8293 0.690772C17.8952 0.736243 17.9457 0.800695 17.9742 0.875581C18.0026 0.950467 18.0077 1.03225 17.9887 1.11009C17.9697 1.18792 17.9275 1.25814 17.8677 1.31142C14.9692 3.8963 11.9556 8.00338 9.93798 10.9935C7.74471 14.2437 6.22214 16.9134 6.20702 16.94C6.17275 17.0002 6.12325 17.0504 6.0635 17.0854C6.00375 17.1205 5.93584 17.1391 5.8666 17.1396L5.86399 17.1396Z" fill="#109C3D"/>
</svg>
