<svg width="30" height="31" viewBox="0 0 30 31" fill="none" xmlns="http://www.w3.org/2000/svg">
<path d="M24.375 11.6763C27.4219 11.6763 30 14.2544 30 17.3013V24.8013C30 27.9067 27.4219 30.4263 24.375 30.4263H5.625C2.51953 30.4263 0 27.9067 0 24.8013V17.3013C0 14.2544 2.51953 11.6763 5.625 11.6763H13.125C13.125 13.1411 13.6523 14.4888 14.5312 15.4263H9.375C6.26953 15.4263 3.75 18.0044 3.75 21.0513C3.75 24.1567 6.26953 26.6763 9.375 26.6763H20.625V26.7349C23.7305 26.7349 26.25 24.2153 26.25 21.1099C26.25 18.6489 24.668 16.5981 22.5586 15.8364C23.6719 14.7817 24.3164 13.3169 24.375 11.6763ZM18.75 15.4263C16.6406 15.4263 15 13.7856 15 11.6763C15 9.62549 16.6406 7.92627 18.75 7.92627C20.8008 7.92627 22.5 9.62549 22.5 11.6763C22.5 13.7856 20.8008 15.4263 18.75 15.4263ZM12.1875 6.05127C10.6055 6.05127 9.375 4.8208 9.375 3.23877C9.375 1.71533 10.6055 0.42627 12.1875 0.42627C13.7109 0.42627 15 1.71533 15 3.23877C15 4.8208 13.7109 6.05127 12.1875 6.05127ZM22.5 4.17627C21.4453 4.17627 20.625 3.35596 20.625 2.30127C20.625 1.30518 21.4453 0.42627 22.5 0.42627C23.4961 0.42627 24.375 1.30518 24.375 2.30127C24.375 3.35596 23.4961 4.17627 22.5 4.17627ZM9.375 17.3013H20.625C22.6758 17.3013 24.375 19.0005 24.375 21.0513C24.375 23.1606 22.6758 24.8013 20.625 24.8013H9.375C7.26562 24.8013 5.625 23.1606 5.625 21.0513C5.625 19.0005 7.26562 17.3013 9.375 17.3013Z" fill="#0AB943"/>
</svg>
