<svg width="30" height="28" viewBox="0 0 30 28" fill="none" xmlns="http://www.w3.org/2000/svg">
<path d="M18.473 25.4707C17.9555 25.4707 17.438 25.4707 16.9205 25.4707C15.672 25.4707 14.4235 25.4707 13.175 25.4707C11.6695 25.4707 10.164 25.4707 8.65858 25.4707C7.3526 25.4707 6.04665 25.4707 4.74067 25.4707C4.11021 25.4707 3.47507 25.4481 2.84491 25.4707C2.83604 25.471 2.82714 25.4707 2.81828 25.4707C3.09496 25.7474 3.37168 26.0241 3.64836 26.3008C3.64836 26.0818 3.64836 25.8628 3.64836 25.6438C3.64836 25.0478 3.64836 24.4518 3.64836 23.8558C3.64836 22.9742 3.64836 22.0926 3.64836 21.211C3.64836 20.1352 3.64836 19.0594 3.64836 17.9836C3.64836 16.7995 3.64836 15.6154 3.64836 14.4313C3.64836 13.2415 3.64836 12.0517 3.64836 10.8619C3.64836 9.75255 3.64836 8.64324 3.64836 7.53389C3.64836 6.59643 3.64836 5.65894 3.64836 4.72148C3.64836 4.04729 3.64836 3.3731 3.64836 2.69891C3.64836 2.3798 3.65639 2.05949 3.64836 1.74044C3.64803 1.72669 3.64836 1.71291 3.64836 1.69917C3.37168 1.97585 3.09496 2.25256 2.81828 2.52925H4.37069H8.11627H12.6327H16.5506C17.181 2.52925 17.8162 2.55182 18.4463 2.52925C18.4552 2.52891 18.4641 2.52925 18.473 2.52925C18.1963 2.25256 17.9196 1.97585 17.6429 1.69917V2.35613V4.14411V6.78894V10.0163V13.5687V17.1381V20.4661V23.2785V25.301C17.6429 25.6204 17.6376 25.9402 17.6429 26.2595C17.6431 26.2733 17.6429 26.287 17.6429 26.3008C17.6429 26.735 18.0247 27.151 18.473 27.1309C18.9227 27.1107 19.303 26.7661 19.303 26.3008C19.303 26.0818 19.303 25.8628 19.303 25.6438C19.303 25.0478 19.303 24.4518 19.303 23.8558C19.303 22.9742 19.303 22.0926 19.303 21.211C19.303 20.1352 19.303 19.0594 19.303 17.9836C19.303 16.7995 19.303 15.6154 19.303 14.4313C19.303 13.2415 19.303 12.0517 19.303 10.8619C19.303 9.75255 19.303 8.64324 19.303 7.53389C19.303 6.59643 19.303 5.65894 19.303 4.72148C19.303 4.04729 19.303 3.3731 19.303 2.69891C19.303 2.3796 19.3083 2.05972 19.303 1.74044C19.3028 1.72669 19.303 1.71291 19.303 1.69917C19.303 1.25043 18.9227 0.86909 18.473 0.86909C17.9555 0.86909 17.438 0.86909 16.9205 0.86909C15.672 0.86909 14.4235 0.86909 13.175 0.86909C11.6695 0.86909 10.164 0.86909 8.65858 0.86909C7.3526 0.86909 6.04665 0.86909 4.74067 0.86909C4.10938 0.86909 3.47607 0.854149 2.84491 0.86909C2.83604 0.869289 2.82714 0.86909 2.81828 0.86909C2.36954 0.86909 1.9882 1.2494 1.9882 1.69917V2.35613V4.14411V6.78894V10.0163V13.5687V17.1381V20.4661V23.2785V25.301C1.9882 25.6204 1.98289 25.9402 1.9882 26.2595C1.98843 26.2733 1.9882 26.287 1.9882 26.3008C1.9882 26.7495 2.36851 27.1309 2.81828 27.1309H4.37069H8.11627H12.6327H16.5506C17.1819 27.1309 17.8152 27.1458 18.4463 27.1309C18.4552 27.1307 18.4641 27.1309 18.473 27.1309C18.9072 27.1309 19.3231 26.7491 19.303 26.3008C19.2829 25.8511 18.9383 25.4707 18.473 25.4707Z" fill="white"/>
<path d="M1.44162 2.52928H3.28439H7.67374H12.9791H17.5925C18.3339 2.52928 19.0771 2.54452 19.8183 2.52928C19.8288 2.52908 19.8393 2.52928 19.8497 2.52928C20.2839 2.52928 20.6999 2.14748 20.6798 1.6992C20.6597 1.24947 20.3151 0.869124 19.8497 0.869124C19.2355 0.869124 18.6212 0.869124 18.007 0.869124C16.5438 0.869124 15.0807 0.869124 13.6176 0.869124C11.8491 0.869124 10.0807 0.869124 8.31224 0.869124C6.77444 0.869124 5.23663 0.869124 3.69883 0.869124C2.95747 0.869124 2.21429 0.853884 1.47303 0.869124C1.46257 0.869323 1.45208 0.869124 1.44162 0.869124C1.00742 0.869124 0.591451 1.25093 0.611539 1.6992C0.631693 2.14894 0.976275 2.52928 1.44162 2.52928Z" fill="white"/>
<path d="M28.5588 13.2819C27.421 13.2819 26.2833 13.2819 25.1455 13.2819C23.3331 13.2819 21.5208 13.2819 19.7084 13.2819C19.294 13.2819 18.8795 13.2819 18.4651 13.2819C18.0309 13.2819 17.6149 13.6637 17.635 14.112C17.6551 14.5618 17.9997 14.9421 18.4651 14.9421H21.8784H27.3154H28.5588C28.993 14.9421 29.409 14.5603 29.3889 14.112C29.3687 13.6623 29.0241 13.2819 28.5588 13.2819Z" fill="white"/>
<path d="M12.911 19.9284V22.0858V25.508V26.3008C13.1877 26.0241 13.4644 25.7474 13.7411 25.4707C13.0464 25.4707 12.3516 25.4707 11.6569 25.4707C10.5428 25.4707 9.42874 25.4707 8.3147 25.4707C8.05974 25.4707 7.80477 25.4707 7.5498 25.4707L8.37988 26.3008C8.37988 25.5816 8.37988 24.8625 8.37988 24.1434C8.37988 23.0027 8.37988 21.8619 8.37988 20.7212C8.37988 20.4569 8.37988 20.1926 8.37988 19.9284C8.1032 20.2051 7.82649 20.4818 7.5498 20.7585H9.63406H12.9762H13.7411C14.1753 20.7585 14.5913 20.3767 14.5712 19.9284C14.551 19.4786 14.2065 19.0983 13.7411 19.0983C13.0464 19.0983 12.3516 19.0983 11.6569 19.0983C10.5428 19.0983 9.42874 19.0983 8.3147 19.0983C8.05974 19.0983 7.80477 19.0983 7.5498 19.0983C7.10106 19.0983 6.71973 19.4786 6.71973 19.9284V22.0858V25.508V26.3008C6.71973 26.7495 7.10004 27.1309 7.5498 27.1309H9.63406H12.9762H13.7411C14.1899 27.1309 14.5712 26.7506 14.5712 26.3008C14.5712 25.5816 14.5712 24.8625 14.5712 24.1434C14.5712 23.0027 14.5712 21.8619 14.5712 20.7212C14.5712 20.4569 14.5712 20.1926 14.5712 19.9284C14.5712 19.4942 14.1894 19.0782 13.7411 19.0983C13.2914 19.1185 12.911 19.463 12.911 19.9284Z" fill="white"/>
<path d="M1.44162 27.1309H2.15499H4.1073H6.98365H10.5083H14.3531H18.2506H21.8694H24.9401H27.1384C27.4858 27.1309 27.8338 27.136 28.1812 27.1309C28.1963 27.1306 28.2115 27.1309 28.2266 27.1309C28.6608 27.1309 29.0767 26.7491 29.0567 26.3008C29.0365 25.8511 28.6919 25.4707 28.2266 25.4707C27.9888 25.4707 27.751 25.4707 27.5132 25.4707C26.8624 25.4707 26.2117 25.4707 25.5609 25.4707C24.6021 25.4707 23.6434 25.4707 22.6845 25.4707C21.5097 25.4707 20.3348 25.4707 19.1599 25.4707C17.8783 25.4707 16.5967 25.4707 15.3151 25.4707C14.0159 25.4707 12.7168 25.4707 11.4176 25.4707C10.2114 25.4707 9.00509 25.4707 7.79882 25.4707C6.77524 25.4707 5.75168 25.4707 4.7281 25.4707C3.99534 25.4707 3.26258 25.4707 2.52982 25.4707C2.18235 25.4707 1.83441 25.4656 1.48697 25.4707C1.47187 25.4709 1.45672 25.4707 1.44162 25.4707C1.00742 25.4707 0.591451 25.8525 0.611539 26.3008C0.631693 26.7505 0.976275 27.1309 1.44162 27.1309Z" fill="white"/>
<path d="M6.47091 6.39214H9.29291H13.7899H14.8209C15.2551 6.39214 15.6711 6.01033 15.651 5.56206C15.6308 5.11232 15.2862 4.73198 14.8209 4.73198C13.8802 4.73198 12.9396 4.73198 11.9989 4.73198C10.4999 4.73198 9.00089 4.73198 7.50187 4.73198C7.15822 4.73198 6.81457 4.73198 6.47091 4.73198C6.03672 4.73198 5.62075 5.11378 5.64084 5.56206C5.66096 6.01179 6.00554 6.39214 6.47091 6.39214Z" fill="white"/>
<path d="M6.47091 16.7741H9.29291H13.7899H14.8209C15.2551 16.7741 15.6711 16.3923 15.651 15.944C15.6308 15.4943 15.2862 15.1139 14.8209 15.1139C13.8802 15.1139 12.9396 15.1139 11.9989 15.1139C10.4999 15.1139 9.00089 15.1139 7.50187 15.1139C7.15822 15.1139 6.81457 15.1139 6.47091 15.1139C6.03672 15.1139 5.62075 15.4957 5.64084 15.944C5.66096 16.3937 6.00554 16.7741 6.47091 16.7741Z" fill="white"/>
<path d="M6.47091 13.3134H9.29291H13.7899H14.8209C15.2551 13.3134 15.6711 12.9316 15.651 12.4833C15.6308 12.0336 15.2862 11.6533 14.8209 11.6533C13.8802 11.6533 12.9396 11.6533 11.9989 11.6533C10.4999 11.6533 9.00089 11.6533 7.50187 11.6533C7.15822 11.6533 6.81457 11.6533 6.47091 11.6533C6.03672 11.6533 5.62075 12.0351 5.64084 12.4833C5.66096 12.9331 6.00554 13.3134 6.47091 13.3134Z" fill="white"/>
<path d="M6.47091 9.85279H9.29291H13.7899H14.8209C15.2551 9.85279 15.6711 9.47099 15.651 9.02271C15.6308 8.57298 15.2862 8.19263 14.8209 8.19263C13.8802 8.19263 12.9396 8.19263 11.9989 8.19263C10.4999 8.19263 9.00089 8.19263 7.50187 8.19263C7.15822 8.19263 6.81457 8.19263 6.47091 8.19263C6.03672 8.19263 5.62075 8.57444 5.64084 9.02271C5.66096 9.47245 6.00554 9.85279 6.47091 9.85279Z" fill="white"/>
<path d="M9.81543 19.9284V22.0858V25.508V26.3008C9.81543 26.735 10.1972 27.151 10.6455 27.1309C11.0952 27.1107 11.4756 26.7661 11.4756 26.3008C11.4756 25.5816 11.4756 24.8625 11.4756 24.1434C11.4756 23.0027 11.4756 21.8619 11.4756 20.7212C11.4756 20.4569 11.4756 20.1926 11.4756 19.9284C11.4756 19.4942 11.0938 19.0782 10.6455 19.0983C10.1958 19.1185 9.81543 19.463 9.81543 19.9284Z" fill="white"/>
<path d="M26.4002 14.112V15.3254V18.2225V21.7438V24.7883C26.4002 25.279 26.3831 25.7731 26.4002 26.2636C26.4005 26.2708 26.4002 26.2781 26.4002 26.2853C26.6769 26.0086 26.9536 25.7319 27.2303 25.4552C26.2378 25.4552 25.2453 25.4552 24.2528 25.4552C22.6845 25.4552 21.1163 25.4552 19.548 25.4552C19.1869 25.4552 18.8258 25.4552 18.4647 25.4552L19.2947 26.2853C19.2947 25.8808 19.2947 25.4764 19.2947 25.0719C19.2947 24.1062 19.2947 23.1405 19.2947 22.1748C19.2947 21.001 19.2947 19.8272 19.2947 18.6535C19.2947 17.6387 19.2947 16.6238 19.2947 15.609C19.2947 15.1183 19.3118 14.6242 19.2947 14.1337C19.2945 14.1265 19.2947 14.1193 19.2947 14.112C19.018 14.3887 18.7413 14.6654 18.4647 14.9421H21.4422H26.1469H27.2303C27.6645 14.9421 28.0804 14.5603 28.0604 14.112C28.0402 13.6623 27.6956 13.2819 27.2303 13.2819C26.2378 13.2819 25.2453 13.2819 24.2528 13.2819C22.6845 13.2819 21.1163 13.2819 19.548 13.2819C19.1869 13.2819 18.8258 13.2819 18.4647 13.2819C18.0159 13.2819 17.6346 13.6623 17.6346 14.112V15.3254V18.2225V21.7438V24.7883C17.6346 25.2796 17.6229 25.7724 17.6346 26.2636C17.6347 26.2708 17.6346 26.2781 17.6346 26.2853C17.6346 26.734 18.0149 27.1154 18.4647 27.1154H21.4422H26.1469H27.2303C27.679 27.1154 28.0604 26.7351 28.0604 26.2853C28.0604 25.8808 28.0604 25.4764 28.0604 25.0719C28.0604 24.1062 28.0604 23.1405 28.0604 22.1748C28.0604 21.001 28.0604 19.8272 28.0604 18.6535C28.0604 17.6387 28.0604 16.6238 28.0604 15.609C28.0604 15.1177 28.072 14.6249 28.0604 14.1337C28.0602 14.1265 28.0604 14.1193 28.0604 14.112C28.0604 13.6778 27.6786 13.2619 27.2303 13.2819C26.7805 13.3021 26.4002 13.6467 26.4002 14.112Z" fill="white"/>
<path d="M23.4207 17.1003C23.4198 18.1357 23.4188 19.1711 23.4178 20.2065C23.4163 21.8557 23.4147 23.5049 23.4132 25.1541C23.4128 25.5311 23.4125 25.9082 23.4121 26.2853L24.2422 25.4552C23.3125 25.4552 22.3828 25.4552 21.4531 25.4552L22.2832 26.2853C22.2842 25.2499 22.2852 24.2145 22.2861 23.1791C22.2877 21.5299 22.2892 19.8807 22.2908 18.2315C22.2911 17.8544 22.2915 17.4774 22.2918 17.1003C22.0152 17.377 21.7384 17.6537 21.4618 17.9304H24.2508C24.685 17.9304 25.101 17.5486 25.0809 17.1003C25.0607 16.6506 24.7162 16.2702 24.2508 16.2702C23.3211 16.2702 22.3914 16.2702 21.4618 16.2702C21.0127 16.2702 20.6321 16.6505 20.6317 17.1003C20.6307 18.1357 20.6297 19.1711 20.6288 20.2065C20.6272 21.8557 20.6257 23.5049 20.6241 25.1541C20.6237 25.5311 20.6234 25.9082 20.623 26.2853C20.6226 26.734 21.0037 27.1154 21.4531 27.1154H24.2422C24.6912 27.1154 25.0718 26.7351 25.0723 26.2853C25.0732 25.2499 25.0742 24.2145 25.0752 23.1791C25.0767 21.5299 25.0783 19.8807 25.0798 18.2315C25.0802 17.8544 25.0805 17.4774 25.0809 17.1003C25.0813 16.6661 24.6988 16.2502 24.2508 16.2702C23.8007 16.2904 23.4212 16.6349 23.4207 17.1003Z" fill="white"/>
</svg>
