<svg width="47" height="48" viewBox="0 0 47 48" fill="none" xmlns="http://www.w3.org/2000/svg">
<path fill-rule="evenodd" clip-rule="evenodd" d="M11.1054 19.7217H12.5761C12.771 19.7217 12.9299 19.8806 12.9299 20.0755V21.4238C12.9299 21.6188 12.7709 21.7778 12.5761 21.7778H11.1054C10.9105 21.7778 10.7516 21.6188 10.7516 21.4238V20.0755C10.7516 19.8806 10.9106 19.7217 11.1054 19.7217ZM14.5283 19.7217H15.999C16.1939 19.7217 16.3528 19.8806 16.3528 20.0755V21.4238C16.3528 21.6188 16.1939 21.7778 15.999 21.7778H14.5283C14.3334 21.7778 14.1745 21.6188 14.1745 21.4238V20.0755C14.1745 19.8806 14.3334 19.7217 14.5283 19.7217ZM11.1054 23.1446H12.5761C12.771 23.1446 12.9299 23.3036 12.9299 23.4985V24.8468C12.9299 25.0418 12.7709 25.2007 12.5761 25.2007H11.1054C10.9105 25.2007 10.7516 25.0418 10.7516 24.8468V23.4985C10.7516 23.3036 10.9106 23.1446 11.1054 23.1446ZM14.5283 23.1446H15.999C16.1939 23.1446 16.3528 23.3036 16.3528 23.4985V24.8468C16.3528 25.0418 16.1939 25.2007 15.999 25.2007H14.5283C14.3334 25.2007 14.1745 25.0418 14.1745 24.8468V23.4985C14.1745 23.3036 14.3334 23.1446 14.5283 23.1446ZM1.42145 16.1013L23.396 4.94716L23.3744 2.792L1.41894 14.3863L1.42145 16.1013ZM23.5588 11.1301V13.0786L39.5552 21.3177V19.4409L23.5588 11.1301ZM31.7821 28.0463H28.7498V31.0786H31.7821V28.0463ZM28.0496 26.6459H32.4823C32.8689 26.6459 33.1824 26.9595 33.1824 27.3461V31.7787C33.1824 32.1654 32.8688 32.4788 32.4823 32.4788H28.0496C27.6629 32.4788 27.3495 32.1653 27.3495 31.7787V27.3461C27.3495 26.9594 27.663 26.6459 28.0496 26.6459ZM23.79 42.4656H2.06175V44.1869H22.9536C23.1184 43.5526 23.4069 42.9689 23.79 42.4656ZM23.5588 41.0653V14.6499L36.975 21.56C36.9738 21.5771 36.9732 21.5943 36.9732 21.6117V38.1878C36.8092 38.2202 36.6487 38.2643 36.4926 38.3194C36.352 38.369 36.2156 38.4274 36.0837 38.494C35.689 38.0309 35.2158 37.6405 34.6851 37.3454C33.9733 36.9494 33.1631 36.7249 32.3054 36.7249C31.0342 36.7249 29.8728 37.2136 28.9852 38.0202C28.2394 38.698 27.6884 39.6025 27.4313 40.6304H27.4242C26.7401 40.6304 26.0896 40.7861 25.5041 41.0653H23.5588ZM10.3517 41.0653H16.7529V29.976H10.3517V41.0653ZM4.94592 41.0653H8.95131V29.2759C8.95131 28.8892 9.26484 28.5758 9.65143 28.5758H17.453C17.8397 28.5758 18.1531 28.8893 18.1531 29.2759V41.0653H22.1585V7.14175L4.94138 15.8811C4.94438 15.9073 4.94592 15.9337 4.94592 15.9607V41.0653ZM22.7993 45.5872C22.8042 45.7344 22.8158 45.8807 22.8337 46.0258C22.8565 46.211 22.8905 46.396 22.935 46.5797C22.9957 46.9046 23.2807 47.1504 23.6231 47.1504H45.1968C45.5102 47.1506 45.7956 46.9377 45.8751 46.6198C45.9245 46.423 45.9619 46.2245 45.9863 46.0258C46.0109 45.8265 46.0234 45.6247 46.0234 45.4218C46.0234 44.1108 45.5062 42.9164 44.6729 42.0483C43.8331 41.1735 42.6731 40.6304 41.3958 40.6304H40.9922C40.7893 39.9979 40.4235 39.4416 39.9467 39.0153C39.5032 38.6187 38.9652 38.3341 38.3734 38.2034V22.2804L39.8911 23.0621C39.9972 23.1269 40.1219 23.1643 40.2553 23.1643C40.642 23.1643 40.9554 22.8508 40.9554 22.4642V19.0163C40.9552 18.7638 40.8175 18.52 40.5779 18.3955L23.5586 9.55322V6.4311L24.4121 5.99792C24.6413 5.88214 24.7972 5.64293 24.795 5.36884L24.7581 1.6733C24.764 1.55268 24.7388 1.42897 24.6784 1.31435C24.4986 0.972986 24.0762 0.841931 23.7348 1.0217L0.395436 13.3469L0.39592 13.3478C0.174402 13.4647 0.0234375 13.6972 0.0234375 13.965L0.0281732 17.2C0.0216978 17.318 0.0450866 17.4392 0.102109 17.5523C0.275786 17.8967 0.695819 18.0351 1.04018 17.8614L3.54559 16.5897V41.0654H1.36153C0.974842 41.0654 0.661412 41.3789 0.661412 41.7655V44.8871C0.661412 45.2738 0.974939 45.5872 1.36153 45.5872H22.7993ZM24.2256 44.9688C24.2249 44.9746 24.2242 44.9803 24.2234 44.9861C24.2059 45.1287 24.1968 45.2742 24.1968 45.4218C24.1968 45.5333 24.2018 45.6428 24.2117 45.7501H44.6083C44.6182 45.6428 44.6232 45.5333 44.6232 45.4218C44.6232 44.4827 44.2567 43.6314 43.6664 43.0164C43.0825 42.4082 42.2787 42.0307 41.3959 42.0307H40.4397V42.0294C40.097 42.0298 39.7974 41.778 39.7478 41.429C39.6677 40.8802 39.4005 40.3974 39.0169 40.0544C38.6466 39.7233 38.1639 39.5232 37.6352 39.5232C37.3957 39.5232 37.1678 39.5635 36.9575 39.6376C36.7357 39.7159 36.5297 39.8317 36.3462 39.9782C36.328 39.9927 36.3088 40.0064 36.2887 40.0192C35.964 40.2276 35.5317 40.1334 35.3233 39.8087C34.9885 39.2884 34.536 38.8596 34.0068 38.5652C33.5022 38.2844 32.9231 38.1252 32.3055 38.1252C31.395 38.1252 30.5627 38.4756 29.9261 39.054C29.2843 39.6373 28.8388 40.4495 28.7068 41.3687C28.6869 41.7377 28.3815 42.0307 28.0076 42.0307H27.4241C26.9219 42.0307 26.4453 42.1529 26.0203 42.3702C26.0014 42.3812 25.9819 42.3914 25.962 42.4007C25.6627 42.5616 25.3901 42.77 25.1536 43.0164C24.6598 43.5309 24.3226 44.2106 24.2256 44.9688Z" fill="#716F87"/>
</svg>
