<svg width="34" height="26" viewBox="0 0 34 26" fill="none" xmlns="http://www.w3.org/2000/svg">
<path fill-rule="evenodd" clip-rule="evenodd" d="M4.65906 9.74819C4.65906 4.45599 8.96323 0.151817 14.2554 0.151817H19.7446C25.0368 0.151817 29.3409 4.45599 29.3409 9.74819V10.5164C31.0748 11.0284 32.3398 12.632 32.3398 14.5314V17.5463C32.3398 18.0964 31.8939 18.5424 31.3438 18.5424H2.65625C2.10612 18.5424 1.66016 18.0964 1.66016 17.5463V14.5314C1.66016 12.632 2.92519 11.0284 4.65906 10.5164V9.74819ZM14.2554 2.144C10.0635 2.144 6.65125 5.55624 6.65125 9.74819V11.3472C6.65125 11.8745 6.24034 12.3105 5.71397 12.3416C4.56431 12.4096 3.65234 13.3646 3.65234 14.5314V16.5502H30.3477V14.5314C30.3477 13.3646 29.4357 12.4096 28.286 12.3416C27.7597 12.3105 27.3487 11.8745 27.3487 11.3472V9.74819C27.3487 5.55624 23.9365 2.144 19.7446 2.144H14.2554ZM14.2554 6.12838C12.2602 6.12838 10.6356 7.75296 10.6356 9.74819V10.3452H23.3644V9.74819C23.3644 7.75296 21.7398 6.12838 19.7446 6.12838H14.2554ZM8.64344 9.74819C8.64344 6.65271 11.16 4.13619 14.2554 4.13619H19.7446C22.84 4.13619 25.3566 6.65271 25.3566 9.74819V11.3413C25.3566 11.8914 24.9106 12.3374 24.3605 12.3374H9.63953C9.0894 12.3374 8.64344 11.8914 8.64344 11.3413V9.74819Z" fill="white"/>
<path fill-rule="evenodd" clip-rule="evenodd" d="M2.65625 16.5502C3.20638 16.5502 3.65234 16.9961 3.65234 17.5463C3.65234 19.8418 3.21355 21.773 2.77398 23.1329C2.68918 23.3952 2.60421 23.6368 2.52213 23.8561H31.4779C31.3958 23.6368 31.3108 23.3952 31.226 23.1329C30.7865 21.773 30.3477 19.8418 30.3477 17.5463C30.3477 16.9961 30.7936 16.5502 31.3438 16.5502C31.8939 16.5502 32.3398 16.9961 32.3398 17.5463C32.3398 19.5902 32.7311 21.312 33.1216 22.5202C33.3166 23.1234 33.5104 23.5956 33.6529 23.9121C33.7241 24.0703 33.7822 24.1893 33.8211 24.266C33.8405 24.3043 33.8551 24.3321 33.8641 24.3488C33.8685 24.3572 33.8716 24.3628 33.8731 24.3657V24.3657C33.8732 24.3659 33.8733 24.366 33.8734 24.3662C33.8734 24.3662 33.8735 24.3663 33.8735 24.3663C33.8735 24.3664 33.8736 24.3665 33.8736 24.3666C33.8737 24.3667 33.8737 24.3667 33.8737 24.3668C33.8738 24.3669 33.8739 24.3671 33.874 24.3673C33.8741 24.3674 33.8742 24.3676 33.8743 24.3678C34.0458 24.6759 34.0416 25.0517 33.8632 25.356C33.6844 25.6609 33.3574 25.8482 33.0039 25.8482H0.996094C0.642602 25.8482 0.315588 25.6609 0.1368 25.356C-0.041612 25.0517 -0.0457509 24.6757 0.125781 24.3676C0.126143 24.367 0.126506 24.3663 0.12687 24.3657L0.996094 24.8522C0.12687 24.3657 0.126728 24.3659 0.126593 24.3662L0.126353 24.3666L0.12687 24.3657C0.128415 24.3628 0.131473 24.3572 0.135943 24.3488C0.144884 24.3321 0.159466 24.3043 0.178893 24.266C0.21776 24.1893 0.275947 24.0703 0.347118 23.9121C0.489555 23.5956 0.683378 23.1234 0.878361 22.5202C1.26888 21.312 1.66016 19.5902 1.66016 17.5463C1.66016 16.9961 2.10612 16.5502 2.65625 16.5502Z" fill="white"/>
<path fill-rule="evenodd" clip-rule="evenodd" d="M14.9727 16.8158C15.5228 16.8158 15.9688 17.2618 15.9688 17.8119V24.7525C15.9688 25.3027 15.5228 25.7486 14.9727 25.7486C14.4225 25.7486 13.9766 25.3027 13.9766 24.7525V17.8119C13.9766 17.2618 14.4225 16.8158 14.9727 16.8158Z" fill="white"/>
<path fill-rule="evenodd" clip-rule="evenodd" d="M10.918 16.8158C11.4681 16.8158 11.9141 17.2618 11.9141 17.8119V24.7525C11.9141 25.3027 11.4681 25.7486 10.918 25.7486C10.3678 25.7486 9.92188 25.3027 9.92188 24.7525V17.8119C9.92188 17.2618 10.3678 16.8158 10.918 16.8158Z" fill="white"/>
<path fill-rule="evenodd" clip-rule="evenodd" d="M6.86328 16.8158C7.41341 16.8158 7.85938 17.2618 7.85938 17.8119V24.7525C7.85938 25.3027 7.41341 25.7486 6.86328 25.7486C6.31315 25.7486 5.86719 25.3027 5.86719 24.7525V17.8119C5.86719 17.2618 6.31315 16.8158 6.86328 16.8158Z" fill="white"/>
<path fill-rule="evenodd" clip-rule="evenodd" d="M19.0273 16.8158C19.5775 16.8158 20.0234 17.2618 20.0234 17.8119V24.7525C20.0234 25.3027 19.5775 25.7486 19.0273 25.7486C18.4772 25.7486 18.0312 25.3027 18.0312 24.7525V17.8119C18.0312 17.2618 18.4772 16.8158 19.0273 16.8158Z" fill="white"/>
<path fill-rule="evenodd" clip-rule="evenodd" d="M23.0825 16.8158C23.6326 16.8158 24.0786 17.2618 24.0786 17.8119V24.7525C24.0786 25.3027 23.6326 25.7486 23.0825 25.7486C22.5324 25.7486 22.0864 25.3027 22.0864 24.7525V17.8119C22.0864 17.2618 22.5324 16.8158 23.0825 16.8158Z" fill="white"/>
<path fill-rule="evenodd" clip-rule="evenodd" d="M27.1372 16.8158C27.6873 16.8158 28.1333 17.2618 28.1333 17.8119V24.7525C28.1333 25.3027 27.6873 25.7486 27.1372 25.7486C26.5871 25.7486 26.1411 25.3027 26.1411 24.7525V17.8119C26.1411 17.2618 26.5871 16.8158 27.1372 16.8158Z" fill="white"/>
</svg>
