<svg width="38" height="38" viewBox="0 0 38 38" fill="none" xmlns="http://www.w3.org/2000/svg">
<path d="M14.9283 18.9998V26.5997C14.7497 31.6878 8.24245 31.6227 8.14263 26.44L8.14259 11.3999H1.35688V26.2881C1.27777 36.4308 12.0603 41.8277 18.5452 34.853C19.5496 33.7935 20.3491 32.5143 20.8942 31.0946C21.4393 29.675 21.7183 28.1451 21.714 26.5997V20.5198C21.7146 20.3184 21.7862 20.1255 21.9134 19.9831C22.0405 19.8407 22.2128 19.7604 22.3926 19.7598H27.8212V12.1599H21.0354C19.4165 12.1626 17.8645 12.8841 16.7197 14.1663C15.5749 15.4484 14.9307 17.1866 14.9283 18.9998ZM5.44188 30.3997C5.26191 30.3997 5.08931 30.3196 4.96206 30.1771C4.83481 30.0345 4.76332 29.8412 4.76333 29.6397C4.76333 29.4381 4.83483 29.2448 4.96209 29.1023C5.08935 28.9598 5.26195 28.8797 5.44192 28.8797C5.62189 28.8797 5.79448 28.9598 5.92173 29.1023C6.04899 29.2448 6.12048 29.4381 6.12047 29.6397C6.12046 29.8413 6.04897 30.0346 5.92171 30.1771C5.79445 30.3196 5.62185 30.3997 5.44188 30.3997ZM6.79902 32.6796C6.61905 32.6796 6.44646 32.5996 6.3192 32.457C6.19195 32.3145 6.12046 32.1212 6.12047 31.9196C6.12048 31.7181 6.19197 31.5248 6.31923 31.3822C6.44649 31.2397 6.61909 31.1597 6.79906 31.1597C6.97903 31.1597 7.15162 31.2397 7.27888 31.3823C7.40613 31.5248 7.47762 31.7181 7.47761 31.9197C7.47761 32.1212 7.40611 32.3145 7.27885 32.4571C7.15159 32.5996 6.97899 32.6797 6.79902 32.6796ZM8.83474 34.1996C8.65477 34.1996 8.48217 34.1195 8.35492 33.977C8.22767 33.8345 8.15618 33.6412 8.15618 33.4396C8.15619 33.2381 8.22769 33.0447 8.35495 32.9022C8.48221 32.7597 8.65481 32.6796 8.83478 32.6796C9.01474 32.6797 9.18734 32.7597 9.31459 32.9023C9.44184 33.0448 9.51333 33.2381 9.51333 33.4397C9.51332 33.6412 9.44182 33.8345 9.31456 33.977C9.1873 34.1196 9.0147 34.1996 8.83474 34.1996ZM11.549 34.9596C11.4599 34.9596 11.3717 34.94 11.2893 34.9018C11.207 34.8636 11.1322 34.8076 11.0692 34.737C11.0062 34.6664 10.9562 34.5826 10.9221 34.4904C10.888 34.3982 10.8705 34.2994 10.8705 34.1996C10.8705 34.0998 10.888 34.001 10.9221 33.9088C10.9562 33.8166 11.0062 33.7328 11.0692 33.6622C11.1322 33.5916 11.2071 33.5357 11.2894 33.4975C11.3717 33.4593 11.4599 33.4396 11.5491 33.4396C11.729 33.4396 11.9016 33.5197 12.0289 33.6622C12.1561 33.8048 12.2276 33.9981 12.2276 34.1996C12.2276 34.4012 12.1561 34.5945 12.0288 34.737C11.9016 34.8796 11.729 34.9596 11.549 34.9596ZM14.2633 34.1996C14.0833 34.1996 13.9107 34.1195 13.7835 33.977C13.6562 33.8345 13.5848 33.6412 13.5848 33.4396C13.5848 33.2381 13.6563 33.0447 13.7835 32.9022C13.9108 32.7597 14.0834 32.6796 14.2633 32.6796C14.4433 32.6797 14.6159 32.7597 14.7432 32.9023C14.8704 33.0448 14.9419 33.2381 14.9419 33.4397C14.9419 33.6412 14.8704 33.8345 14.7431 33.977C14.6159 34.1196 14.4433 34.1996 14.2633 34.1996ZM16.299 32.6796C16.1191 32.6796 15.9465 32.5996 15.8192 32.457C15.692 32.3145 15.6205 32.1212 15.6205 31.9196C15.6205 31.7181 15.692 31.5248 15.8192 31.3822C15.9465 31.2397 16.1191 31.1597 16.2991 31.1597C16.479 31.1597 16.6516 31.2397 16.7789 31.3823C16.9061 31.5248 16.9776 31.7181 16.9776 31.9197C16.9776 32.1212 16.9061 32.3145 16.7788 32.4571C16.6516 32.5996 16.479 32.6797 16.299 32.6796ZM17.6562 30.3997C17.4762 30.3997 17.3036 30.3196 17.1763 30.1771C17.0491 30.0345 16.9776 29.8412 16.9776 29.6397C16.9776 29.4381 17.0491 29.2448 17.1764 29.1023C17.3036 28.9598 17.4762 28.8797 17.6562 28.8797C17.8362 28.8797 18.0088 28.9598 18.136 29.1023C18.2633 29.2448 18.3348 29.4381 18.3348 29.6397C18.3347 29.8413 18.2633 30.0346 18.136 30.1771C18.0087 30.3196 17.8361 30.3997 17.6562 30.3997Z" fill="white"/>
<path d="M31.893 10.6401H30.5359C29.7863 10.6401 29.1787 11.3207 29.1787 12.1601V19.76C29.1787 20.5995 29.7863 21.28 30.5359 21.28H31.893C32.6425 21.28 33.2501 20.5995 33.2501 19.76V12.1601C33.2501 11.3207 32.6425 10.6401 31.893 10.6401Z" fill="white"/>
<path d="M36.6431 12.1599H34.6074V19.7598H36.6431C37.0027 19.7586 37.3473 19.5981 37.6016 19.3133C37.8559 19.0285 37.9992 18.6426 38.0003 18.2398V13.6799C37.9992 13.2771 37.8559 12.8912 37.6016 12.6064C37.3473 12.3216 37.0027 12.1611 36.6431 12.1599Z" fill="white"/>
<path d="M8.14286 5.32019H1.35714C0.607614 5.32019 0 6.00071 0 6.84017V8.36015C0 9.19962 0.607614 9.88014 1.35714 9.88014H8.14286C8.89239 9.88014 9.5 9.19962 9.5 8.36015V6.84017C9.5 6.00071 8.89239 5.32019 8.14286 5.32019Z" fill="white"/>
<path d="M8.14314 1.51998C8.14209 1.11722 7.99876 0.73129 7.74448 0.446493C7.49019 0.161695 7.14561 0.00117693 6.78599 0H2.71456C2.35495 0.00117693 2.01037 0.161695 1.75608 0.446493C1.50179 0.73129 1.35847 1.11722 1.35742 1.51998V3.79995H8.14314V1.51998Z" fill="white"/>
</svg>
