<svg width="38" height="38" viewBox="0 0 38 38" fill="none" xmlns="http://www.w3.org/2000/svg">
<path d="M29.6629 25.0382C28.1705 26.3089 26.0606 26.5661 24.2911 25.6557L21.7694 24.3573C20.1899 23.5457 18.2819 23.8466 17.027 25.1015L4.98096 37.1476C3.83892 38.2898 1.98974 38.2854 0.852077 37.1476C-0.284026 36.0075 -0.284026 34.1589 0.852077 33.0188L12.8982 20.9727C14.157 19.7139 14.4539 17.8098 13.6424 16.2303L12.344 13.7087C11.4335 11.9391 11.6908 9.82536 12.9615 8.33691L29.6629 25.0382Z" fill="white"/>
<path d="M6.74521 2.1217L12.4021 7.77861C11.5589 8.74061 11.0878 9.9321 11.0206 11.1593L5.76746 5.90619C4.99158 5.13431 4.99158 3.87549 5.76746 3.10346L6.74521 2.1217Z" fill="white"/>
<path d="M35.8774 31.2532L34.8956 32.2309C34.1274 33.0075 32.8614 33.0077 32.093 32.2309L26.8398 26.9778C28.0947 26.9106 29.2783 26.4276 30.2245 25.6002L35.8774 31.2532Z" fill="white"/>
<path d="M36.4376 30.692L37.4179 29.7134C38.1937 28.9375 38.1937 27.6786 37.4179 26.9067L11.0931 0.581916C10.3211 -0.193972 9.06229 -0.193972 8.2864 0.581916L7.30762 1.56219L36.4376 30.692Z" fill="white"/>
</svg>
