<svg width="32" height="30" viewBox="0 0 32 30" fill="none" xmlns="http://www.w3.org/2000/svg">
<path d="M30.7692 27.0732H1.23077C0.904349 27.0732 0.591298 27.2029 0.360484 27.4337C0.12967 27.6645 0 27.9776 0 28.304C0 28.6304 0.12967 28.9435 0.360484 29.1743C0.591298 29.4051 0.904349 29.5348 1.23077 29.5348H30.7692C31.0957 29.5348 31.4087 29.4051 31.6395 29.1743C31.8703 28.9435 32 28.6304 32 28.304C32 27.9776 31.8703 27.6645 31.6395 27.4337C31.4087 27.2029 31.0957 27.0732 30.7692 27.0732Z" fill="white"/>
<path d="M2.46191 13.5347H7.38499V24.6116H2.46191V13.5347Z" fill="white"/>
<path d="M24.6152 13.5347H29.5383V24.6116H24.6152V13.5347Z" fill="white"/>
<path d="M22.1534 24.6116V13.5347H9.8457V24.6116H13.538V18.4577C13.538 18.1313 13.6677 17.8183 13.8985 17.5875C14.1293 17.3566 14.4424 17.227 14.7688 17.227H17.2303C17.5567 17.227 17.8698 17.3566 18.1006 17.5875C18.3314 17.8183 18.4611 18.1313 18.4611 18.4577V24.6116H22.1534Z" fill="white"/>
<path d="M31.3231 7.51627L16.5538 0.131658C16.3821 0.0450922 16.1924 0 16 0C15.8076 0 15.6179 0.0450922 15.4462 0.131658L0.676923 7.51627C0.473951 7.61855 0.303265 7.77503 0.183782 7.96838C0.0643 8.16172 0.000688868 8.38437 0 8.61166V9.84243C0 10.1688 0.12967 10.4819 0.360484 10.7127C0.591298 10.9435 0.904349 11.0732 1.23077 11.0732H30.7692C31.0957 11.0732 31.4087 10.9435 31.6395 10.7127C31.8703 10.4819 32 10.1688 32 9.84243V8.61166C31.9993 8.38437 31.9357 8.16172 31.8162 7.96838C31.6967 7.77503 31.5261 7.61855 31.3231 7.51627ZM16 7.38089C15.6736 7.38089 15.3605 7.25122 15.1297 7.0204C14.8989 6.78959 14.7692 6.47654 14.7692 6.15012C14.7692 5.8237 14.8989 5.51065 15.1297 5.27983C15.3605 5.04902 15.6736 4.91935 16 4.91935C16.3264 4.91935 16.6395 5.04902 16.8703 5.27983C17.1011 5.51065 17.2308 5.8237 17.2308 6.15012C17.2308 6.47654 17.1011 6.78959 16.8703 7.0204C16.6395 7.25122 16.3264 7.38089 16 7.38089Z" fill="white"/>
</svg>
