<svg width="38" height="38" viewBox="0 0 38 38" fill="none" xmlns="http://www.w3.org/2000/svg">
<path d="M37.2781 0.720974C37.0496 0.492403 36.7784 0.311085 36.4798 0.187378C36.1812 0.0636719 35.8612 0 35.538 0C35.2148 0 34.8948 0.0636719 34.5962 0.187378C34.2976 0.311085 34.0264 0.492403 33.7979 0.720974L21.3057 13.2132C22.0353 13.6013 22.704 14.0945 23.2902 14.6771L23.3239 14.7108C23.9052 15.2984 24.3965 15.9687 24.7816 16.7001L37.2781 4.20312C37.507 3.9746 37.6885 3.7032 37.8124 3.40445C37.9363 3.1057 38 2.78546 38 2.46205C38 2.13863 37.9363 1.81839 37.8124 1.51964C37.6885 1.22089 37.507 0.949494 37.2781 0.720974Z" fill="white"/>
<path d="M24.0905 23.8121C24.745 22.4281 24.9576 20.8762 24.6995 19.3672C24.4414 17.8581 23.7252 16.4651 22.648 15.3772L22.6347 15.3639C22.6305 15.3593 22.626 15.3548 22.6214 15.3506C21.5335 14.2734 20.1405 13.5572 18.6315 13.2991C17.1224 13.041 15.5705 13.2537 14.1865 13.9081L24.0905 23.8121Z" fill="white"/>
<path d="M13.3244 14.3893C13.1835 14.4811 13.0445 14.5783 12.9074 14.6809C9.28081 17.4031 5.03488 19.2627 0 20.025C1.12283 21.8306 2.34562 23.5721 3.66264 25.2414L8.24106 23.881L6.29123 28.3321C6.8248 28.9148 7.3704 29.4847 7.92804 30.0421L7.95464 30.0687C7.99834 30.1119 8.04204 30.1556 8.08669 30.1988L10.3733 29.1063L11.0007 32.8887C11.4301 33.2573 11.8655 33.6197 12.307 33.9759L15.5796 32.5581C15.5796 32.5581 15.525 34.5811 15.4718 36.348C16.2878 36.918 17.1227 37.4684 17.9764 37.9991C18.7364 32.9642 20.5984 28.7183 23.3205 25.0917C23.4231 24.9549 23.5203 24.8159 23.6122 24.6747L13.3244 14.3893Z" fill="white"/>
<path d="M8.01932 5.84985L9.27424 8.14453L11.5684 9.39945L9.27424 10.6544L8.01932 12.9486L6.7644 10.6544L4.46973 9.39945L6.7644 8.14453L8.01932 5.84985Z" fill="white"/>
<path d="M18.6092 2.30078L19.8641 4.59498L22.1583 5.8499L19.8641 7.10482L18.6092 9.39949L17.3542 7.10482L15.0596 5.8499L17.3542 4.59498L18.6092 2.30078Z" fill="white"/>
<path d="M32.1746 15.6466L33.4295 17.9413L35.7242 19.1962L33.4295 20.4511L32.1746 22.7453L30.9197 20.4511L28.625 19.1962L30.9197 17.9413L32.1746 15.6466Z" fill="white"/>
<path d="M27.3401 25.8308L28.5951 28.125L30.8897 29.3799L28.5951 30.6349L27.3401 32.9295L26.0852 30.6349L23.791 29.3799L26.0852 28.125L27.3401 25.8308Z" fill="white"/>
</svg>
