<svg width="34" height="34" viewBox="0 0 34 34" fill="none" xmlns="http://www.w3.org/2000/svg">
<g clip-path="url(#clip0_450_838)">
<path d="M32.2909 5.94074L29.4736 3.1121C29.0848 2.72169 28.4531 2.72123 28.0637 3.11083L27.3593 3.8156L23.8375 0.291955C23.4486 -0.0973184 22.8179 -0.0973184 22.4289 0.291955L11.1206 11.6063C10.7316 11.9955 10.7316 12.6265 11.1206 13.0157L14.6423 16.5392L2.29269 28.8953C1.12765 30.0611 1.12772 31.9579 2.29275 33.1236C3.46024 34.2917 5.35069 34.2924 6.51858 33.1239L18.0638 21.5821C25.4226 20.0606 31.1582 14.2507 32.5639 6.82978C32.6253 6.50645 32.5231 6.17382 32.2909 5.94074ZM23.1332 2.40613L25.9506 5.22501L24.495 6.68143L21.6775 3.86255L23.1332 2.40613ZM18.8683 12.311L16.0509 9.49208L17.4514 8.09084L20.2689 10.9097L18.8683 12.311ZM21.6775 9.50031L18.8601 6.68143L20.2689 5.27196L23.0863 8.09084L21.6775 9.50031ZM13.2336 12.311L14.6423 10.9015L17.4597 13.7204L16.051 15.1298L13.2336 12.311ZM17.3882 19.6842C17.1917 19.7214 17.011 19.8169 16.8695 19.9583L5.11017 31.7142C4.72169 32.1029 4.08984 32.1027 3.70149 31.7142C3.31308 31.3256 3.31308 30.6933 3.70143 30.3047C4.18148 29.8244 25.5331 8.46158 28.7667 5.2262L30.5019 6.96837C29.0717 13.4217 23.9355 18.4425 17.3882 19.6842Z" fill="white"/>
<path d="M9.53857 4.05301H10.5347V5.04963C10.5347 5.60007 10.9807 6.04626 11.5308 6.04626C12.0809 6.04626 12.5269 5.60007 12.5269 5.04963V4.05301H13.5229C14.0731 4.05301 14.519 3.60682 14.519 3.05638C14.519 2.50594 14.0731 2.05976 13.5229 2.05976H12.5269V1.06313C12.5269 0.512689 12.0809 0.0665054 11.5308 0.0665054C10.9807 0.0665054 10.5347 0.512689 10.5347 1.06313V2.05976H9.53857C8.98846 2.05976 8.54248 2.50594 8.54248 3.05638C8.54248 3.60682 8.98846 4.05301 9.53857 4.05301Z" fill="white"/>
<path d="M2.63232 12.0259H3.62842V13.0226C3.62842 13.573 4.0744 14.0192 4.62451 14.0192C5.17462 14.0192 5.62061 13.573 5.62061 13.0226V12.0259H6.6167C7.16681 12.0259 7.61279 11.5798 7.61279 11.0293C7.61279 10.4789 7.16681 10.0327 6.6167 10.0327H5.62061V9.03607C5.62061 8.48563 5.17462 8.03944 4.62451 8.03944C4.0744 8.03944 3.62842 8.48563 3.62842 9.03607V10.0327H2.63232C2.08221 10.0327 1.63623 10.4789 1.63623 11.0293C1.63623 11.5798 2.08221 12.0259 2.63232 12.0259Z" fill="white"/>
</g>
<defs>
<clipPath id="clip0_450_838">
<rect width="34" height="34" fill="white"/>
</clipPath>
</defs>
</svg>
