<svg width="47" height="47" viewBox="0 0 47 47" fill="none" xmlns="http://www.w3.org/2000/svg">
<path d="M44.85 0.25H17.65C16.8782 0.25 16.25 0.87816 16.25 1.65V3.25C16.25 4.02184 16.8782 4.65 17.65 4.65H17.85V14.8294L16.5594 13.8734C15.7758 13.2938 14.7242 13.2938 13.9406 13.8734L1.14024 23.3547C0.5828 23.7688 0.25 24.4298 0.25 25.1227V44.0501C0.25 45.2634 1.23672 46.2501 2.45 46.2501H43.25C44.0218 46.2501 44.65 45.6219 44.65 44.8501V4.65H44.85C45.6218 4.65 46.25 4.02184 46.25 3.25V1.65C46.25 0.87816 45.6218 0.25 44.85 0.25ZM9.45 45.05V30.25H21.05V45.05H9.45ZM22.25 45.05V29.65C22.25 29.3187 21.9813 29.05 21.65 29.05H8.85C8.51872 29.05 8.25 29.3187 8.25 29.65V45.05H2.45C1.8984 45.05 1.45 44.6016 1.45 44.05V25.1226C1.45 24.8078 1.6016 24.507 1.85472 24.3187L14.6547 14.8374C15.011 14.5734 15.4891 14.5734 15.8454 14.8374L28.645 24.3187C28.8985 24.507 29.05 24.8078 29.05 25.1226V44.05C29.05 44.6016 28.6016 45.05 28.05 45.05H22.25ZM24.65 19.8663V17.65C24.65 17.5414 24.7414 17.45 24.85 17.45H28.05C28.1586 17.45 28.25 17.5414 28.25 17.65V20.05C28.25 20.1586 28.1586 20.25 28.05 20.25H25.168L24.65 19.8663ZM29.9984 45.05C30.1538 44.7486 30.25 44.4119 30.25 44.05V35.05H36.25V45.05H29.9984ZM43.45 44.85C43.45 44.9586 43.3586 45.05 43.25 45.05H37.45V34.45C37.45 34.1187 37.1813 33.85 36.85 33.85H30.25V25.1226C30.25 24.4297 29.9172 23.7687 29.3594 23.3546L26.788 21.4499H28.05C28.8218 21.4499 29.45 20.8218 29.45 20.0499V17.6499C29.45 16.8781 28.8218 16.2499 28.05 16.2499H24.85C24.0782 16.2499 23.45 16.8781 23.45 17.6499V18.9774L19.05 15.7182V4.64992H43.45V44.85ZM45.05 3.25C45.05 3.36016 44.9602 3.45 44.85 3.45H17.65C17.5398 3.45 17.45 3.36016 17.45 3.25V1.65C17.45 1.53984 17.5398 1.45 17.65 1.45H44.85C44.9602 1.45 45.05 1.53984 45.05 1.65V3.25Z" fill="#716F87"/>
</svg>
