<svg width="44" height="44" viewBox="0 0 44 44" fill="none" xmlns="http://www.w3.org/2000/svg">
<path d="M41.2971 30.7469V21.3808V20.8776V16.5508C41.2971 16.1695 40.9879 15.8608 40.6071 15.8608H40.2216V10.9586C40.2216 5.24863 35.576 0.603546 29.8665 0.603546C25.5692 0.603546 21.6914 3.29133 20.178 7.30391L9.69965 36.4881C8.95629 37.0622 8.44017 37.9123 8.30401 38.8852H4.44277C2.33551 38.8852 0.621094 40.5996 0.621094 42.7069C0.621094 43.0878 0.929754 43.3969 1.31109 43.3969H19.4811C19.8624 43.3969 20.1711 43.0878 20.1711 42.7069V40.4952C20.1711 39.6074 19.4489 38.8852 18.5611 38.8852H15.5748C15.4846 38.2403 15.2275 37.6492 14.8471 37.1565L24.8916 9.14713C25.6497 7.06379 27.6493 5.66401 29.8665 5.66401C32.7861 5.66401 35.1616 8.03945 35.1616 10.9591V15.8613H34.7756C34.3948 15.8613 34.0856 16.1699 34.0856 16.5513V19.4231C26.8319 20.4645 21.2378 26.7173 21.2378 34.2544V41.774C21.2378 42.6618 21.96 43.384 22.8478 43.384H35.904C40.0256 43.384 43.379 40.0311 43.379 35.9095C43.379 33.9071 42.5832 32.0901 41.2971 30.7469ZM38.5785 8.83939L36.324 9.29755C36.203 8.82743 36.0337 8.37709 35.8185 7.95297L37.5931 6.41473C38.0338 7.16131 38.3678 7.97505 38.5785 8.83939ZM36.5269 10.6642L38.8034 10.2014C38.8246 10.4517 38.8416 10.7028 38.8416 10.9586V12.506H36.5416V10.9586C36.5416 10.8592 36.531 10.7626 36.5269 10.6642ZM36.8038 5.27255L35.0641 6.78043C34.7927 6.44325 34.49 6.13321 34.1592 5.85445L35.0857 3.67175C35.7246 4.13083 36.3056 4.66535 36.8038 5.27255ZM31.6145 4.52367L31.8464 2.21079C32.5658 2.37363 33.2507 2.62433 33.8938 2.94909L32.9954 5.06601C32.5612 4.83509 32.098 4.65523 31.6145 4.52367ZM26.2923 5.33189L24.6239 3.68601C25.3084 3.19243 26.0623 2.79775 26.8623 2.51163L27.5164 4.71825C27.0867 4.88109 26.6773 5.08717 26.2923 5.33189ZM23.5654 4.58071L25.2012 6.19439C24.835 6.55181 24.5094 6.95293 24.2311 7.39039L22.1992 6.30801C22.5852 5.67413 23.0443 5.09453 23.5654 4.58071ZM18.7911 40.4947V42.0164H2.10045C2.39899 41.0053 3.33601 40.2647 4.44277 40.2647H18.5611C18.6881 40.2647 18.7911 40.3682 18.7911 40.4947ZM9.70149 38.8847C9.93425 37.864 10.8497 37.0999 11.9394 37.0999C13.0291 37.0999 13.9445 37.864 14.1773 38.8847H9.70149ZM13.7279 36.1873C13.198 35.8906 12.5885 35.7199 11.9394 35.7199C11.7651 35.7199 11.5949 35.7365 11.4265 35.76L21.5755 7.53943L23.6147 8.62549C23.6087 8.64343 13.7279 36.1873 13.7279 36.1873ZM28.8499 4.36267L28.194 2.14869C28.7395 2.04427 29.298 1.98355 29.8665 1.98355C30.0731 1.98355 30.2759 2.00057 30.4792 2.01437L30.2502 4.30287C30.1227 4.29551 29.9962 4.28355 29.867 4.28355C29.5229 4.28355 29.1834 4.31115 28.8499 4.36267ZM36.5416 13.886H38.8416V15.8608H36.5416V13.886ZM35.4656 17.2408H39.9171V19.2676H36.2246C35.9703 19.2676 35.7173 19.274 35.4661 19.2869L35.4656 17.2408ZM22.6183 41.7735V34.9444H23.6988V42.004H22.8483C22.7213 42.0035 22.6183 41.9005 22.6183 41.7735ZM25.0784 42.0035V34.2544C25.0784 33.8735 24.7693 33.5644 24.3884 33.5644H22.6353C22.996 26.3815 28.953 20.648 36.2242 20.648H39.6866C39.8131 20.648 39.9166 20.7511 39.9166 20.878V29.6134C38.7556 28.871 37.3811 28.4345 35.9036 28.4345C31.782 28.4345 28.429 31.7879 28.429 35.9095C28.429 38.4247 29.6816 40.6484 31.5915 42.004L25.0784 42.0035ZM35.904 42.0035C32.5433 42.0035 29.8095 39.2698 29.8095 35.909C29.8095 32.5482 32.5433 29.814 35.904 29.814C39.2648 29.814 41.999 32.5482 41.999 35.909C41.999 39.2698 39.2648 42.0035 35.904 42.0035Z" fill="#716F87"/>
</svg>
