<svg width="34" height="34" viewBox="0 0 34 34" fill="none" xmlns="http://www.w3.org/2000/svg">
<g clip-path="url(#clip0_450_864)">
<path d="M6.05127 28.9488C6.05127 29.499 5.6053 29.9449 5.05518 29.9449C4.50505 29.9449 4.05908 29.499 4.05908 28.9488C4.05908 28.3987 4.50505 27.9527 5.05518 27.9527C5.6053 27.9527 6.05127 28.3987 6.05127 28.9488Z" fill="white"/>
<path fill-rule="evenodd" clip-rule="evenodd" d="M13.3876 9.75397C13.6517 9.75397 13.9051 9.85892 14.0919 10.0457L23.9582 19.912C24.3472 20.301 24.3472 20.9317 23.9582 21.3207L21.0515 24.2274C20.8647 24.4142 20.6114 24.5191 20.3472 24.5191C20.083 24.5191 19.8297 24.4142 19.6429 24.2274L18.0431 22.6277C15.9521 23.9731 11.7946 27.036 9.31211 31.4322C7.74208 34.2126 3.94689 34.8986 1.57352 32.6845C1.52645 32.6413 1.4827 32.5987 1.44333 32.5592C1.40447 32.5203 1.36239 32.4771 1.3197 32.4307C-0.894579 30.0574 -0.208865 26.2618 2.5725 24.6922C6.96909 22.2092 10.0318 18.0517 11.3764 15.961L9.77655 14.3611C9.58975 14.1743 9.4848 13.9209 9.4848 13.6567C9.4848 13.3926 9.58975 13.1392 9.77655 12.9524L12.6832 10.0457C12.87 9.85892 13.1234 9.75397 13.3876 9.75397ZM11.8896 13.6567L13.3444 15.1116C13.6679 15.435 13.7295 15.9372 13.4937 16.3293C12.4117 18.1287 8.94108 23.3836 3.55187 26.427L3.55161 26.4272C1.84626 27.3895 1.47719 29.6817 2.77822 31.0737C2.78037 31.076 2.78251 31.0783 2.78465 31.0806C2.80363 31.1013 2.82599 31.1245 2.85272 31.1512L2.85342 31.1519C2.8797 31.1783 2.9024 31.2001 2.92255 31.2186C2.92514 31.221 2.92772 31.2233 2.93028 31.2257C4.32225 32.5268 6.61454 32.1578 7.57738 30.4526L8.44475 30.9424L7.57739 30.4526C10.6203 25.0639 15.8753 21.5932 17.6744 20.5104C18.0664 20.2744 18.5688 20.3359 18.8924 20.6595L20.3472 22.1144L21.8452 20.6164L13.3876 12.1588L11.8896 13.6567Z" fill="white"/>
<path fill-rule="evenodd" clip-rule="evenodd" d="M19.1651 0.000381551L19.1361 0.996053C19.1651 0.000381574 19.1655 0.000394217 19.166 0.000407643L19.167 0.000437914L19.1693 0.000512074L19.1754 0.000719479C19.18 0.000886037 19.1859 0.00111187 19.193 0.00141282C19.2071 0.00201477 19.226 0.00291741 19.2495 0.00424835C19.2965 0.00690979 19.362 0.0112858 19.4445 0.0183983C19.6096 0.0326192 19.8432 0.0578079 20.1341 0.102189C20.7155 0.190885 21.5288 0.356671 22.4833 0.666233C24.3927 1.28549 26.8769 2.48374 29.1903 4.79711C31.5037 7.11047 32.7019 9.59475 33.3212 11.5041C33.6307 12.4586 33.7965 13.2719 33.8852 13.8533C33.9296 14.1443 33.9548 14.3778 33.969 14.5429C33.9761 14.6254 33.9805 14.6909 33.9832 14.7379C33.9845 14.7614 33.9854 14.7803 33.986 14.7945C33.9863 14.8015 33.9865 14.8074 33.9867 14.812L33.9869 14.8181L33.987 14.8204L33.987 14.8214C33.987 14.8219 33.987 14.8223 32.9914 14.8513L33.987 14.8223C34.0009 15.2982 33.6761 15.7173 33.2119 15.8227C33.2117 15.8227 33.2115 15.8228 33.2113 15.8228L33.2104 15.823C33.2094 15.8233 33.2081 15.8236 33.2066 15.8239C33.2002 15.8255 33.1889 15.8282 33.1731 15.8321C33.1414 15.84 33.0913 15.8528 33.024 15.8712C32.8895 15.9079 32.6867 15.9666 32.4266 16.0517C31.9062 16.2218 31.1581 16.4968 30.2691 16.9109C28.4892 17.74 26.1589 19.12 23.9583 21.3206C23.5693 21.7096 22.9386 21.7096 22.5496 21.3206C22.1606 20.9316 22.1606 20.3009 22.5496 19.9119C24.9512 17.5103 27.4896 16.0078 29.4279 15.105C30.398 14.6531 31.2213 14.3498 31.8075 14.1581C31.843 14.1465 31.8776 14.1353 31.9113 14.1245C31.8353 13.6355 31.6926 12.9402 31.4262 12.1187C30.8827 10.4431 29.8283 8.25247 27.7816 6.2058C25.7349 4.15913 23.5443 3.10468 21.8687 2.56124C21.0472 2.29481 20.3519 2.15208 19.8629 2.07609C19.8521 2.10981 19.8409 2.14442 19.8293 2.17989C19.6376 2.76611 19.3343 3.58943 18.8824 4.55952C17.9796 6.49776 16.4771 9.03617 14.0754 11.4378C13.6864 11.8268 13.0557 11.8268 12.6667 11.4378C12.2777 11.0488 12.2778 10.4181 12.6668 10.0291C14.8674 7.82855 16.2474 5.49825 17.0765 3.71834C17.4906 2.82935 17.7656 2.08123 17.9357 1.56079C18.0208 1.30071 18.0795 1.09794 18.1162 0.963395C18.1346 0.89614 18.1474 0.845984 18.1553 0.814297C18.1592 0.798455 18.1619 0.787235 18.1635 0.780807C18.1642 0.777594 18.1647 0.77558 18.1649 0.774785L18.1648 0.774939C18.1649 0.774802 18.1649 0.774665 18.1649 0.774529C18.165 0.774362 18.165 0.774355 18.1649 0.774512L18.1649 0.774785C18.1649 0.774677 18.1649 0.774592 18.1649 0.774529C18.2707 0.310855 18.6896 -0.0134715 19.1651 0.000381551ZM18.1648 0.774939L18.1648 0.775067L18.1647 0.775419C18.1648 0.775259 18.1648 0.775099 18.1648 0.774939Z" fill="white"/>
<path fill-rule="evenodd" clip-rule="evenodd" d="M24.8588 1.65456C25.3213 1.95232 25.455 2.5687 25.1572 3.03127C24.2173 4.49144 22.9962 6.19964 21.4658 7.9905C21.1084 8.40872 20.4796 8.45801 20.0614 8.10061C19.6432 7.74321 19.5939 7.11445 19.9513 6.69623C21.4157 4.98257 22.584 3.34815 23.4821 1.95298C23.7798 1.4904 24.3962 1.35679 24.8588 1.65456Z" fill="white"/>
<path fill-rule="evenodd" clip-rule="evenodd" d="M32.333 9.12865C32.6307 9.59124 32.4971 10.2076 32.0345 10.5054C30.6393 11.4034 29.0049 12.5717 27.2912 14.0361C26.873 14.3935 26.2442 14.3442 25.8868 13.926C25.5294 13.5078 25.5787 12.879 25.9969 12.5216C27.7878 10.9912 29.496 9.77013 30.9562 8.8302C31.4188 8.53245 32.0352 8.66607 32.333 9.12865Z" fill="white"/>
<path fill-rule="evenodd" clip-rule="evenodd" d="M29.1903 4.79718C29.5793 5.18618 29.5793 5.81687 29.1903 6.20587L24.4426 10.9535C24.0536 11.3424 23.4229 11.3424 23.0339 10.9534C22.6449 10.5644 22.6449 9.93375 23.0339 9.54475L27.7816 4.79717C28.1706 4.40817 28.8013 4.40818 29.1903 4.79718Z" fill="white"/>
<path fill-rule="evenodd" clip-rule="evenodd" d="M31.0035 20.0398L30.2768 20.7211L29.5502 20.0398C29.7385 19.839 30.0015 19.725 30.2768 19.725C30.5521 19.725 30.8152 19.839 31.0035 20.0398ZM33.994 26.5693C33.966 27.712 33.5005 28.6331 32.7718 29.2571C32.0612 29.8655 31.1528 30.1485 30.2768 30.1485C29.4008 30.1485 28.4924 29.8655 27.7819 29.2571C27.0532 28.6331 26.5877 27.712 26.5597 26.5693M33.994 26.5693C34.0366 24.8474 33.2272 23.1849 32.5081 22.0369C32.1378 21.4458 31.7666 20.9523 31.4877 20.606C31.3479 20.4324 31.2302 20.2944 31.1459 20.1982C31.1037 20.1501 31.0698 20.1123 31.0457 20.0857C31.0336 20.0724 31.0239 20.0618 31.0168 20.0541C31.0133 20.0503 31.0104 20.0472 31.0081 20.0448L31.0053 20.0417L31.0038 20.0402C31.0037 20.04 31.0035 20.0398 30.2768 20.7211C29.5502 20.0398 29.55 20.04 29.5498 20.0402L29.5484 20.0417L29.5455 20.0448C29.5433 20.0472 29.5404 20.0503 29.5369 20.0541C29.5298 20.0618 29.5201 20.0724 29.508 20.0857C29.4838 20.1123 29.4499 20.1501 29.4078 20.1982C29.3235 20.2944 29.2058 20.4324 29.0659 20.606C28.7871 20.9523 28.4159 21.4458 28.0456 22.0369C27.3265 23.1848 26.5172 24.8472 26.5597 26.5689M30.2768 22.2978C30.1056 22.53 29.9192 22.7987 29.7339 23.0944C29.0748 24.1467 28.5235 25.396 28.5513 26.52L28.5513 26.5204C28.5658 27.116 28.7912 27.4986 29.0776 27.7438C29.3823 28.0047 29.8134 28.1563 30.2768 28.1563C30.7403 28.1563 31.1714 28.0047 31.4761 27.7438C31.7625 27.4986 31.9879 27.116 32.0024 26.5204L32.0024 26.52C32.0302 25.396 31.4789 24.1467 30.8198 23.0944C30.6345 22.7987 30.4481 22.53 30.2768 22.2978Z" fill="white"/>
</g>
<defs>
<clipPath id="clip0_450_864">
<rect width="34" height="34" fill="white"/>
</clipPath>
</defs>
</svg>
