<svg width="48" height="48" viewBox="0 0 48 48" fill="none" xmlns="http://www.w3.org/2000/svg">
<path d="M10.0185 21.2431C11.711 21.2431 13.0875 19.8666 13.0875 18.1741C13.0875 16.4821 11.711 15.1051 10.0185 15.1051C8.32596 15.1051 6.94946 16.4816 6.94946 18.1741C6.94946 19.8666 8.32596 21.2431 10.0185 21.2431ZM10.0185 16.6051C10.8835 16.6051 11.5875 17.3091 11.5875 18.1741C11.5875 19.0391 10.8835 19.7431 10.0185 19.7431C9.15346 19.7431 8.44946 19.0391 8.44946 18.1741C8.44946 17.3091 9.15346 16.6051 10.0185 16.6051Z" fill="#716F87"/>
<path d="M38.47 19.0216C37.149 19.0216 36.075 20.0961 36.075 21.4171C36.075 22.7376 37.149 23.8121 38.47 23.8121C39.791 23.8121 40.8655 22.7376 40.8655 21.4171C40.8655 20.0961 39.791 19.0216 38.47 19.0216ZM38.47 22.3116C37.9765 22.3116 37.575 21.9101 37.575 21.4166C37.575 20.9231 37.9765 20.5211 38.47 20.5211C38.9635 20.5211 39.3655 20.9226 39.3655 21.4166C39.3655 21.9101 38.964 22.3116 38.47 22.3116Z" fill="#716F87"/>
<path d="M36.4709 17.4091C39.3654 17.4091 41.7199 15.0546 41.7199 12.1596C41.7199 9.26456 39.3654 6.91006 36.4709 6.91006C33.5764 6.91006 31.2214 9.26556 31.2214 12.1601C31.2214 15.0546 33.5764 17.4091 36.4709 17.4091ZM36.4709 8.41056C38.5384 8.41056 40.2199 10.0926 40.2199 12.1601C40.2199 14.2276 38.5384 15.9096 36.4709 15.9096C34.4034 15.9096 32.7214 14.2276 32.7214 12.1601C32.7214 10.0926 34.4039 8.41056 36.4709 8.41056Z" fill="#716F87"/>
<path d="M36.4709 10.9106C37.1594 10.9106 37.7199 11.4711 37.7199 12.1601C37.7199 12.5746 38.0559 12.9101 38.4699 12.9101C38.8839 12.9101 39.2199 12.5746 39.2199 12.1601C39.2199 10.6441 37.9864 9.41057 36.4709 9.41057C36.0569 9.41057 35.7209 9.74607 35.7209 10.1606C35.7209 10.5751 36.0569 10.9106 36.4709 10.9106Z" fill="#716F87"/>
<path d="M43.684 42.2426V38.4816C43.684 35.4241 41.716 32.8241 38.983 31.8631C38.806 29.8896 37.1455 28.3371 35.1265 28.3371H32.5085C31.5185 26.1216 29.4705 24.5586 27.102 24.1636V3.85957C27.102 2.14907 25.7105 0.757568 24 0.757568C22.2895 0.757568 20.898 2.14907 20.898 3.85957V24.1631C18.5295 24.5581 16.481 26.1211 15.491 28.3366H12.8735C10.855 28.3366 9.194 29.8891 9.017 31.8626C6.2835 32.8236 4.3155 35.4236 4.3155 38.4811V42.2421C2.292 42.5981 0.75 44.3686 0.75 46.4921C0.75 46.9061 1.0855 47.2421 1.5 47.2421H19.624C21.4775 47.2421 23.1 46.2501 24.0005 44.7721C24.901 46.2501 26.523 47.2421 28.377 47.2421H46.5C46.914 47.2421 47.25 46.9061 47.25 46.4921C47.25 44.3691 45.7075 42.5986 43.684 42.2426ZM22.398 3.85957C22.398 2.97607 23.1165 2.25757 24 2.25757C24.8835 2.25757 25.602 2.97607 25.602 3.85957V24.0636H22.398V3.85957ZM22.0765 25.5636H25.923C27.9485 25.5636 29.802 26.6431 30.821 28.3366H17.179C18.198 26.6431 20.052 25.5636 22.0765 25.5636ZM10.621 31.4606C10.9355 30.5181 11.8265 29.8366 12.8735 29.8366H35.126C36.173 29.8366 37.064 30.5181 37.3785 31.4606H10.621ZM2.3515 45.7426C2.681 44.5531 3.773 43.6771 5.066 43.6771C5.4805 43.6771 5.816 43.3411 5.816 42.9271V38.4811C5.816 35.4371 8.2925 32.9606 11.337 32.9606H11.396C9.6785 34.2816 8.565 36.3501 8.565 38.6796V42.2916C8.565 44.1946 7.0165 45.7426 5.1135 45.7426H2.3515ZM8.6565 45.7426C9.526 44.8501 10.0645 43.6331 10.0645 42.2916V38.6796C10.0645 35.5261 12.63 32.9606 15.7835 32.9606H15.7885C14.071 34.2816 12.9575 36.3501 12.9575 38.6796V42.2916C12.9575 44.1946 11.409 45.7426 9.506 45.7426H8.6565ZM13.05 45.7426C13.9195 44.8501 14.458 43.6331 14.458 42.2916V38.6796C14.458 35.5261 17.0235 32.9606 20.177 32.9606H20.182C18.4645 34.2816 17.351 36.3501 17.351 38.6796V42.2916C17.351 44.1946 15.8025 45.7426 13.8995 45.7426H13.05ZM19.624 45.7426H17.4435C18.313 44.8501 18.8515 43.6331 18.8515 42.2916V38.6796C18.8515 35.9816 20.732 33.7196 23.25 33.1211V42.1166C23.25 44.1161 21.6235 45.7426 19.624 45.7426ZM28.3765 45.7426C26.377 45.7426 24.75 44.1161 24.75 42.1166V33.1206C27.268 33.7191 29.1485 35.9811 29.1485 38.6791V42.2911C29.1485 43.6326 29.687 44.8496 30.5565 45.7421L28.3765 45.7426ZM30.6485 42.2911V38.6791C30.6485 36.3501 29.535 34.2811 27.8175 32.9601H27.823C30.977 32.9601 33.542 35.5256 33.542 38.6791V42.2911C33.542 43.6326 34.0805 44.8496 34.95 45.7421H34.1C32.197 45.7426 30.6485 44.1941 30.6485 42.2911ZM35.042 42.2911V38.6791C35.042 36.3501 33.9285 34.2811 32.211 32.9601H32.2165C35.3705 32.9601 37.9355 35.5256 37.9355 38.6791V42.2911C37.9355 43.6326 38.474 44.8496 39.3435 45.7421H38.4935C36.5905 45.7426 35.042 44.1941 35.042 42.2911ZM42.8865 45.7426C40.9835 45.7426 39.4355 44.1941 39.4355 42.2916V38.6796C39.4355 36.3506 38.322 34.2816 36.6045 32.9606H36.6635C39.7075 32.9606 42.184 35.4371 42.184 38.4811V42.9271C42.184 43.3411 42.52 43.6771 42.934 43.6771C44.227 43.6771 45.3195 44.5531 45.6485 45.7426H42.8865Z" fill="#716F87"/>
</svg>
