<svg width="38" height="38" viewBox="0 0 38 38" fill="none" xmlns="http://www.w3.org/2000/svg">
<path d="M20.9552 26.5643L21.1603 26.9801C21.1961 27.0523 21.2496 27.1117 21.3147 27.1513L21.6897 27.3789C21.7509 27.4159 21.8019 27.4706 21.8375 27.5371C21.873 27.6036 21.8918 27.6795 21.8918 27.7568C21.8918 27.8341 21.873 27.91 21.8375 27.9765C21.8019 28.043 21.7509 28.0977 21.6897 28.1347L21.3147 28.3623C21.2497 28.4013 21.1962 28.4602 21.1603 28.5318L20.9552 28.9476C20.9218 29.0154 20.8725 29.072 20.8126 29.1115C20.7527 29.1509 20.6843 29.1717 20.6146 29.1717C20.5449 29.1717 20.4765 29.1509 20.4165 29.1115C20.3566 29.072 20.3073 29.0154 20.2739 28.9476L20.0688 28.5318C20.0335 28.4603 19.9805 28.4014 19.916 28.3623L19.5409 28.1347C19.4798 28.0977 19.4287 28.043 19.3932 27.9765C19.3576 27.91 19.3389 27.8341 19.3389 27.7568C19.3389 27.6795 19.3576 27.6036 19.3932 27.5371C19.4287 27.4706 19.4798 27.4159 19.5409 27.3789L19.9157 27.1513C19.9803 27.1116 20.0334 27.0522 20.0685 26.9801L20.2736 26.5643C20.307 26.4964 20.3563 26.4397 20.4162 26.4002C20.4762 26.3607 20.5447 26.3398 20.6144 26.3398C20.6842 26.3398 20.7526 26.3607 20.8126 26.4002C20.8726 26.4397 20.9218 26.4964 20.9552 26.5643Z" fill="white"/>
<path d="M7.20178 6.30422L6.93463 6.84679C6.88816 6.94073 6.81849 7.01802 6.73381 7.06958L6.24475 7.36596C6.16533 7.41432 6.09907 7.48547 6.05292 7.57197C6.00677 7.65847 5.98242 7.75714 5.98242 7.85766C5.98242 7.95818 6.00677 8.05685 6.05292 8.14335C6.09907 8.22985 6.16533 8.301 6.24475 8.34936L6.73381 8.6454C6.81857 8.69699 6.88826 8.77441 6.93463 8.86853L7.20178 9.4111C7.24537 9.49922 7.3095 9.57272 7.38747 9.62392C7.46544 9.67512 7.55438 9.70213 7.64498 9.70213C7.73559 9.70213 7.82453 9.67512 7.9025 9.62392C7.98047 9.57272 8.0446 9.49922 8.08819 9.4111L8.35503 8.86853C8.40143 8.77432 8.47124 8.69687 8.55616 8.6454L9.04521 8.34936C9.12464 8.301 9.1909 8.22985 9.23705 8.14335C9.2832 8.05685 9.30754 7.95818 9.30754 7.85766C9.30754 7.75714 9.2832 7.65847 9.23705 7.57197C9.1909 7.48547 9.12464 7.41432 9.04521 7.36596L8.55616 7.06958C8.47132 7.01813 8.40153 6.94083 8.35503 6.84679L8.08819 6.30422C8.0446 6.2161 7.98047 6.1426 7.9025 6.0914C7.82453 6.0402 7.73559 6.01318 7.64498 6.01318C7.55438 6.01318 7.46544 6.0402 7.38747 6.0914C7.3095 6.1426 7.24537 6.2161 7.20178 6.30422Z" fill="white"/>
<path d="M13.0383 6.17363L12.8751 6.50425C12.8469 6.56158 12.8045 6.60868 12.7528 6.6399L12.4548 6.82098C12.4061 6.8504 12.3655 6.89383 12.3372 6.9467C12.3089 6.99958 12.2939 7.05993 12.2939 7.12143C12.2939 7.18292 12.3089 7.24327 12.3372 7.29615C12.3655 7.34902 12.4061 7.39245 12.4548 7.42187L12.7528 7.60261C12.8044 7.63394 12.8468 7.68101 12.8751 7.73826L13.0383 8.06888C13.0649 8.12279 13.1041 8.16776 13.1517 8.19909C13.1994 8.23042 13.2537 8.24695 13.3091 8.24695C13.3645 8.24695 13.4189 8.23042 13.4665 8.19909C13.5142 8.16776 13.5533 8.12279 13.5799 8.06888L13.7428 7.73826C13.7711 7.68105 13.8135 7.63398 13.8651 7.60261L14.1637 7.42323C14.2123 7.39373 14.2529 7.35027 14.2811 7.29741C14.3093 7.24455 14.3242 7.18423 14.3242 7.12278C14.3242 7.06133 14.3093 7.00102 14.2811 6.94815C14.2529 6.89529 14.2123 6.85183 14.1637 6.82233L13.8657 6.64125C13.8141 6.60993 13.7717 6.56286 13.7434 6.50561L13.5805 6.17498C13.5542 6.12075 13.5151 6.07543 13.4674 6.04379C13.4198 6.01215 13.3653 5.99538 13.3098 5.99524C13.2542 5.9951 13.1997 6.0116 13.1519 6.043C13.1041 6.0744 13.0649 6.11953 13.0383 6.17363Z" fill="white"/>
<path d="M32.905 1.75216L33.0713 2.08889C33.1 2.14755 33.1435 2.19572 33.1963 2.22759L33.4998 2.41206C33.549 2.44218 33.59 2.48638 33.6186 2.54006C33.6472 2.59374 33.6622 2.65492 33.6622 2.71725C33.6622 2.77958 33.6472 2.84077 33.6186 2.89445C33.59 2.94813 33.549 2.99233 33.4998 3.02245L33.1963 3.20692C33.1435 3.23879 33.1 3.28696 33.0713 3.34562L32.905 3.68235C32.8779 3.73692 32.838 3.78241 32.7897 3.81409C32.7413 3.84578 32.6861 3.86249 32.6299 3.86249C32.5738 3.86249 32.5186 3.84578 32.4702 3.81409C32.4218 3.78241 32.382 3.73692 32.3548 3.68235L32.1886 3.34562C32.1598 3.28696 32.1164 3.23879 32.0636 3.20692L31.76 3.02245C31.7108 2.99233 31.6698 2.94813 31.6413 2.89445C31.6127 2.84077 31.5977 2.77958 31.5977 2.71725C31.5977 2.65492 31.6127 2.59374 31.6413 2.54006C31.6698 2.48638 31.7108 2.44218 31.76 2.41206L32.0636 2.22759C32.1164 2.19572 32.1598 2.14755 32.1886 2.08889L32.3548 1.75216C32.382 1.69759 32.4218 1.6521 32.4702 1.62042C32.5186 1.58873 32.5738 1.57202 32.6299 1.57202C32.6861 1.57202 32.7413 1.58873 32.7897 1.62042C32.838 1.6521 32.8779 1.69759 32.905 1.75216Z" fill="white"/>
<path d="M20.0487 18.0912C19.7883 17.6222 19.3152 17.5306 18.698 17.8738C17.9467 18.2906 16.3918 20.6582 15.8835 21.4795C15.8674 21.509 15.8451 21.5336 15.8184 21.5514C15.7918 21.5691 15.7617 21.5794 15.7307 21.5813C15.702 21.5813 15.6737 21.5733 15.6485 21.5582C15.6282 21.5462 15.6104 21.5299 15.5958 21.5102C15.5813 21.4906 15.5704 21.4679 15.5637 21.4436C15.5571 21.4192 15.5549 21.3937 15.5571 21.3684C15.5594 21.3431 15.5661 21.3185 15.5769 21.2961C15.8398 20.7535 17.6594 17.0067 18.0299 16.1301C18.6302 14.7093 18.5901 14.1203 18.1521 13.7605C17.8083 13.4777 17.0071 13.3373 16.0794 15.0325C15.4244 16.2295 14.0285 18.8952 13.4034 20.1869C13.3925 20.2093 13.3778 20.2291 13.3601 20.2452C13.3423 20.2613 13.3219 20.2734 13.3 20.2808C13.278 20.2881 13.255 20.2906 13.2321 20.2881C13.2093 20.2856 13.1872 20.2781 13.167 20.266C13.1467 20.254 13.1289 20.2377 13.1143 20.218C13.0998 20.1983 13.0889 20.1756 13.0823 20.1513C13.0757 20.1269 13.0734 20.1014 13.0757 20.076C13.078 20.0507 13.0847 20.0262 13.0956 20.0037C13.779 18.5893 15.8896 14.0152 16.1849 13.2308C16.4432 12.5448 16.4728 11.634 15.8826 11.2745C15.3529 10.9517 14.7046 11.3583 14.2534 11.9717C13.5177 12.9724 11.2717 17.6008 10.7457 18.8803C10.7362 18.9034 10.7226 18.9243 10.7059 18.9416C10.6891 18.959 10.6694 18.9725 10.6479 18.9814C10.6264 18.9903 10.6036 18.9945 10.5806 18.9936C10.5577 18.9927 10.5352 18.9868 10.5143 18.9763C10.4934 18.9657 10.4746 18.9507 10.459 18.9321C10.4433 18.9135 10.4311 18.8916 10.4231 18.8678C10.4151 18.8439 10.4114 18.8186 10.4122 18.7931C10.413 18.7677 10.4183 18.7427 10.4278 18.7195C10.9804 17.3753 12.0258 15.1166 13.0094 12.7869C13.1408 12.476 13.518 11.3888 13.0283 10.9401C12.0612 10.0544 10.6375 11.5322 9.43011 13.8846C8.5006 15.6941 7.46074 18.5076 6.70974 19.6195C6.69199 19.6454 6.68041 19.6758 6.6761 19.7079C6.67178 19.74 6.67486 19.7729 6.68504 19.8033C6.69523 19.8338 6.7122 19.8609 6.73437 19.8821C6.75653 19.9033 6.78318 19.918 6.81183 19.9247C7.69311 20.1573 8.51468 20.6107 9.21357 21.2501C9.91246 21.8896 10.4701 22.698 10.8438 23.6135C10.8623 23.6606 10.8631 23.714 10.8462 23.7618C10.8292 23.8096 10.7958 23.848 10.7533 23.8685C10.7108 23.889 10.6628 23.89 10.6196 23.8711C10.5765 23.8523 10.5419 23.8153 10.5235 23.7681C10.1245 22.7873 9.50076 21.9396 8.71441 21.3096C7.92806 20.6796 7.00659 20.2894 6.04187 20.1777C5.9605 20.171 5.87882 20.1701 5.79734 20.175C5.60167 20.1927 5.4065 20.1347 5.24502 20.0109C3.70418 18.6205 2.05454 15.2468 0.47183 16.5737C-1.03813 17.8348 1.44994 20.643 2.69887 23.485C3.6338 25.5051 4.44323 27.5938 5.12153 29.7364C5.33091 30.4393 5.27436 32.0982 5.13712 33.7497C5.06046 34.6317 5.27878 35.5142 5.75052 36.2292C6.22227 36.9442 6.9145 37.4418 7.69549 37.6273C8.45737 37.8063 9.2293 37.9279 10.006 37.9912C10.8273 38.0551 11.6397 37.7695 12.2778 37.1924C12.916 36.6152 13.3319 35.79 13.441 34.8847C13.5614 33.8277 13.7685 32.7852 14.0596 31.77C14.8023 29.3643 15.7707 27.0518 16.9487 24.8706C17.5808 23.6698 18.4159 22.0964 19.1308 20.8251C19.8067 19.6195 20.3877 18.7019 20.0487 18.0912Z" fill="white"/>
<path d="M17.9511 7.40941C18.2115 6.94043 18.6847 6.84887 19.3018 7.19205C20.0528 7.60881 21.608 9.97643 22.1163 10.7977C22.1324 10.8272 22.1547 10.8519 22.1814 10.8696C22.208 10.8874 22.2381 10.8976 22.2691 10.8995C22.2992 10.8993 22.3288 10.8905 22.3549 10.8739C22.381 10.8573 22.4028 10.8335 22.4182 10.8048C22.4336 10.7761 22.442 10.7435 22.4427 10.7101C22.4433 10.6767 22.4362 10.6437 22.422 10.6143C22.1591 10.0717 20.3395 6.32496 19.9691 5.44837C19.369 4.02752 19.4091 3.4385 19.8468 3.07871C20.191 2.79589 20.9918 2.6555 21.9195 4.35069C22.5745 5.54773 23.9708 8.21343 24.5958 9.50677C24.6107 9.53745 24.6327 9.5631 24.6596 9.58101C24.6865 9.59892 24.7173 9.60842 24.7487 9.60851C24.7774 9.60843 24.8057 9.60064 24.8312 9.58578C24.872 9.56143 24.9024 9.52011 24.9157 9.4709C24.9291 9.42169 24.9243 9.36861 24.9024 9.32332C24.219 7.90891 22.1084 3.33473 21.8131 2.55038C21.5548 1.86437 21.5252 0.953538 22.1154 0.594087C22.6451 0.271259 23.2937 0.677846 23.7446 1.29129C24.4803 2.29198 26.7266 6.92042 27.2523 8.19987C27.2715 8.24663 27.3067 8.28302 27.3501 8.30101C27.3935 8.31901 27.4416 8.31715 27.4837 8.29583C27.5259 8.27452 27.5587 8.2355 27.5749 8.18736C27.5911 8.13921 27.5894 8.0859 27.5702 8.03913C27.0176 6.69492 25.9722 4.43614 24.9886 2.10649C24.8575 1.79553 24.48 0.708365 24.9697 0.25973C25.9368 -0.626012 27.3605 0.851807 28.5679 3.20418C29.4977 5.01364 30.5376 7.82719 31.2883 8.93911C31.306 8.96493 31.3176 8.9953 31.3219 9.02741C31.3263 9.05952 31.3232 9.09233 31.3131 9.12278C31.3029 9.15323 31.286 9.18034 31.2638 9.20158C31.2417 9.22283 31.2151 9.23753 31.1865 9.24431C30.3053 9.47674 29.4838 9.92991 28.7849 10.5691C28.086 11.2082 27.5283 12.0164 27.1545 12.9317C27.1454 12.9551 27.1405 12.9803 27.1402 13.0058C27.1398 13.0314 27.1441 13.0567 27.1526 13.0804C27.1611 13.1041 27.1738 13.1257 27.1898 13.1439C27.2059 13.1622 27.2251 13.1767 27.2462 13.1867C27.2682 13.1972 27.2919 13.2027 27.3159 13.2027C27.3499 13.2028 27.3832 13.1918 27.4117 13.1711C27.4401 13.1504 27.4625 13.121 27.4761 13.0864C27.875 12.1055 28.4988 11.2578 29.2851 10.6278C30.0715 9.99786 30.9929 9.60758 31.9577 9.49592C32.039 9.48924 32.1207 9.48833 32.2022 9.49321C32.3979 9.51092 32.5932 9.45293 32.7548 9.32908C34.2956 7.93875 35.9453 4.565 37.5277 5.89192C39.038 7.15305 36.5496 9.96117 35.3007 12.8032C34.3653 14.8233 33.5554 16.912 32.8768 19.0546C32.6674 19.7576 32.7224 21.4165 32.8609 23.0679C32.9375 23.9499 32.7192 24.8324 32.2475 25.5474C31.7757 26.2624 31.0835 26.76 30.3025 26.9456C29.5406 27.1246 28.7687 27.2461 27.992 27.3094C27.1708 27.3733 26.3585 27.0876 25.7204 26.5105C25.0823 25.9333 24.6664 25.1082 24.5573 24.2029C24.4368 23.146 24.2297 22.1034 23.9387 21.0882C23.1959 18.6826 22.2275 16.3701 21.0496 14.1888C20.4172 12.988 19.5809 11.4146 18.8672 10.1433C18.1913 8.93776 17.6103 8.02014 17.9511 7.40941Z" fill="white"/>
</svg>
