<svg width="242" height="79" viewBox="0 0 242 79" fill="none" xmlns="http://www.w3.org/2000/svg">
<path d="M84.275 61C83.945 61 83.675 60.895 83.465 60.685C83.255 60.475 83.15 60.205 83.15 59.875V30.625C83.15 30.295 83.255 30.025 83.465 29.815C83.675 29.605 83.945 29.5 84.275 29.5H96.875C99.365 29.5 101.525 29.89 103.355 30.67C105.215 31.42 106.655 32.56 107.675 34.09C108.725 35.62 109.25 37.555 109.25 39.895C109.25 42.205 108.725 44.11 107.675 45.61C106.655 47.11 105.215 48.22 103.355 48.94C101.525 49.66 99.365 50.02 96.875 50.02H91.52V59.875C91.52 60.205 91.4 60.475 91.16 60.685C90.95 60.895 90.68 61 90.35 61H84.275ZM91.385 43.81H96.65C97.94 43.81 98.96 43.48 99.71 42.82C100.49 42.16 100.88 41.155 100.88 39.805C100.88 38.665 100.55 37.705 99.89 36.925C99.23 36.145 98.15 35.755 96.65 35.755H91.385V43.81ZM123.871 61.45C121.351 61.45 119.221 61.045 117.481 60.235C115.771 59.425 114.451 58.27 113.521 56.77C112.621 55.24 112.111 53.425 111.991 51.325C111.961 50.725 111.946 50.05 111.946 49.3C111.946 48.52 111.961 47.845 111.991 47.275C112.111 45.145 112.651 43.33 113.611 41.83C114.571 40.33 115.906 39.175 117.616 38.365C119.356 37.555 121.441 37.15 123.871 37.15C126.331 37.15 128.416 37.555 130.126 38.365C131.866 39.175 133.216 40.33 134.176 41.83C135.136 43.33 135.676 45.145 135.796 47.275C135.826 47.845 135.841 48.52 135.841 49.3C135.841 50.05 135.826 50.725 135.796 51.325C135.676 53.425 135.151 55.24 134.221 56.77C133.321 58.27 132.001 59.425 130.261 60.235C128.551 61.045 126.421 61.45 123.871 61.45ZM123.871 55.96C125.221 55.96 126.196 55.555 126.796 54.745C127.426 53.935 127.786 52.72 127.876 51.1C127.906 50.65 127.921 50.05 127.921 49.3C127.921 48.55 127.906 47.95 127.876 47.5C127.786 45.91 127.426 44.71 126.796 43.9C126.196 43.06 125.221 42.64 123.871 42.64C122.551 42.64 121.576 43.06 120.946 43.9C120.316 44.71 119.971 45.91 119.911 47.5C119.881 47.95 119.866 48.55 119.866 49.3C119.866 50.05 119.881 50.65 119.911 51.1C119.971 52.72 120.316 53.935 120.946 54.745C121.576 55.555 122.551 55.96 123.871 55.96ZM151.337 61.45C148.817 61.45 146.687 61.045 144.947 60.235C143.237 59.425 141.917 58.27 140.987 56.77C140.087 55.24 139.577 53.425 139.457 51.325C139.427 50.725 139.412 50.05 139.412 49.3C139.412 48.52 139.427 47.845 139.457 47.275C139.577 45.145 140.117 43.33 141.077 41.83C142.037 40.33 143.372 39.175 145.082 38.365C146.822 37.555 148.907 37.15 151.337 37.15C153.797 37.15 155.882 37.555 157.592 38.365C159.332 39.175 160.682 40.33 161.642 41.83C162.602 43.33 163.142 45.145 163.262 47.275C163.292 47.845 163.307 48.52 163.307 49.3C163.307 50.05 163.292 50.725 163.262 51.325C163.142 53.425 162.617 55.24 161.687 56.77C160.787 58.27 159.467 59.425 157.727 60.235C156.017 61.045 153.887 61.45 151.337 61.45ZM151.337 55.96C152.687 55.96 153.662 55.555 154.262 54.745C154.892 53.935 155.252 52.72 155.342 51.1C155.372 50.65 155.387 50.05 155.387 49.3C155.387 48.55 155.372 47.95 155.342 47.5C155.252 45.91 154.892 44.71 154.262 43.9C153.662 43.06 152.687 42.64 151.337 42.64C150.017 42.64 149.042 43.06 148.412 43.9C147.782 44.71 147.437 45.91 147.377 47.5C147.347 47.95 147.332 48.55 147.332 49.3C147.332 50.05 147.347 50.65 147.377 51.1C147.437 52.72 147.782 53.935 148.412 54.745C149.042 55.555 150.017 55.96 151.337 55.96ZM168.858 61C168.528 61 168.258 60.895 168.048 60.685C167.838 60.475 167.733 60.205 167.733 59.875V30.175C167.733 29.845 167.838 29.575 168.048 29.365C168.258 29.155 168.528 29.05 168.858 29.05H174.168C174.498 29.05 174.768 29.155 174.978 29.365C175.188 29.575 175.293 29.845 175.293 30.175V59.875C175.293 60.205 175.188 60.475 174.978 60.685C174.768 60.895 174.498 61 174.168 61H168.858ZM181.734 61C181.404 61 181.134 60.895 180.924 60.685C180.714 60.475 180.609 60.205 180.609 59.875V38.725C180.609 38.395 180.714 38.125 180.924 37.915C181.134 37.705 181.404 37.6 181.734 37.6H187.044C187.344 37.6 187.599 37.705 187.809 37.915C188.049 38.125 188.169 38.395 188.169 38.725V59.875C188.169 60.205 188.049 60.475 187.809 60.685C187.599 60.895 187.344 61 187.044 61H181.734ZM181.689 34.225C181.359 34.225 181.089 34.12 180.879 33.91C180.669 33.7 180.564 33.43 180.564 33.1V29.095C180.564 28.765 180.669 28.495 180.879 28.285C181.089 28.045 181.359 27.925 181.689 27.925H187.044C187.374 27.925 187.644 28.045 187.854 28.285C188.094 28.495 188.214 28.765 188.214 29.095V33.1C188.214 33.43 188.094 33.7 187.854 33.91C187.644 34.12 187.374 34.225 187.044 34.225H181.689ZM205.411 61C203.491 61 201.826 60.7 200.416 60.1C199.036 59.47 197.971 58.51 197.221 57.22C196.471 55.9 196.096 54.205 196.096 52.135V43.495H192.586C192.256 43.495 191.971 43.39 191.731 43.18C191.521 42.97 191.416 42.7 191.416 42.37V38.725C191.416 38.395 191.521 38.125 191.731 37.915C191.971 37.705 192.256 37.6 192.586 37.6H196.096V30.175C196.096 29.845 196.201 29.575 196.411 29.365C196.651 29.155 196.921 29.05 197.221 29.05H202.441C202.771 29.05 203.041 29.155 203.251 29.365C203.461 29.575 203.566 29.845 203.566 30.175V37.6H209.191C209.521 37.6 209.791 37.705 210.001 37.915C210.211 38.125 210.316 38.395 210.316 38.725V42.37C210.316 42.7 210.211 42.97 210.001 43.18C209.791 43.39 209.521 43.495 209.191 43.495H203.566V51.505C203.566 52.525 203.761 53.335 204.151 53.935C204.541 54.535 205.201 54.835 206.131 54.835H209.596C209.926 54.835 210.196 54.94 210.406 55.15C210.616 55.36 210.721 55.63 210.721 55.96V59.875C210.721 60.205 210.616 60.475 210.406 60.685C210.196 60.895 209.926 61 209.596 61H205.411ZM225.517 61.45C222.997 61.45 220.867 61.045 219.127 60.235C217.417 59.425 216.097 58.27 215.167 56.77C214.267 55.24 213.757 53.425 213.637 51.325C213.607 50.725 213.592 50.05 213.592 49.3C213.592 48.52 213.607 47.845 213.637 47.275C213.757 45.145 214.297 43.33 215.257 41.83C216.217 40.33 217.552 39.175 219.262 38.365C221.002 37.555 223.087 37.15 225.517 37.15C227.977 37.15 230.062 37.555 231.772 38.365C233.512 39.175 234.862 40.33 235.822 41.83C236.782 43.33 237.322 45.145 237.442 47.275C237.472 47.845 237.487 48.52 237.487 49.3C237.487 50.05 237.472 50.725 237.442 51.325C237.322 53.425 236.797 55.24 235.867 56.77C234.967 58.27 233.647 59.425 231.907 60.235C230.197 61.045 228.067 61.45 225.517 61.45ZM225.517 55.96C226.867 55.96 227.842 55.555 228.442 54.745C229.072 53.935 229.432 52.72 229.522 51.1C229.552 50.65 229.567 50.05 229.567 49.3C229.567 48.55 229.552 47.95 229.522 47.5C229.432 45.91 229.072 44.71 228.442 43.9C227.842 43.06 226.867 42.64 225.517 42.64C224.197 42.64 223.222 43.06 222.592 43.9C221.962 44.71 221.617 45.91 221.557 47.5C221.527 47.95 221.512 48.55 221.512 49.3C221.512 50.05 221.527 50.65 221.557 51.1C221.617 52.72 221.962 53.935 222.592 54.745C223.222 55.555 224.197 55.96 225.517 55.96Z" fill="white"/>
<path d="M53.4116 27.8819L55.6013 25.8089C58.102 23.4395 60.5999 21.0683 63.0952 18.6951C67.6107 14.4028 72.1263 10.1106 76.6419 5.81843C77.144 5.34255 77.109 5.02453 76.5905 4.59275C75.2744 3.48198 73.9477 2.37701 72.7145 1.17918C71.9554 0.440989 71.4661 0.467685 70.7479 1.2349C68.0187 4.14821 65.2393 7.0151 62.4646 9.88663C57.9778 14.5294 53.4863 19.169 48.9902 23.8055C50.5987 25.0125 52.08 26.3783 53.4116 27.8819Z" fill="white"/>
<path d="M39.1674 33.9904C38.6653 34.5161 38.3406 34.6705 37.6341 34.1494C36.0785 33.0026 34.2474 32.6091 32.3111 32.8088C30.0549 33.0409 28.0766 33.9695 26.256 35.2648C25.059 36.1144 23.9811 37.1045 22.9195 38.1201C20.8992 40.0526 18.4421 40.9893 15.6452 41.074C15.3275 41.0833 14.8919 40.9579 14.7319 41.2818C14.5252 41.7054 15.0075 41.9027 15.2411 42.1418C16.1847 43.1145 17.1797 44.0395 18.1104 45.0238C18.6219 45.5658 19.144 45.7016 19.8785 45.545C21.4072 45.2188 22.8319 44.6164 24.5078 43.819C23.521 45.2803 22.679 46.4155 21.3546 47.0852C21.0323 47.2477 20.5629 47.3777 21.0043 47.8466C21.6828 48.5662 22.3928 49.2557 23.1064 49.9451C23.4392 50.2678 23.7837 50.0821 24.12 49.9149C24.8639 49.5435 25.4584 48.9713 26.1766 48.2343C26.1404 49.3624 25.6966 50.0774 25.1956 50.739C24.7951 51.2671 24.746 51.642 25.2645 52.1388C25.7585 52.6123 26.1252 52.6657 26.6659 52.2212C27.4028 51.5859 28.3404 51.2274 29.3157 51.2079L28.7867 51.6885C26.9462 53.354 26.9333 53.7777 28.6699 55.4978C28.8264 55.6522 28.9922 55.7984 29.137 55.9621C29.5633 56.4264 29.8272 56.3451 30.0818 55.7729C30.6902 54.4033 31.9316 53.657 33.1637 52.8712C32.4976 54.2586 31.9861 55.7142 31.6385 57.2121C31.4703 57.9352 31.5918 58.4622 32.1441 58.9729C33.0586 59.819 33.9146 60.7267 34.8044 61.5984C35.0065 61.7968 35.1992 62.1624 35.4934 62.0626C35.8847 61.9315 35.7048 61.4997 35.727 61.1968C35.8893 58.1128 36.9813 55.4409 39.2538 53.289C40.4859 52.1327 41.5407 50.8031 42.3848 49.3427C44.3701 45.8781 45.0544 42.3891 42.4875 38.878C42.1068 38.3568 42.5798 38.1526 42.8379 37.9042C46.36 34.5591 49.8864 31.2179 53.4172 27.8805C52.0848 26.3768 50.6027 25.0111 48.9935 23.8042L47.7906 25.0461C44.9084 28.0221 42.034 31.0035 39.1674 33.9904Z" fill="white"/>
<path d="M3.24023 57.8181C4.52568 61.4199 6.53857 64.7223 9.15523 67.5226C11.5997 70.1818 14.5427 72.3416 17.8193 73.8808C11.0984 70.5416 5.89211 64.8055 3.24023 57.8181Z" fill="white"/>
<path d="M44.4891 71.4597C32.2807 75.0393 21.2495 73.4433 12.6076 63.8271C3.96573 54.2108 3.61538 43.1228 8.67321 31.3105C2.39034 37.4831 -0.226743 48.0372 3.23468 57.8182C5.88655 64.8056 11.0928 70.5417 17.8137 73.8809C27.4354 78.3739 38.3546 76.6236 44.4891 71.4597Z" fill="white"/>
<path d="M41.5081 75.6079C38.6025 76.8847 35.5078 77.5242 32.3594 78.0384C34.1672 78.5897 36.0006 78.2845 37.7839 78.0442C46.5169 76.8638 53.6009 72.7271 58.8899 65.7584C64.6858 58.1246 66.608 49.4821 64.9346 40.0829C64.0003 34.8099 61.7698 30.0813 58.4823 25.8344C57.93 25.1194 57.5411 25.0718 56.949 25.738C56.3765 26.4051 55.7517 27.0261 55.0805 27.5951C54.2852 28.2451 54.3132 28.7663 54.9217 29.5799C59.1644 35.2614 61.1964 41.5883 60.8157 48.4677C60.7039 51.7404 60.0436 54.9716 58.8619 58.0282C55.9412 66.0486 50.0355 71.852 41.5081 75.6079Z" fill="white"/>
<path d="M58.8594 58.0269C60.0411 54.9702 60.7014 51.739 60.8132 48.4663C60.7699 49.2498 60.6964 50.0402 60.5913 50.8376C60.2754 53.2889 59.6947 55.6992 58.8594 58.0269Z" fill="white"/>
<path d="M11.0165 25.1926C18.0164 19.1837 26.1667 16.7811 35.3656 18.0103C39.7391 18.5906 43.7435 20.1587 47.435 22.53C47.9699 22.8782 48.3529 23.021 48.8446 22.4708C49.4775 21.7616 50.1841 21.1174 50.8579 20.4442C51.8692 19.4345 51.8821 19.4136 50.6944 18.6394C43.921 14.2288 36.482 12.2289 28.4649 13.3002C16.0055 14.9589 7.11133 21.584 2.10138 33.1189C0.320426 37.2007 -0.348177 41.6765 0.162788 46.0965C0.254698 45.7912 0.329944 45.4813 0.388184 45.168C1.45908 37.208 4.8913 30.4551 11.0165 25.1926Z" fill="white"/>
<path d="M15.9992 34.9514C16.2176 33.9741 16.791 33.4715 17.7439 33.222C18.496 33.0258 19.31 32.9341 20.1742 32.3306C19.2224 32.0335 18.4773 31.7503 17.7054 31.575C16.7209 31.3568 16.2141 30.7846 15.9899 29.8282C15.8054 29.0401 15.6395 28.2299 15.1093 27.2747C14.8291 28.2032 14.5616 28.881 14.4273 29.5821C14.2008 30.7637 13.576 31.445 12.3521 31.6458C11.6806 31.7561 11.0395 32.0451 10.3843 32.254C10.3843 32.3561 10.3843 32.4583 10.375 32.5592C10.9589 32.7368 11.5346 32.9736 12.1337 33.0804C13.4896 33.3207 14.2627 34.0589 14.4811 35.4285C14.5815 36.0575 14.8314 36.6623 15.0136 37.2774C15.4814 36.5679 15.8154 35.7798 15.9992 34.9514Z" fill="white"/>
<path d="M49.9928 56.5669C49.7674 55.658 49.4346 54.7771 49.1473 53.8845C48.7084 54.5797 48.3972 55.3468 48.2282 56.1502C48.0063 57.2017 47.468 57.8134 46.3597 57.9945C45.4797 58.1186 44.6324 58.412 43.8652 58.858C44.8532 59.1413 45.5691 59.3943 46.3071 59.5452C47.3512 59.7576 47.9736 60.2869 48.2154 61.3651C48.3835 62.1196 48.5237 62.9216 49.0912 63.8026C49.3937 62.852 49.7137 62.1149 49.8538 61.3466C50.0442 60.2915 50.6327 59.8203 51.6523 59.5928C52.423 59.421 53.2498 59.2724 54.093 58.6735C53.042 58.3578 52.1813 58.0583 51.2984 57.8483C50.572 57.6776 50.1738 57.2981 49.9928 56.5669Z" fill="white"/>
<path d="M37.6881 30.397C38.0198 28.1348 39.0837 26.7791 41.494 26.4959C39.1245 26.1941 38.0104 24.8535 37.6683 22.6018C37.4183 24.9754 36.1408 26.1361 33.8145 26.4843C36.1559 26.8348 37.4043 28.0605 37.6881 30.397Z" fill="white"/>
<path d="M54.698 39.4771C54.3699 41.3225 53.4508 42.4229 51.5332 42.727C53.5524 42.9591 54.3652 44.1604 54.7797 45.985C54.8837 43.8958 56.0971 43.038 57.9667 42.6805C56.0211 42.4438 55.0133 41.391 54.698 39.4771Z" fill="white"/>
<path d="M23.9877 27.3701C24.2925 25.5315 25.437 24.7133 27.1537 24.3384C25.3295 24.0238 24.3159 23.0488 24.1173 21.1465C23.426 21.9659 23.6047 22.8701 23.0499 23.4249C22.4952 23.9797 21.5178 23.7603 20.7832 24.5554C22.6342 24.6819 23.6268 25.5838 23.9877 27.3701Z" fill="white"/>
</svg>
