<svg width="240" height="80" viewBox="0 0 240 80" fill="none" xmlns="http://www.w3.org/2000/svg">
<path d="M84.2777 61.0518C83.9477 61.0518 83.6777 60.9468 83.4677 60.7368C83.2577 60.5268 83.1527 60.2568 83.1527 59.9268V30.6768C83.1527 30.3468 83.2577 30.0768 83.4677 29.8668C83.6777 29.6568 83.9477 29.5518 84.2777 29.5518H96.8777C99.3677 29.5518 101.528 29.9418 103.358 30.7218C105.218 31.4718 106.658 32.6118 107.678 34.1418C108.728 35.6718 109.253 37.6068 109.253 39.9468C109.253 42.2568 108.728 44.1618 107.678 45.6618C106.658 47.1618 105.218 48.2718 103.358 48.9918C101.528 49.7118 99.3677 50.0718 96.8777 50.0718H91.5227V59.9268C91.5227 60.2568 91.4027 60.5268 91.1627 60.7368C90.9527 60.9468 90.6827 61.0518 90.3527 61.0518H84.2777ZM91.3877 43.8618H96.6527C97.9427 43.8618 98.9627 43.5318 99.7127 42.8718C100.493 42.2118 100.883 41.2068 100.883 39.8568C100.883 38.7168 100.553 37.7568 99.8927 36.9768C99.2327 36.1968 98.1527 35.8068 96.6527 35.8068H91.3877V43.8618ZM123.874 61.5018C121.354 61.5018 119.224 61.0968 117.484 60.2868C115.774 59.4768 114.454 58.3218 113.524 56.8218C112.624 55.2918 112.114 53.4768 111.994 51.3768C111.964 50.7768 111.949 50.1018 111.949 49.3518C111.949 48.5718 111.964 47.8968 111.994 47.3268C112.114 45.1968 112.654 43.3818 113.614 41.8818C114.574 40.3818 115.909 39.2268 117.619 38.4168C119.359 37.6068 121.444 37.2018 123.874 37.2018C126.334 37.2018 128.419 37.6068 130.129 38.4168C131.869 39.2268 133.219 40.3818 134.179 41.8818C135.139 43.3818 135.679 45.1968 135.799 47.3268C135.829 47.8968 135.844 48.5718 135.844 49.3518C135.844 50.1018 135.829 50.7768 135.799 51.3768C135.679 53.4768 135.154 55.2918 134.224 56.8218C133.324 58.3218 132.004 59.4768 130.264 60.2868C128.554 61.0968 126.424 61.5018 123.874 61.5018ZM123.874 56.0118C125.224 56.0118 126.199 55.6068 126.799 54.7968C127.429 53.9868 127.789 52.7718 127.879 51.1518C127.909 50.7018 127.924 50.1018 127.924 49.3518C127.924 48.6018 127.909 48.0018 127.879 47.5518C127.789 45.9618 127.429 44.7618 126.799 43.9518C126.199 43.1118 125.224 42.6918 123.874 42.6918C122.554 42.6918 121.579 43.1118 120.949 43.9518C120.319 44.7618 119.974 45.9618 119.914 47.5518C119.884 48.0018 119.869 48.6018 119.869 49.3518C119.869 50.1018 119.884 50.7018 119.914 51.1518C119.974 52.7718 120.319 53.9868 120.949 54.7968C121.579 55.6068 122.554 56.0118 123.874 56.0118ZM151.34 61.5018C148.82 61.5018 146.69 61.0968 144.95 60.2868C143.24 59.4768 141.92 58.3218 140.99 56.8218C140.09 55.2918 139.58 53.4768 139.46 51.3768C139.43 50.7768 139.415 50.1018 139.415 49.3518C139.415 48.5718 139.43 47.8968 139.46 47.3268C139.58 45.1968 140.12 43.3818 141.08 41.8818C142.04 40.3818 143.375 39.2268 145.085 38.4168C146.825 37.6068 148.91 37.2018 151.34 37.2018C153.8 37.2018 155.885 37.6068 157.595 38.4168C159.335 39.2268 160.685 40.3818 161.645 41.8818C162.605 43.3818 163.145 45.1968 163.265 47.3268C163.295 47.8968 163.31 48.5718 163.31 49.3518C163.31 50.1018 163.295 50.7768 163.265 51.3768C163.145 53.4768 162.62 55.2918 161.69 56.8218C160.79 58.3218 159.47 59.4768 157.73 60.2868C156.02 61.0968 153.89 61.5018 151.34 61.5018ZM151.34 56.0118C152.69 56.0118 153.665 55.6068 154.265 54.7968C154.895 53.9868 155.255 52.7718 155.345 51.1518C155.375 50.7018 155.39 50.1018 155.39 49.3518C155.39 48.6018 155.375 48.0018 155.345 47.5518C155.255 45.9618 154.895 44.7618 154.265 43.9518C153.665 43.1118 152.69 42.6918 151.34 42.6918C150.02 42.6918 149.045 43.1118 148.415 43.9518C147.785 44.7618 147.44 45.9618 147.38 47.5518C147.35 48.0018 147.335 48.6018 147.335 49.3518C147.335 50.1018 147.35 50.7018 147.38 51.1518C147.44 52.7718 147.785 53.9868 148.415 54.7968C149.045 55.6068 150.02 56.0118 151.34 56.0118ZM168.861 61.0518C168.531 61.0518 168.261 60.9468 168.051 60.7368C167.841 60.5268 167.736 60.2568 167.736 59.9268V30.2268C167.736 29.8968 167.841 29.6268 168.051 29.4168C168.261 29.2068 168.531 29.1018 168.861 29.1018H174.171C174.501 29.1018 174.771 29.2068 174.981 29.4168C175.191 29.6268 175.296 29.8968 175.296 30.2268V59.9268C175.296 60.2568 175.191 60.5268 174.981 60.7368C174.771 60.9468 174.501 61.0518 174.171 61.0518H168.861ZM181.737 61.0518C181.407 61.0518 181.137 60.9468 180.927 60.7368C180.717 60.5268 180.612 60.2568 180.612 59.9268V38.7768C180.612 38.4468 180.717 38.1768 180.927 37.9668C181.137 37.7568 181.407 37.6518 181.737 37.6518H187.047C187.347 37.6518 187.602 37.7568 187.812 37.9668C188.052 38.1768 188.172 38.4468 188.172 38.7768V59.9268C188.172 60.2568 188.052 60.5268 187.812 60.7368C187.602 60.9468 187.347 61.0518 187.047 61.0518H181.737ZM181.692 34.2768C181.362 34.2768 181.092 34.1718 180.882 33.9618C180.672 33.7518 180.567 33.4818 180.567 33.1518V29.1468C180.567 28.8168 180.672 28.5468 180.882 28.3368C181.092 28.0968 181.362 27.9768 181.692 27.9768H187.047C187.377 27.9768 187.647 28.0968 187.857 28.3368C188.097 28.5468 188.217 28.8168 188.217 29.1468V33.1518C188.217 33.4818 188.097 33.7518 187.857 33.9618C187.647 34.1718 187.377 34.2768 187.047 34.2768H181.692ZM205.414 61.0518C203.494 61.0518 201.829 60.7518 200.419 60.1518C199.039 59.5218 197.974 58.5618 197.224 57.2718C196.474 55.9518 196.099 54.2568 196.099 52.1868V43.5468H192.589C192.259 43.5468 191.974 43.4418 191.734 43.2318C191.524 43.0218 191.419 42.7518 191.419 42.4218V38.7768C191.419 38.4468 191.524 38.1768 191.734 37.9668C191.974 37.7568 192.259 37.6518 192.589 37.6518H196.099V30.2268C196.099 29.8968 196.204 29.6268 196.414 29.4168C196.654 29.2068 196.924 29.1018 197.224 29.1018H202.444C202.774 29.1018 203.044 29.2068 203.254 29.4168C203.464 29.6268 203.569 29.8968 203.569 30.2268V37.6518H209.194C209.524 37.6518 209.794 37.7568 210.004 37.9668C210.214 38.1768 210.319 38.4468 210.319 38.7768V42.4218C210.319 42.7518 210.214 43.0218 210.004 43.2318C209.794 43.4418 209.524 43.5468 209.194 43.5468H203.569V51.5568C203.569 52.5768 203.764 53.3868 204.154 53.9868C204.544 54.5868 205.204 54.8868 206.134 54.8868H209.599C209.929 54.8868 210.199 54.9918 210.409 55.2018C210.619 55.4118 210.724 55.6818 210.724 56.0118V59.9268C210.724 60.2568 210.619 60.5268 210.409 60.7368C210.199 60.9468 209.929 61.0518 209.599 61.0518H205.414ZM225.52 61.5018C223 61.5018 220.87 61.0968 219.13 60.2868C217.42 59.4768 216.1 58.3218 215.17 56.8218C214.27 55.2918 213.76 53.4768 213.64 51.3768C213.61 50.7768 213.595 50.1018 213.595 49.3518C213.595 48.5718 213.61 47.8968 213.64 47.3268C213.76 45.1968 214.3 43.3818 215.26 41.8818C216.22 40.3818 217.555 39.2268 219.265 38.4168C221.005 37.6068 223.09 37.2018 225.52 37.2018C227.98 37.2018 230.065 37.6068 231.775 38.4168C233.515 39.2268 234.865 40.3818 235.825 41.8818C236.785 43.3818 237.325 45.1968 237.445 47.3268C237.475 47.8968 237.49 48.5718 237.49 49.3518C237.49 50.1018 237.475 50.7768 237.445 51.3768C237.325 53.4768 236.8 55.2918 235.87 56.8218C234.97 58.3218 233.65 59.4768 231.91 60.2868C230.2 61.0968 228.07 61.5018 225.52 61.5018ZM225.52 56.0118C226.87 56.0118 227.845 55.6068 228.445 54.7968C229.075 53.9868 229.435 52.7718 229.525 51.1518C229.555 50.7018 229.57 50.1018 229.57 49.3518C229.57 48.6018 229.555 48.0018 229.525 47.5518C229.435 45.9618 229.075 44.7618 228.445 43.9518C227.845 43.1118 226.87 42.6918 225.52 42.6918C224.2 42.6918 223.225 43.1118 222.595 43.9518C221.965 44.7618 221.62 45.9618 221.56 47.5518C221.53 48.0018 221.515 48.6018 221.515 49.3518C221.515 50.1018 221.53 50.7018 221.56 51.1518C221.62 52.7718 221.965 53.9868 222.595 54.7968C223.225 55.6068 224.2 56.0118 225.52 56.0118Z" fill="#063A41"/>
<path d="M53.4145 27.7296L55.6042 25.6193C58.1049 23.2074 60.6028 20.7935 63.0981 18.3776C67.6137 14.0082 72.1292 9.63881 76.6448 5.26942C77.147 4.78499 77.1119 4.46124 76.5934 4.0217C75.2773 2.89096 73.9506 1.76612 72.7174 0.546752C71.9583 -0.204717 71.469 -0.177541 70.7508 0.603466C68.0216 3.56917 65.2422 6.48761 62.4675 9.41077C57.9807 14.137 53.4893 18.86 48.9932 23.58C50.6016 24.8087 52.0829 26.199 53.4145 27.7296Z" fill="#109C3D"/>
<path d="M39.1708 33.9479C38.6687 34.4832 38.344 34.6403 37.6375 34.1098C36.082 32.9424 34.2508 32.5419 32.3146 32.7451C30.0583 32.9814 28.08 33.9267 26.2594 35.2453C25.0624 36.1102 23.9845 37.118 22.923 38.1519C20.9026 40.1192 18.4455 41.0727 15.6486 41.159C15.3309 41.1684 14.8953 41.0408 14.7353 41.3705C14.5286 41.8017 15.011 42.0026 15.2445 42.246C16.1881 43.2361 17.1831 44.1778 18.1139 45.1798C18.6254 45.7316 19.1474 45.8698 19.8819 45.7103C21.4106 45.3783 22.8354 44.7651 24.5112 43.9533C23.5244 45.4409 22.6824 46.5965 21.3581 47.2782C21.0357 47.4436 20.5663 47.576 21.0077 48.0533C21.6862 48.7859 22.3963 49.4877 23.1098 50.1896C23.4426 50.518 23.7871 50.329 24.1235 50.1588C24.8674 49.7808 25.4618 49.1982 26.18 48.448C26.1438 49.5964 25.7 50.3243 25.199 50.9977C24.7985 51.5354 24.7494 51.917 25.2679 52.4227C25.7619 52.9048 26.1286 52.9591 26.6693 52.5066C27.4062 51.8599 28.3438 51.4949 29.3191 51.4751L28.7901 51.9643C26.9496 53.6598 26.9367 54.0911 28.6733 55.8421C28.8298 55.9993 28.9956 56.1481 29.1404 56.3147C29.5667 56.7874 29.8306 56.7047 30.0852 56.1221C30.6936 54.7279 31.935 53.9682 33.1671 53.1683C32.501 54.5806 31.9896 56.0624 31.6419 57.5873C31.4737 58.3234 31.5952 58.8598 32.1476 59.3797C33.062 60.241 33.918 61.165 34.8078 62.0524C35.0099 62.2544 35.2026 62.6266 35.4969 62.525C35.8881 62.3915 35.7082 61.9519 35.7304 61.6436C35.8928 58.5042 36.9847 55.7842 39.2573 53.5936C40.4893 52.4165 41.5441 51.063 42.3882 49.5763C44.3735 46.0494 45.0578 42.4977 42.4909 38.9235C42.1102 38.3929 42.5832 38.185 42.8413 37.9321C46.3634 34.5269 49.8899 31.1256 53.4206 27.7282C52.0882 26.1975 50.6061 24.8072 48.9969 23.5786L47.794 24.8429C44.9118 27.8724 42.0375 30.9074 39.1708 33.9479Z" fill="#109C3D"/>
<path d="M3.24512 58.2041C4.53056 61.8706 6.54345 65.2325 9.16012 68.0831C11.6046 70.7901 14.5476 72.9887 17.8242 74.5556C11.1032 71.1564 5.89699 65.3172 3.24512 58.2041Z" fill="#109C3D"/>
<path d="M44.4938 72.0911C32.2854 75.735 21.2541 74.1104 12.6122 64.3212C3.97037 54.532 3.62002 43.2446 8.67785 31.22C2.39498 37.5035 -0.222104 48.2473 3.23932 58.2043C5.89119 65.3174 11.0974 71.1566 17.8184 74.5558C27.4401 79.1296 38.3592 77.3478 44.4938 72.0911Z" fill="#109C3D"/>
<path d="M41.5122 76.3139C38.6067 77.6136 35.512 78.2647 32.3635 78.7881C34.1713 79.3493 36.0048 79.0386 37.788 78.794C46.521 77.5924 53.605 73.3813 58.8941 66.2873C64.69 58.5162 66.6122 49.7183 64.9387 40.1501C64.0045 34.7823 61.7739 29.9687 58.4865 25.6454C57.9341 24.9175 57.5452 24.8691 56.9532 25.5473C56.3806 26.2264 55.7558 26.8585 55.0846 27.4378C54.2894 28.0994 54.3174 28.63 54.9258 29.4582C59.1685 35.2419 61.2005 41.6826 60.8198 48.6857C60.708 52.0172 60.0477 55.3065 58.866 58.4181C55.9453 66.5827 50.0397 72.4904 41.5122 76.3139Z" fill="#109C3D"/>
<path d="M58.8638 58.4168C60.0454 55.3051 60.7058 52.0158 60.8175 48.6843C60.7743 49.4819 60.7008 50.2865 60.5957 51.0982C60.2798 53.5936 59.6991 56.0473 58.8638 58.4168Z" fill="#109C3D"/>
<path d="M11.0204 24.9921C18.0203 18.8752 26.1706 16.4294 35.3695 17.6807C39.743 18.2714 43.7474 19.8677 47.4389 22.2816C47.9738 22.6361 48.3568 22.7814 48.8485 22.2214C49.4814 21.4994 50.188 20.8437 50.8618 20.1584C51.8731 19.1304 51.886 19.1092 50.6983 18.3211C43.9249 13.8312 36.4859 11.7953 28.4688 12.8859C16.0094 14.5744 7.11524 21.3187 2.10529 33.0609C0.324332 37.2161 -0.344271 41.7724 0.166694 46.2719C0.258605 45.9612 0.333851 45.6456 0.39209 45.3267C1.46298 37.2236 4.89521 30.3493 11.0204 24.9921Z" fill="#109C3D"/>
<path d="M16.0036 34.9264C16.222 33.9315 16.7954 33.4199 17.7483 33.1659C18.5004 32.9662 19.3144 32.8728 20.1786 32.2584C19.2268 31.9559 18.4817 31.6676 17.7098 31.4892C16.7253 31.2671 16.2185 30.6846 15.9943 29.711C15.8098 28.9087 15.6439 28.084 15.1137 27.1116C14.8335 28.0568 14.566 28.7468 14.4317 29.4605C14.2052 30.6633 13.5804 31.3569 12.3565 31.5613C11.685 31.6736 11.0439 31.9678 10.3887 32.1804C10.3887 32.2844 10.3887 32.3884 10.3794 32.4912C10.9633 32.672 11.539 32.913 12.1381 33.0217C13.494 33.2663 14.2671 34.0178 14.4855 35.412C14.5859 36.0524 14.8358 36.668 15.018 37.2942C15.4858 36.572 15.8198 35.7696 16.0036 34.9264Z" fill="#109C3D"/>
<path d="M49.9977 56.9305C49.7723 56.0054 49.4395 55.1086 49.1522 54.2C48.7133 54.9076 48.4021 55.6886 48.2331 56.5063C48.0112 57.5768 47.4728 58.1995 46.3646 58.3838C45.4846 58.5102 44.6373 58.8088 43.8701 59.2629C44.8581 59.5512 45.574 59.8088 46.312 59.9624C47.3561 60.1786 47.9785 60.7174 48.2202 61.8151C48.3884 62.5831 48.5286 63.3995 49.0961 64.2963C49.3986 63.3286 49.7186 62.5783 49.8587 61.7962C50.049 60.7221 50.6376 60.2424 51.6571 60.0108C52.4279 59.836 53.2547 59.6847 54.0979 59.075C53.0468 58.7537 52.1862 58.4488 51.3033 58.235C50.5769 58.0613 50.1787 57.6749 49.9977 56.9305Z" fill="#109C3D"/>
<path d="M37.6923 30.2901C38.0239 27.9872 39.0878 26.6072 41.4982 26.3189C39.1287 26.0116 38.0146 24.647 37.6724 22.3547C37.4225 24.771 36.1449 25.9526 33.8186 26.307C36.1601 26.6639 37.4085 27.9116 37.6923 30.2901Z" fill="#109C3D"/>
<path d="M54.7017 39.5334C54.3735 41.4121 53.4544 42.5322 51.5369 42.8418C53.556 43.0781 54.3688 44.301 54.7834 46.1584C54.8873 44.0316 56.1007 43.1585 57.9704 42.7945C56.0248 42.5535 55.017 41.4818 54.7017 39.5334Z" fill="#109C3D"/>
<path d="M23.9926 27.2085C24.2974 25.337 25.4418 24.504 27.1585 24.1223C25.3344 23.8021 24.3207 22.8096 24.1222 20.873C23.4309 21.7072 23.6095 22.6277 23.0548 23.1924C22.5001 23.7572 21.5226 23.5339 20.7881 24.3433C22.6391 24.4721 23.6317 25.3901 23.9926 27.2085Z" fill="#109C3D"/>
</svg>
